<!-- *ngIf="!isFront && !isWoman" -->
 <!-- style="padding-top: 4.50pt; padding-bottom: 4.50pt;" -->

 <svg version="1.1" xmlns="http://www.w3.org/2000/svg" xmlns:xlink="http://www.w3.org/1999/xlink" x="0px" y="0px"
      viewBox="40.12 25.72 218.162 448.562" enable-background="new 40.12 25.72 218.162 448.562"
      xml:space="preserve">
    <path fill="#F1DBCB" d="M137.249,424.723c0,0-0.098-0.018-0.261-0.053c-0.08-0.016-0.174-0.045-0.289-0.057
    c-0.11-0.021-0.236-0.037-0.374-0.062c-0.137-0.008-0.283-0.026-0.438-0.037c-0.157,0-0.316-0.012-0.486,0
    c-0.167,0-0.339,0.027-0.514,0.045c-0.088,0.009-0.174,0.031-0.26,0.046c-0.088,0.016-0.177,0.026-0.263,0.055
    c-0.174,0.037-0.344,0.092-0.513,0.146c-0.167,0.06-0.336,0.105-0.49,0.181c-0.158,0.063-0.308,0.131-0.45,0.196
    c-0.142,0.07-0.277,0.14-0.4,0.199c-0.12,0.066-0.238,0.121-0.336,0.18c-0.098,0.06-0.189,0.104-0.26,0.146
    c-0.131,0.07-0.212,0.115-0.229,0.123c0.016-0.02,0.072-0.086,0.168-0.199c0.11-0.127,0.28-0.301,0.5-0.481
    c0.113-0.093,0.236-0.191,0.374-0.283c0.14-0.092,0.287-0.189,0.449-0.271c0.159-0.088,0.336-0.168,0.515-0.235
    c0.18-0.068,0.368-0.129,0.563-0.175c0.188-0.049,0.387-0.073,0.581-0.096c0.194-0.014,0.385-0.018,0.572-0.002
    c0.184,0,0.36,0.041,0.527,0.068c0.164,0.026,0.317,0.086,0.456,0.125c0.138,0.049,0.258,0.104,0.366,0.151
    c0.108,0.043,0.193,0.107,0.268,0.146C137.171,424.668,137.249,424.723,137.249,424.723z"/>
    <path fill="#F1DBCB" d="M166.691,425.732c-0.019-0.009-0.1-0.054-0.229-0.125c-0.069-0.048-0.161-0.089-0.26-0.146
    c-0.101-0.059-0.218-0.113-0.337-0.182c-0.122-0.063-0.258-0.127-0.399-0.199c-0.144-0.066-0.292-0.133-0.448-0.199
    c-0.154-0.07-0.324-0.119-0.49-0.178c-0.168-0.055-0.34-0.109-0.514-0.146c-0.087-0.021-0.176-0.037-0.265-0.053
    c-0.085-0.014-0.171-0.037-0.261-0.045c-0.174-0.018-0.346-0.043-0.514-0.043c-0.168-0.014-0.332,0-0.483,0.002
    c-0.155,0.004-0.304,0.027-0.44,0.033c-0.137,0.021-0.263,0.043-0.371,0.061c-0.115,0.015-0.21,0.041-0.291,0.058
    c-0.16,0.032-0.259,0.053-0.259,0.053s0.079-0.055,0.224-0.146c0.071-0.038,0.157-0.104,0.269-0.145
    c0.106-0.047,0.229-0.105,0.366-0.152c0.14-0.041,0.289-0.098,0.457-0.127c0.164-0.024,0.343-0.067,0.525-0.067
    c0.188-0.017,0.379-0.015,0.57,0.004c0.193,0.021,0.395,0.045,0.584,0.096c0.191,0.043,0.381,0.104,0.563,0.172
    c0.179,0.07,0.354,0.148,0.515,0.236c0.165,0.082,0.313,0.18,0.448,0.271c0.14,0.094,0.262,0.191,0.373,0.281
    c0.223,0.188,0.392,0.363,0.5,0.484C166.622,425.643,166.682,425.717,166.691,425.732z"/>
    <path fill="none" stroke="#494949" stroke-width="0.491" stroke-miterlimit="10" d="M110.243,261.131"/>
    <path fill="none" stroke="#494949" stroke-width="0.491" stroke-miterlimit="10" d="M244.615,246.648"/>
    <g>
    <path fill="#494949" d="M131.685,425.855c0,0,0.06-0.076,0.169-0.201c0.11-0.125,0.279-0.299,0.501-0.484
      c0.112-0.092,0.234-0.188,0.373-0.283c0.139-0.092,0.286-0.188,0.449-0.271c0.16-0.088,0.335-0.166,0.514-0.238
      c0.182-0.068,0.369-0.129,0.563-0.172c0.191-0.049,0.389-0.074,0.583-0.096c0.194-0.017,0.386-0.021,0.571-0.002
      c0.186,0,0.361,0.041,0.527,0.067c0.166,0.029,0.317,0.084,0.456,0.123c0.139,0.049,0.259,0.107,0.367,0.154
      c0.109,0.043,0.193,0.104,0.268,0.145c0.145,0.089,0.222,0.146,0.222,0.146s-0.096-0.019-0.258-0.051
      c-0.08-0.019-0.176-0.043-0.29-0.06c-0.11-0.018-0.236-0.037-0.372-0.059c-0.139-0.008-0.285-0.029-0.44-0.037
      c-0.155,0-0.318-0.012-0.485,0c-0.169,0-0.34,0.027-0.515,0.045c-0.087,0.006-0.173,0.031-0.261,0.043
      c-0.087,0.014-0.175,0.029-0.261,0.055c-0.175,0.037-0.346,0.095-0.515,0.146c-0.166,0.059-0.335,0.104-0.488,0.18
      c-0.158,0.064-0.309,0.131-0.452,0.197c-0.142,0.072-0.276,0.139-0.4,0.201c-0.119,0.063-0.238,0.121-0.335,0.18
      c-0.098,0.059-0.188,0.102-0.26,0.145C131.771,425.813,131.685,425.855,131.685,425.855z"/>
    </g>
    <g>
    <path fill="#494949" d="M166.693,425.756c0,0-0.084-0.043-0.229-0.127c-0.069-0.045-0.162-0.088-0.26-0.146
      c-0.099-0.06-0.216-0.109-0.336-0.183c-0.123-0.063-0.259-0.129-0.399-0.196c-0.143-0.066-0.294-0.136-0.451-0.199
      c-0.154-0.07-0.322-0.119-0.488-0.183c-0.17-0.053-0.34-0.104-0.514-0.143c-0.088-0.025-0.176-0.041-0.264-0.055
      c-0.086-0.015-0.173-0.037-0.261-0.046c-0.175-0.02-0.347-0.047-0.513-0.043c-0.168-0.014-0.332-0.004-0.486,0
      c-0.155,0.007-0.301,0.027-0.439,0.035c-0.137,0.021-0.263,0.041-0.373,0.06c-0.113,0.014-0.209,0.043-0.289,0.059
      c-0.162,0.033-0.26,0.049-0.26,0.049s0.079-0.053,0.225-0.141c0.072-0.041,0.158-0.104,0.27-0.146
      c0.104-0.049,0.229-0.104,0.363-0.151c0.143-0.041,0.291-0.099,0.457-0.127c0.166-0.027,0.345-0.068,0.527-0.07
      c0.188-0.014,0.377-0.012,0.571,0.004c0.192,0.021,0.392,0.045,0.582,0.094c0.192,0.048,0.381,0.105,0.563,0.175
      c0.179,0.069,0.354,0.147,0.514,0.237c0.164,0.08,0.311,0.183,0.449,0.271c0.14,0.092,0.262,0.188,0.373,0.281
      c0.222,0.186,0.391,0.358,0.5,0.481C166.637,425.68,166.693,425.756,166.693,425.756z"/>
    </g>
    <polygon fill="#494949" points="172.08,463.44 172.09,463.45 172.09,463.44 "/>
    <path fill="#494949" d="M257.27,236.56c0.852-0.39,1.021-0.91,1.012-1.27c-0.04-1.1-1.75-2.05-2.75-2.44
    c-0.9-0.34-2.432-1.73-3.91-3.06c-1.01-0.92-2.061-1.86-2.92-2.5c-2.04-1.48-7.11-2.66-7.92-2.84
    c-6.461-6.19-11.562-15.2-15.131-26.78c-0.979-3.19-2.101-6.26-3.33-9.12c-2.979-6.93-6.039-11.52-8.51-15.22
    c-2.541-3.8-4.221-6.32-4.221-9.06c0-3.87-1.51-14.71-3.1-26.2c-1.131-8.15-2.301-16.58-2.92-22.54
    c-0.771-4.01-3.642-9.521-12.9-12.95c-1.729-0.64-3.439-1.26-5.109-1.87c-12.699-4.6-23.67-8.57-23.67-15.71v-9.64
    c0.801-0.65,4.359-3.9,4.659-10.74c0.78-0.4,3.229-2.06,3.44-7.47c0.029-0.64,0.06-1.24,0.08-1.78c0.148-3.06,0.22-4.59-0.61-5.05
    c-0.54-0.3-1.271-0.03-2.24,0.58c0.16-2.67,0.46-11.61-2.31-16.41c-3.46-5.99-8.44-8.77-15.66-8.77c-7.23,0-12.2,2.78-15.66,8.77
    c-2.78,4.8-2.47,13.74-2.31,16.41c-0.97-0.61-1.7-0.88-2.24-0.58c-0.83,0.46-0.76,1.99-0.62,5.05c0.03,0.54,0.06,1.14,0.08,1.78
    c0.22,5.41,2.66,7.07,3.45,7.47c0.3,6.84,3.86,10.09,4.66,10.74V85c0,7.09-10.95,11.03-23.62,15.6c-1.77,0.64-3.58,1.3-5.41,1.98
    c-9.27,3.43-12.14,8.94-12.91,12.99c-0.61,5.78-1.71,13.96-2.77,21.87c-1.59,11.77-3.09,22.89-3.09,26.83
    c0,2.74-1.68,5.26-4.22,9.07c-2.47,3.69-5.53,8.28-8.51,15.21c-1.23,2.86-2.35,5.93-3.33,9.12c-3.58,11.58-8.67,20.59-15.13,26.78
    c-0.81,0.18-5.88,1.36-7.91,2.84c-0.87,0.64-1.92,1.58-2.93,2.5c-1.48,1.33-3.01,2.72-3.9,3.06c-1.01,0.39-2.72,1.34-2.76,2.44
    c-0.01,0.36,0.16,0.88,1.01,1.27c2.09,0.96,6.93-1.94,8.04-2.63c0.16,0.84-0.08,3.71-1.21,5.84c-0.59,1.11-2.02,3.1-3.41,5.01
    c-3.41,4.72-4.27,6.082-3.79,6.65c0.31,0.37,0.8,0.86,1.51,0.91c0.59,0.04,1.24-0.24,1.93-0.87c0.53-0.489,1.52-1.65,2.66-2.99
    c1.41-1.65,3.73-4.37,4.36-4.74c0.04,0.82-1.38,4.17-2.34,5.64c-5.08,7.729-4.5,8.979-4.3,9.39c0.14,0.301,0.41,0.49,0.76,0.521
    c2.15,0.229,3.34-1.75,4.29-3.35c0.14-0.23,0.27-0.45,0.4-0.66c0.15-0.24,0.37-0.602,0.63-1.04c1.1-1.8,4.34-7.14,5.3-7.74
    c0.05,0.7-0.81,3.19-1.28,4.56c-0.32,0.922-0.62,1.791-0.78,2.371c-0.12,0.471-0.38,1.149-0.66,1.859c-0.77,2.01-1.65,4.29-1,5.37
    c0.2,0.34,0.53,0.54,0.95,0.6c2.03,0.271,2.58-1.45,3.06-2.97c0.14-0.41,0.27-0.83,0.44-1.23c0.19-0.479,0.5-1.328,0.87-2.34
    c0.75-2.08,2.29-6.33,2.93-6.99c0.22,0.44,0.14,2.25,0.09,3.36c-0.03,0.66-0.06,1.32-0.06,1.9c0,0.45-0.03,1-0.06,1.59
    c-0.12,2.101-0.24,4.271,0.65,5c0.2,0.16,0.54,0.33,1.05,0.188c2.12-0.539,2.16-3.818,2-5.729c-0.12-1.37,2.18-9.58,2.98-11.06
    c0.63-1.16,2.53-4.68,2.66-8.39c0.12-3.36,1.03-5.66,1.14-5.86c0.19-0.25,1.24-1.58,2.83-3.6c7.43-9.41,24.82-31.44,27.04-36.29
    c1.46-3.19,2.01-5.06,2.65-7.24c0.55-1.86,1.18-3.98,2.52-7.43c0.06-0.24,4.61-19.75,6.03-32.16c0.53,8.93,1.83,25,4.68,37.07
    c0.04,0.14,4.32,14.81,1.72,23.99c-2.73,9.61-11.81,69.361-3.19,94c6,17.16,6.37,30.49,5.15,35.261
    c-1.25,4.899-2.08,9.188-2.54,13.11c-0.96,8.34-0.26,17.01,2.09,25.75c0.69,2.549,1.55,5.299,2.64,8.39
    c3.38,9.63,5.66,19.3,6.96,29.569c0.39,3.061,0.69,6.101,0.91,9.021c0.15,1.95,0.25,3.7,0,5.39c-0.01,0.03-0.69,3.78-1.65,6.171
    c-0.41,1.029-0.69,2.181-0.98,3.399c-0.41,1.69-0.83,3.44-1.63,4.84c-1.4,2.432-3.5,9.562-3.97,11.58
    c-0.13,0.562-0.41,1.38-0.7,2.25c-0.7,2.062-1.48,4.392-1.21,5.59c0.29,1.23,0.35,2.69,0.18,4.36c-0.1,0.99,0.39,2.15,0.91,2.78
    c0.22,0.26,0.45,0.43,0.68,0.54c0.01,0.64,0.12,2.159,1.02,3.119c0.44,0.471,1,0.739,1.67,0.811c0.02,0.35,0.11,0.86,0.47,1.3
    c0.39,0.48,0.99,0.771,1.78,0.852c0,0.39,0.06,0.97,0.46,1.47c0.44,0.57,1.16,0.859,2.14,0.89c0.76,0.021,1.33-0.18,1.67-0.58
    c0.46,1.021,1.98,1.23,2.7,1.32c0.16,0.02,0.3,0.03,0.45,0.03c1.21,0,1.95-0.722,2.56-1.53c0.89-1.14,1.82-2.53,2.01-4.15
    c0.04-0.318,0.05-0.658,0.07-0.988c0.04-0.7,0.08-1.36,0.3-1.99c0.18-0.48,0.45-0.91,0.73-1.36c0.23-0.358,0.46-0.75,0.65-1.16
    c0.66-1.448,0.71-3.438,0.15-6.658c-0.57-3.312,0.37-13.052,0.8-17.08c0.09-0.852,0.21-1.74,0.34-2.66
    c0.62-4.73,1.34-10.09-1.49-11.562c-0.48-0.34-1.13-0.97-1.13-1.278c0-10.24,1.77-30.78,4.05-41.94c0.02-0.22,2.37-22.25-1.64-42.57
    c-2.94-14.879-0.66-29.879,0.86-39.81c0.58-3.83,1.04-6.87,1.11-9.08c0.03-0.976,0.744-23.972,2.26-35.907
    c0.211-0.172,0.413-0.348,0.605-0.527c0.402-0.387,0.758-0.791,1.064-1.209c0.622-0.826,1.01-1.701,1.269-2.488
    c0.258-0.791,0.382-1.505,0.443-2.093c0.015-0.147,0.035-0.286,0.043-0.417c0.005-0.114,0.009-0.219,0.014-0.321
    c0.004,0.102,0.009,0.205,0.014,0.319c0.008,0.131,0.028,0.27,0.043,0.417c0.059,0.589,0.184,1.303,0.443,2.094
    c0.258,0.787,0.649,1.662,1.27,2.489c0.305,0.416,0.662,0.822,1.063,1.209c0.109,0.102-0.114-0.098,0,0l0.07,0.336
    c1.359,10.46,2.039,30.27,2.221,36.1c0.068,2.21,0.529,5.25,1.108,9.08c1.521,9.93,3.8,24.93,0.86,39.811
    c-3.9,19.709-1.801,41.029-1.65,42.489h-0.01l0.021,0.101h0.01c2.26,11.149,4.02,31.601,4.02,41.819c0,0.312-0.648,0.95-1.08,1.25
    c-2.869,1.5-2.158,6.86-1.529,11.58c0.121,0.92,0.24,1.82,0.33,2.67c0.431,4.03,1.369,13.761,0.801,17.08
    c-0.561,3.221-0.51,5.21,0.148,6.66c0.19,0.42,0.432,0.79,0.65,1.16c0.29,0.46,0.55,0.88,0.729,1.359
    c0.23,0.619,0.262,1.289,0.301,1.989c0.021,0.33,0.029,0.66,0.07,1c0.189,1.61,1.119,3,2,4.142c0.699,0.898,1.539,1.698,3.029,1.5
    c0.721-0.102,2.24-0.312,2.7-1.32c0.34,0.4,0.909,0.6,1.659,0.58c0.979-0.03,1.711-0.32,2.149-0.891
    c0.392-0.5,0.46-1.091,0.45-1.471c0.8-0.09,1.4-0.37,1.79-0.84c0.36-0.45,0.45-0.96,0.47-1.31c0.67-0.07,1.221-0.352,1.66-0.812
    c0.9-0.96,1.021-2.479,1.03-3.12c0.229-0.1,0.46-0.29,0.67-0.55c0.53-0.63,1.021-1.79,0.92-2.78c-0.17-1.658-0.11-3.13,0.17-4.35
    c0.28-1.2-0.51-3.53-1.2-5.58c-0.289-0.88-0.568-1.7-0.699-2.26c-0.471-2.021-2.569-9.15-3.971-11.58
    c-0.81-1.41-1.229-3.16-1.63-4.84c-0.3-1.222-0.569-2.37-0.979-3.4c-0.959-2.39-1.649-6.14-1.649-6.16
    c-0.25-1.7-0.149-3.449-0.011-5.398c0.229-2.94,0.531-5.98,0.921-9.03c1.3-10.271,3.579-19.94,6.96-29.56
    c0.02-0.051,1.9-5.49,2.65-8.291c2.35-8.739,3.049-17.409,2.09-25.76c-0.45-3.92-1.28-8.211-2.53-13.101
    c-1.22-4.771-0.86-18.101,5.14-35.261c8.62-24.641-0.449-84.389-3.18-94c-2.609-9.18,1.67-23.85,1.72-24.02
    c2.851-12.05,4.142-28.11,4.671-37.04c1.42,12.41,5.979,31.93,6.051,32.21c1.328,3.4,1.949,5.52,2.5,7.38
    c0.64,2.17,1.188,4.05,2.658,7.24c2.221,4.84,19.602,26.87,27.03,36.28c1.59,2.02,2.64,3.35,2.819,3.6
    c0.131,0.21,1.031,2.51,1.15,5.87c0.131,3.71,2.029,7.23,2.659,8.39c0.8,1.48,3.101,9.69,2.979,11.06
    c-0.159,1.91-0.119,5.189,2,5.729c0.511,0.131,0.851-0.028,1.051-0.188c0.89-0.729,0.77-2.899,0.66-5
    c-0.04-0.59-0.07-1.14-0.07-1.59c0-0.58-0.029-1.24-0.061-1.9c-0.051-1.11-0.129-2.92,0.101-3.37c0.64,0.67,2.17,4.91,2.92,7
    c0.37,1.012,0.681,1.86,0.87,2.34c0.17,0.4,0.311,0.82,0.439,1.23c0.479,1.52,1.041,3.24,3.061,2.971
    c0.43-0.061,0.75-0.261,0.95-0.601c0.649-1.08-0.23-3.36-1-5.37c-0.28-0.71-0.54-1.391-0.66-1.859
    c-0.16-0.58-0.46-1.449-0.771-2.359c-0.479-1.38-1.33-3.85-1.289-4.561c1.01,0.66,4.209,5.94,5.299,7.73
    c0.271,0.438,0.479,0.8,0.631,1.04c0.13,0.21,0.26,0.43,0.398,0.66c0.95,1.6,2.15,3.59,4.291,3.35c0.351-0.04,0.619-0.22,0.76-0.521
    c0.199-0.408,0.791-1.67-4.34-9.458c-0.91-1.38-2.301-4.65-2.301-5.54c0.762,0.49,2.99,3.1,4.36,4.71c1.14,1.34,2.13,2.5,2.659,2.99
    c0.689,0.631,1.341,0.92,1.931,0.87c0.72-0.05,1.2-0.54,1.511-0.909c0.479-0.569-0.381-1.931-3.791-6.65
    c-1.39-1.92-2.818-3.9-3.408-5.01c-1.131-2.13-1.371-5-1.201-5.84C250.34,234.62,255.18,237.51,257.27,236.56z M131.48,470.4
    c-0.05-0.28-0.11-0.58-0.09-0.7c0.04-0.29,0.26-0.76,0.46-1.221c0.36-0.771,0.66-1.449,0.51-1.881c0.04-0.18,0.53-0.46,0.91-0.59
    c-0.12,0.312-0.34,0.87-0.78,1.87l-0.19,0.44C132.01,468.98,131.71,469.68,131.48,470.4z M166.9,470.3
    c-0.23-0.72-0.53-1.42-0.82-2.068l-0.189-0.44c-0.439-1-0.66-1.57-0.771-1.88c0.37,0.13,0.86,0.41,0.899,0.57
    c-0.149,0.448,0.149,1.118,0.51,1.898c0.201,0.46,0.421,0.93,0.461,1.22C167.01,469.72,166.95,470.02,166.9,470.3z"/>
    <path fill="#F1DBCB" d="M257.368,235.186c0.01-0.87-1.466-1.416-2.108-1.666c-2.178-0.847-3.908-3.046-5.635-4.543
    c-1.95-1.692-4.341-2.574-6.795-3.256c-0.712-0.223-1.445-0.347-2.16-0.55c-0.07-0.02-0.109-0.03-0.15-0.04l-0.1-0.03l-0.07-0.07
    c-0.81-0.771-1.6-1.58-2.358-2.43c-0.05-0.05-0.101-0.1-0.13-0.15c-0.75-0.84-1.471-1.72-2.182-2.64
    c-2.229-2.92-4.25-6.24-6.06-9.94c-0.57-1.18-1.13-2.41-1.66-3.68c-1.921-4.602-3.282-9.421-5-14.1
    c-1.897-5.001-4.386-9.763-7.181-14.32c-2.377-3.875-6.006-7.813-6.785-12.409c-0.37-2.182-0.319-4.486-0.555-6.693
    c-0.606-5.68-1.398-11.337-2.19-16.993c-0.819-5.828-1.676-11.654-2.371-17.498c-0.424-3.564-0.44-7.306-1.685-10.714
    c-0.326-0.893-0.74-1.751-1.254-2.552c-2.572-4.023-6.873-6.308-11.227-7.92c-1.466-0.543-2.936-1.077-4.404-1.61
    c-7.56-2.74-14.529-5.26-19.02-8.4c-1.438-1.004-2.764-2.16-3.758-3.617c-1.453-2.131-1.356-4.591-1.377-7.043
    c-0.018-1.962-0.01-3.926-0.01-5.889c0-0.487,0.004-0.974,0.004-1.46l0.149-0.11c3.171-2.342,4.396-6.721,4.521-10.49
    c0,0,0.011-0.26,0.011-0.28c0,0,0.228-0.08,0.229-0.08c1.076-0.376,1.779-1.335,2.225-2.333c0.48-1.082,0.738-2.221,0.887-3.391
    c0.119-0.937,0.2-1.882,0.262-2.824c0.057-0.852,0.146-1.701,0.168-2.554c0.016-0.595,0.049-1.402-0.427-1.847
    c-0.522-0.489-1.687,0.506-2.164,0.839c0,0-0.64,0.43-0.649,0.439c0.146-1.598,0.203-3.181,0.22-4.784
    c0.03-3.346-0.153-6.905-1.216-10.102c-0.877-2.643-2.4-5.093-4.512-6.924c-1.137-0.985-2.502-1.962-3.873-2.594
    c-1.209-0.558-2.554-0.971-3.863-1.207c-5.652-1.016-12.038,0.107-16.139,4.362c-4.026,4.177-4.991,9.994-5.073,15.583
    c-0.028,1.886,0.051,3.787,0.227,5.665c-0.216-0.145-0.435-0.291-0.65-0.439c-1.397-0.968-1.908-1.06-2.089-0.96
    c-0.686,0.377-0.498,2.526-0.47,3.149c0.054,1.236,0.256,2.458,0.358,3.69c0.108,1.301,0.357,2.602,0.92,3.787
    c0.282,0.594,0.635,1.16,1.102,1.63c0.329,0.331,0.811,0.512,1.128,0.814c0,0,0.23,0.09,0.23,0.11l0.01,0.23
    c0.163,4.117,1.627,7.617,4.52,10.51l0.15,0.11V85c0,0.94-0.17,1.83-0.5,2.67c-1.24,3.156-4.162,5.064-6.952,6.656
    c-3.226,1.841-6.625,3.172-10.078,4.518c-2.177,0.848-4.375,1.628-6.57,2.427c-1.76,0.64-3.58,1.29-5.41,1.97
    c-8.94,3.32-11.69,8.57-12.44,12.4v0.04c-0.6,5.75-1.7,13.94-2.77,21.86c-0.09,0.7-0.19,1.41-0.28,2.11
    c-0.05,0.35-0.1,0.7-0.15,1.05c-0.696,5.287-1.421,10.571-2.02,15.871c-0.151,1.341-0.294,2.684-0.411,4.029
    c-0.03,0.39-0.06,0.76-0.09,1.12c-0.09,1.03-0.13,1.88-0.13,2.53c0,2.96-1.82,5.69-4.34,9.47c-2.45,3.67-5.5,8.23-8.44,15.1
    c-1.319,3.083-2.417,6.234-3.433,9.427c-0.402,1.265-0.814,2.526-1.267,3.773c-0.94,2.6-1.96,5.06-3.06,7.38
    c-0.38,0.8-0.77,1.57-1.17,2.33c-0.6,1.14-1.22,2.24-1.86,3.31c-2.36,3.87-5,7.21-7.92,9.99l-0.08,0.07l-0.1,0.02
    c-0.06,0.02-5.7,1.26-7.74,2.75c-0.83,0.61-1.86,1.54-2.86,2.44c-1.6,1.45-3.11,2.81-4.14,3.21c-0.609,0.236-3.169,1.684-1.72,2.357
    c1.547,0.719,3.967-0.776,5.298-1.436c0.778-0.386,1.544-0.791,2.262-1.282c0.866-0.592,0.963,1.006,0.971,1.484
    c0.048,3.149-1.355,5.697-3.104,8.191c-0.556,0.792-1.13,1.57-1.696,2.355c-1.27,1.76-2.91,4.03-3.53,5.2
    c-0.297,0.594,0.016,1.133,0.7,1.2c0.4,0.03,0.86-0.21,1.39-0.689c1.371-1.238,2.522-2.692,3.69-4.117
    c0.988-1.205,2.13-2.952,3.569-3.65c1.42-0.689,0.866,1.445,0.68,2.072c-0.826,2.786-2.585,5.107-4.06,7.566
    c-0.777,1.297-1.52,2.633-2.047,4.053c-0.292,0.787-0.628,2.064,0.761,1.65c0.954-0.285,1.598-1.127,2.106-1.933
    c1.471-2.334,2.82-4.74,4.331-7.05c0.743-1.136,1.506-2.433,2.556-3.322c0.163-0.138,0.542-0.479,0.774-0.479
    c1.385,0,0.209,3.096,0.02,3.683c-0.391,1.211-0.884,2.386-1.272,3.597c-0.406,1.266-0.963,2.478-1.394,3.732
    c-0.214,0.624-0.399,1.257-0.514,1.906c-0.096,0.541-0.478,1.791,0.38,1.892c1.771,0.207,2.379-2.125,2.751-3.405
    c0.604-2.078,1.348-4.113,2.106-6.141c0.33-0.88,0.631-1.78,1.003-2.644c0.229-0.531,0.634-1.354,1.319-1.391
    c0.18-0.01,0.359,0.06,0.49,0.19c0.646,0.644,0.459,1.98,0.444,2.802c-0.035,1.902-0.318,3.792-0.33,5.695
    c-0.004,0.593-0.086,4.279,1.353,3.235c0.702-0.51,0.939-1.511,1.002-2.323c0.138-1.783-0.018-3.572,0.371-5.332
    c0.383-1.734,0.858-3.456,1.428-5.137c0.326-0.96,0.686-1.909,1.094-2.837c0.58-1.32,1.226-2.614,1.734-3.965
    c0.953-2.535,0.868-5.082,1.345-7.702c0.248-1.359,0.486-2.639,1.333-3.763c0.8-1.061,1.642-2.092,2.465-3.135
    c8.614-10.917,17.629-21.727,25.297-33.342c2.858-4.33,4.18-9.624,5.733-14.585c1.568-5.009,2.742-10.13,3.777-15.273
    c0.517-2.568,0.917-5.166,1.466-7.726c0.716-4.002,1.396-8.014,1.844-12.057c0.234-2.113,0.443-4.25,0.373-6.377
    c0.488-0.013,0.562-0.092,0.743,0.292c0.202,0.428,0.024,1.417,0.04,1.902c0.041,1.275,0.104,2.55,0.183,3.824
    c0.159,2.573,0.378,5.141,0.582,7.709c0.753,9.51,1.393,19.111,3.773,28.384c1.583,6.167,3.03,12.329,2.992,18.74
    c-0.011,1.797-0.137,3.6-0.473,5.368c-0.06,0.31-0.12,0.61-0.19,0.9c-0.03,0.15-0.07,0.29-0.11,0.44c-0.04,0.13-0.07,0.27-0.11,0.4
    c-0.03,0.11-0.07,0.23-0.09,0.36c-0.19,0.69-0.4,1.59-0.63,2.67c-0.07,0.32-0.14,0.66-0.21,1.01c-0.03,0.17-0.07,0.35-0.1,0.52
    c-1.59,7.76-3.67,21.84-4.85,36.82c-0.542,6.919-0.958,14.875-0.93,22.754c0.002,0.837,0.007,1.671,0.02,2.496
    c0.02,0.86,0.03,1.72,0.06,2.57c0.06,1.858,0.15,3.688,0.26,5.47c0.04,0.59,0.08,1.18,0.13,1.771c0.05,0.578,0.1,1.158,0.15,1.729
    c0.06,0.68,0.13,1.34,0.21,1.99c0.07,0.619,0.14,1.24,0.22,1.84c0.16,1.24,0.35,2.45,0.56,3.62c0,0.021,0,0.05,0.01,0.069
    c0.1,0.561,0.21,1.119,0.32,1.66c0.22,1.079,0.46,2.131,0.73,3.131c0.14,0.539,0.29,1.068,0.45,1.578
    c0.15,0.512,0.31,1.012,0.49,1.5c0.26,0.75,0.51,1.49,0.75,2.23c5.01,15.229,5.83,27.92,4.42,33.479c-1.25,4.86-2.07,9.11-2.52,13
    c-0.95,8.262-0.26,16.83,2.07,25.48c0.43,1.59,0.92,3.25,1.49,5.02c0.18,0.541,0.36,1.08,0.54,1.631c0.1,0.271,0.19,0.551,0.29,0.83
    c0.1,0.279,0.2,0.561,0.3,0.84c0.21,0.609,0.43,1.221,0.62,1.841c0.41,1.21,0.8,2.42,1.18,3.63c0.37,1.21,0.73,2.41,1.06,3.65
    c0.34,1.22,0.66,2.43,0.97,3.67c0.47,1.83,0.89,3.68,1.27,5.539c0.77,3.74,1.4,7.529,1.89,11.41c0.12,0.949,0.24,1.899,0.34,2.84
    c0.13,1.181,0.25,2.359,0.35,3.511c0.09,0.909,0.16,1.819,0.23,2.71c0.15,2,0.26,3.79-0.01,5.56
    c-0.498,3.267-1.835,6.282-2.605,9.474c-0.538,2.227-1.408,4.25-2.331,6.335c-0.915,2.067-1.596,4.25-2.244,6.413
    c-0.12,0.39-0.23,0.778-0.34,1.14c-0.07,0.26-0.14,0.51-0.21,0.75c-0.279,0.947-0.477,1.916-0.771,2.858
    c-0.28,0.895-0.596,1.776-0.889,2.667c-0.24,0.729-0.453,1.466-0.62,2.215c-0.02,0.09-0.04,0.188-0.06,0.278
    c-0.11,0.58-0.15,1.07-0.07,1.41c0.3,1.312,0.36,2.86,0.19,4.602c-0.03,0.3,0.01,0.648,0.11,0.988c0.14,0.45,0.36,0.9,0.63,1.23
    c0.276,0.336,0.594,0.446,1.018,0.406c0.338-0.033,0.742-0.179,0.941-0.474c0.299-0.442,0.355-1.05,0.316-1.563
    c-0.043-0.573-0.313-0.907-0.696-1.3c-0.021-0.021-0.057-0.039-0.084-0.055c0.305,0.1,0.547,0.362,0.716,0.623
    c0.12,0.186,0.264,0.388,0.294,0.609c0.066-0.163,0.142-0.671-0.012-0.814c0.445,0.416,0.135,1.458,0.083,1.959
    c-0.099,0.945-0.8,1.584-1.726,1.719c0.01,0.22,0.03,0.528,0.09,0.869c0.03,0.141,0.06,0.279,0.1,0.439
    c0.05,0.14,0.1,0.29,0.15,0.44c0.1,0.21,0.21,0.408,0.34,0.608c0.05,0.05,0.1,0.11,0.15,0.16c0.329,0.326,0.861,0.643,1.348,0.583
    c0.379-0.047,0.627-0.53,0.794-0.832c0.191-0.346,0.293-0.729,0.378-1.115c0.113-0.511,0.011-1.063,0.007-1.583
    c-0.002-0.304-0.069-0.761,0.072-1.043c0.02-0.039,0.03-0.082,0.044-0.122c-0.18,0.509,0.025,1.161,0.142,1.662
    c-0.037-0.157,0.193-0.488,0.25-0.65c0.09-0.257,0.095-0.497,0.017-0.759c0.066,0.221,0.171,0.323,0.149,0.596
    c-0.021,0.257-0.104,0.505-0.143,0.759c-0.051,0.347-0.101,0.693-0.146,1.041c-0.063,0.494-0.073,0.961-0.272,1.433
    c-0.173,0.409-0.411,0.776-0.713,1.104c-0.03,0.02-0.05,0.05-0.07,0.068v0.03c-0.01,0.11,0,0.28,0.05,0.48
    c0.05,0.16,0.13,0.34,0.26,0.5c0.2,0.246,0.5,0.393,0.798,0.479c0.341,0.1,0.839,0.196,1.187,0.094
    c0.529-0.154,0.947-0.796,1.066-1.304c0.173-0.741,0.066-1.504,0.013-2.253c-0.04-0.556-0.136-1.336,0.276-1.787
    c0.144-0.155,0.395-0.165,0.57-0.06c0.04,0.02,0.06,0.029,0.07,0.04c-0.02-0.011-0.03-0.021-0.08-0.03
    c-0.04-0.01-0.11-0.04-0.22-0.05c-0.1,0-0.22,0.04-0.29,0.148c-0.306,0.479-0.11,1.048-0.11,1.57c0,0.01,0,0.021,0.01,0.03
    c0.01,0.068,0.03,0.14,0.04,0.22c0.03-0.149,0.07-0.3,0.13-0.46c0.146-0.389,0.366-0.865,0.808-0.974
    c-0.09,0.104-0.231,0.146-0.321,0.253c-0.572,0.676-0.46,1.606-0.424,2.415c0.031,0.688-0.055,1.472-0.438,2.064
    c-0.27,0.419-0.666,0.641-1.064,0.91c-0.03,0.021-0.05,0.03-0.08,0.03v0.03c0,0.671,0.406,1.296,1.086,1.436
    c0.484,0.1,1.381,0.302,1.786-0.083c0.812-0.77-0.093-2.054,0.047-2.963c0.088-0.571,0.396-1.112,0.624-1.636
    c0.101-0.231,0.198-0.465,0.284-0.702c0.095-0.264,0.021-0.519,0.073-0.782c0.094-0.475,0.558-0.787,0.958-0.989
    c0.344-0.174,0.839-0.379,1.232-0.261c0.433,0.13,0.303,0.631,0.187,0.929c-0.545,1.401-1.243,2.746-1.727,4.171
    c-0.227,0.68-0.647,1.501-0.364,2.227c0.294,0.752,1.457,0.871,2.144,0.965c1.478,0.202,2.527-1.298,3.199-2.389
    c0.244-0.396,0.465-0.818,0.643-1.249c0.656-1.595,0.226-3.412,0.971-4.986c0.349-0.738,0.876-1.377,1.208-2.125
    c0.626-1.411,0.514-3.05,0.335-4.543c-0.066-0.548-0.15-1.094-0.245-1.638c-0.57-3.28,0.25-12.24,0.79-17.28
    c0.09-0.86,0.21-1.76,0.34-2.69c0.258-1.962,0.653-3.923,0.665-5.908c0.009-1.589-0.178-4.118-1.814-4.95l-0.04-0.021
    c-0.605-0.311-1.44-1.121-1.44-1.858c0-10.271,1.78-30.881,4.06-42.051c0-0.011,0-0.041,0.01-0.09c0-0.029,0.01-0.061,0.01-0.101
    c0.02-0.24,0.07-0.69,0.12-1.32c0.02-0.21,0.04-0.438,0.06-0.7c0.15-1.92,0.34-5,0.44-8.84c0.01-0.41,0.02-0.83,0.03-1.26
    c0.15-8.17-0.19-19.33-2.3-30c-2.97-15.02-0.67-30.09,0.85-40.07c0.575-3.753,1.087-7.477,1.212-11.275
    c0.048-1.479,0.042-2.967,0.138-4.443c0.01-0.26,0.02-0.529,0.03-0.811c0.191-5.193,0.496-10.396,0.833-15.582
    c0.098-1.516,0.207-3.028,0.331-4.541c0.209-2.56,0.431-5.118,0.747-7.666c-0.071,0.568-2.869,1.412-3.374,1.564
    c-1.267,0.383-2.574,0.615-3.877,0.833c-1.892,0.315-3.812,0.37-5.724,0.234c-3.615-0.257-7.963-0.919-10.644-3.597
    c-1.364-1.363-2.39-3.172-2.782-5.066c-0.153-0.739-0.219-1.487-0.219-2.24c0-0.319,0.01-0.489,0.01-0.49
    c-0.039,0.679,0.108,1.358,0.23,2.021c0.116,0.629,0.292,1.245,0.53,1.838c0.3,0.75,0.72,1.561,1.34,2.32
    c2.491,3.057,6.652,4.15,10.431,4.396c3.172,0.207,6.607,0.237,9.696-0.598c1.613-0.437,3.062-1.209,4.49-2.06
    c0.772-0.459,1.447-1.004,2.034-1.74c0.62-0.76,1.04-1.569,1.34-2.319c0.312-0.779,0.548-1.593,0.654-2.426
    c0.092-0.724,0.021-1.439-0.025-2.163c-0.029-0.46-0.059-0.92-0.079-1.381c-0.02-0.47-0.05-0.99-0.07-1.53
    c-0.106-2.855-0.045-5.712-0.135-8.567c-0.074-2.363-1.047-4.378-3.032-5.7c1.644,0.509,2.836,2.046,3.417,3.592
    c0.505-1.608,1.615-3.319,3.443-3.6c-0.959,0.76-1.777,1.792-2.363,2.863c-1,1.829-0.719,3.945-0.719,5.952
    c0,0.64-0.01,1.28-0.01,1.9c-0.01,0.63-0.01,1.24-0.03,1.84c-0.01,0.59-0.02,1.17-0.04,1.71c-0.01,0.55-0.04,1.07-0.06,1.54
    c-0.024,0.736-0.059,1.472-0.106,2.208c-0.047,0.729,0.046,1.382,0.194,2.098c0.299,1.441,0.896,2.838,1.832,3.985
    c0.62,0.77,1.42,1.488,2.381,2.08c0.479,0.3,0.989,0.568,1.539,0.81c4.11,1.796,8.965,1.956,13.358,1.416
    c3.771-0.463,7.84-1.786,9.957-5.183c1.006-1.613,1.313-3.446,1.524-5.304c-0.334,2.951-0.578,5.448-2.841,7.65
    c-0.409,0.38-0.85,0.75-1.35,1.07c-0.49,0.33-1.021,0.63-1.591,0.898c-4.168,1.975-9.252,2.285-13.758,1.588
    c-1.898-0.294-3.814-0.775-5.563-1.588c-0.561-0.26-1.09-0.568-1.58-0.898c-0.17-0.11-0.33-0.221-0.51-0.36
    c0.308,2.458,0.531,4.926,0.73,7.396c0.227,2.809,0.41,5.619,0.574,8.432c0.161,2.773,0.303,5.549,0.426,8.324
    c0.105,2.359,0.202,4.722,0.286,7.084c0.099,2.712,0.163,5.425,0.488,8.121c0.215,1.787,0.492,3.564,0.765,5.345
    c1.521,9.97,3.819,25.05,0.859,40.06c-3.9,19.721-1.771,41.08-1.641,42.29c2.271,11.19,4.041,31.722,4.041,41.972
    c0,0.818-1.19,1.72-1.432,1.89l-0.05,0.03c-2,1.04-1.88,4.729-1.431,8.51c0.061,0.51,0.131,1.02,0.189,1.53
    c0,0.01,0.012,0.02,0.012,0.04c0.02,0.25,0.06,0.5,0.09,0.738c0.119,0.95,0.238,1.841,0.33,2.69c0.539,5.05,1.358,14,0.799,17.29
    c-0.359,2.06-0.459,3.59-0.299,4.76c0.028,0.21,0.068,0.42,0.108,0.62c0.03,0.11,0.062,0.22,0.091,0.32
    c0.029,0.1,0.061,0.188,0.1,0.29c0.031,0.079,0.061,0.158,0.091,0.238c0.09,0.19,0.19,0.37,0.3,0.562
    c0.109,0.18,0.21,0.35,0.33,0.529c0.07,0.109,0.141,0.221,0.2,0.341c0.11,0.18,0.22,0.358,0.319,0.56
    c0.09,0.18,0.181,0.37,0.25,0.57c0.271,0.729,0.311,1.479,0.351,2.21c0.053,1.674,0.657,2.962,1.619,4.311
    c0.608,0.854,1.299,1.658,2.432,1.644c0.736-0.01,2.425-0.221,2.399-1.283c-0.032-1.238-0.454-2.431-0.949-3.553
    c-0.249-0.563-0.52-1.116-0.784-1.671c-0.2-0.422-0.659-1.098-0.467-1.576l0.08-0.15l0.17-0.06c0.601-0.21,1.616,0.363,1.983,0.812
    c0.205,0.25,0.151,0.481,0.178,0.778c0.085,0.992,0.857,1.78,1.009,2.76c0.04,0.26-0.021,0.58-0.11,0.99
    c-0.119,0.649-0.289,1.47,0.051,1.87c0.011,0.01,0.021,0.02,0.029,0.02c0.04,0.051,0.102,0.102,0.16,0.13
    c0.061,0.04,0.12,0.07,0.189,0.091c0.189,0.061,0.431,0.091,0.721,0.08c0.75-0.011,1.29-0.21,1.58-0.601
    c0.25-0.31,0.3-0.689,0.3-0.979c-0.021-0.011-0.05-0.011-0.069-0.021c-0.836-0.396-1.363-1.123-1.498-2.041
    c-0.172-1.161,0.506-2.766-0.674-3.571c0.063,0.027,0.127,0.063,0.184,0.104c0.275,0.213,0.408,0.526,0.539,0.839
    c0.029,0.07,0.05,0.149,0.08,0.229c0.028,0.069,0.039,0.141,0.06,0.21c-0.038-0.137,0.076-0.462,0.09-0.604
    c0.048-0.494,0.106-1.59-0.705-1.293c0.798-0.292,0.886,0.637,0.91,1.194c0.049,1.063-0.319,2.136,0.104,3.178
    c0.199,0.493,0.537,0.798,1.002,1.035l0.31-0.011c0.761-0.011,1.31-0.221,1.62-0.591c0.191-0.225,0.373-0.639,0.295-0.94
    c-0.076-0.298-0.418-0.526-0.563-0.802c-0.338-0.646-0.459-1.356-0.539-2.073c-0.045-0.406-0.082-0.814-0.143-1.22
    c-0.04-0.27-0.24-0.896,0.146-1.021c-0.524,0.213,0.263,1.209,0.183,1.537c0.011-0.04,0.011-0.07,0.021-0.11
    c0.021-0.16,0.061-0.319,0.069-0.46c0.021-0.148,0.04-0.29,0.062-0.42c0.01-0.13,0.01-0.25,0.02-0.35c-0.01-0.11,0-0.2-0.02-0.271
    c0-0.04-0.012-0.069-0.021-0.1c-0.01-0.021-0.01-0.04,0-0.04c0.01,0.02,0.021,0.03,0.03,0.05c0,0.021,0.01,0.05,0.021,0.08
    c0.273,0.852,0.01,1.752,0.123,2.621c0.096,0.742,0.438,1.445,1.026,1.919c0,0,0.04,0.04,0.05,0.04
    c0.59-0.021,1.051-0.21,1.41-0.601c0.607-0.646,0.83-1.671,0.813-2.533c-0.863-0.138-1.526-0.657-1.695-1.545
    c-0.051-0.266-0.018-0.53-0.051-0.797c-0.047-0.394-0.187-1.024,0.135-1.346c0.01-0.02,0.02-0.029,0.029-0.029
    c-0.01,0.011-0.021,0.029-0.021,0.039c-0.021,0.021-0.03,0.04-0.05,0.08c0,0.012-0.01,0.021-0.01,0.03
    c-0.012,0.021-0.021,0.03-0.021,0.05c-0.01,0.07-0.02,0.15-0.029,0.24c0,0.09,0.01,0.19,0.029,0.28c0,0.01,0,0.02,0.01,0.028
    c0,0.062,0.012,0.12,0.03,0.19c0-0.01,0.011-0.02,0.011-0.03c0.039-0.16,0.09-0.3,0.149-0.42c0.069-0.14,0.149-0.26,0.229-0.358
    c0.08-0.102,0.159-0.19,0.239-0.25c0.08-0.07,0.16-0.12,0.22-0.16c0.08-0.05,0.15-0.08,0.182-0.09c-0.03,0.01-0.09,0.06-0.16,0.108
    c-0.785,0.557-0.917,2.186-0.262,2.867c0.176,0.183,0.496,0.371,0.75,0.41c1.484,0.229,1.865-1.541,1.854-2.635
    c-0.016-1.551-0.141-3.067,0.228-4.594c0.135-0.561-0.023-1.203-0.144-1.754c-0.426-1.967-1.296-3.801-1.758-5.756
    c-0.181-0.76-0.59-2.27-1.11-3.979c-0.529-1.7-1.148-3.602-1.75-5.131c-0.08-0.211-0.158-0.409-0.238-0.601
    c-0.485-1.215-1.209-2.324-1.639-3.562c-0.38-1.098-0.634-2.229-0.912-3.354c-0.259-1.038-0.504-2.088-0.899-3.084
    c-0.63-1.565-1.037-3.224-1.397-4.869c-0.393-1.791-0.514-3.533-0.421-5.363c0.028-0.551,0.067-1.099,0.108-1.646
    c0.22-2.939,0.529-6,0.92-9.07c1.311-10.318,3.6-20.039,7-29.71c0.02-0.05,1.89-5.47,2.64-8.25c2.32-8.64,3.011-17.21,2.062-25.47
    c-0.45-3.891-1.271-8.15-2.521-13.01c-1.479-5.82-0.5-19.471,5.17-35.69c0.78-2.239,1.41-4.739,1.92-7.438
    c0.07-0.392,0.141-0.78,0.211-1.182c0.08-0.46,0.149-0.92,0.221-1.39c0.109-0.761,0.22-1.53,0.318-2.32c0-0.01,0.012-0.021,0-0.028
    c0.102-0.78,0.19-1.57,0.271-2.381v-0.029c0.08-0.801,0.148-1.62,0.22-2.471c0.062-0.83,0.12-1.671,0.17-2.521
    c0.04-0.681,0.08-1.36,0.11-2.04c0.143-3.199,0.189-6.398,0.173-9.6c-0.015-2.297-0.054-4.595-0.136-6.889
    c-0.036-1.005-0.127-2.018-0.127-3.021c-0.021-0.471-0.041-0.932-0.062-1.4c-0.159-3.29-0.37-6.47-0.608-9.46
    c-0.051-0.58-0.092-1.16-0.15-1.74c-0.91-10.92-2.279-21.26-3.561-28.87v-0.03c-0.069-0.37-0.131-0.74-0.189-1.1
    c-0.13-0.74-0.25-1.45-0.37-2.13c-0.29-1.58-0.56-2.98-0.81-4.18c-0.062-0.28-0.11-0.54-0.17-0.79c-0.041-0.18-0.08-0.37-0.12-0.54
    c-0.11-0.48-0.21-0.91-0.312-1.29c-0.01-0.06-0.029-0.12-0.05-0.18c-0.05-0.19-0.101-0.36-0.149-0.53
    c-1.035-3.652-1.015-7.56-0.705-11.313c0.272-3.305,0.834-6.592,1.582-9.822c0.936-4.027,1.918-8.033,2.604-12.113
    c0.646-3.833,1.086-7.696,1.495-11.56c0.555-5.232,1.045-10.468,1.355-15.72c0.143-2.397,0.242-4.797,0.355-7.196
    c0.004-0.079,0.009-0.158,0.012-0.237v-0.03c0,0,0.74,0.03,0.74,0.05c0.037,4.521,0.614,9.008,1.357,13.471
    c0.219,1.31,0.449,2.617,0.683,3.923c0.44,2.477,0.917,4.947,1.399,7.416c0.279,1.43,0.57,2.81,0.841,4.11
    c0.21,0.99,0.409,1.93,0.59,2.81c0.622,3.01,1.247,6.078,2.31,8.967c0.829,2.255,1.479,4.557,2.19,6.85
    c1.431,4.608,3.681,8.396,6.465,12.278c3.11,4.337,6.343,8.59,9.603,12.816c1.927,2.499,3.854,4.999,5.804,7.479
    c0.33,0.42,0.649,0.84,0.979,1.25c2.479,3.17,4.689,5.97,6.279,7.99c0.43,0.55,0.82,1.05,1.17,1.48c0.13,0.17,0.26,0.34,0.391,0.491
    c1.852,2.363,2.443,4.928,2.551,7.909c0.039,1.33,0.34,2.63,0.71,3.81c0.972,2.956,2.532,5.679,3.399,8.677
    c0.572,1.982,1.27,3.962,1.461,6.028c0.15,1.639-0.279,3.49,0.488,5.024c0.12,0.24,0.25,0.44,0.42,0.61
    c0.17,0.16,0.37,0.279,0.61,0.34c0.22,0.06,0.33,0,0.399-0.061c0.832-0.715,0.477-3.08,0.448-4.021
    c-0.046-1.572-0.172-3.142-0.223-4.713c-0.028-0.865-0.29-2.45,0.394-3.136c0.129-0.139,0.309-0.209,0.497-0.19
    c1.109,0.113,1.666,2.437,1.999,3.265c0.438,1.087,0.854,2.188,1.249,3.292c0.384,1.066,0.765,2.133,1.167,3.192
    c0.516,1.354,0.775,4.062,2.758,3.83c0.262-0.03,0.36-0.14,0.41-0.24c0.487-0.981-0.207-2.657-0.527-3.608
    c-0.608-1.808-1.355-3.564-1.973-5.371c-1.109-3.189-1.58-4.759-1.17-5.35c0.12-0.15,0.29-0.24,0.48-0.24
    c0.06,0,0.119,0.01,0.18,0.04c0.061,0.02,0.12,0.05,0.18,0.08c0.965,0.491,1.69,1.785,2.26,2.641
    c1.412,2.125,2.773,4.25,3.986,6.497c0.805,1.488,2.059,3.754,4.034,3.594c0.119-0.01,0.149-0.059,0.179-0.109
    c0.314-0.544-0.336-1.849-0.55-2.348c-0.526-1.225-1.249-2.346-1.919-3.492c-1.502-2.572-3.24-5.014-4.07-7.911
    c-0.158-0.59-0.22-1.07-0.109-1.35c0.08-0.189,0.22-0.33,0.41-0.37c0.854-0.181,1.935,1.328,2.453,1.892
    c0.942,1.024,1.844,2.088,2.746,3.148c0.963,1.132,3.197,4.954,4.91,2.989c0-0.039-0.02-0.09-0.029-0.149
    c-0.011-0.06-0.039-0.13-0.08-0.2c-0.069-0.14-0.149-0.3-0.26-0.49c-2.556-4.398-6.789-7.931-7.908-13.078
    c-0.185-0.85-0.78-3.163,0.037-3.892c0.2-0.15,0.44-0.16,0.65-0.02c0.955,0.653,7.521,4.481,7.938,2.156
    C257.364,235.271,257.368,235.228,257.368,235.186z M134.841,424.106c0.65-0.053,1.311,0.048,1.918,0.322
    c0.11,0.04,0.19,0.11,0.261,0.151c0.083,0.05,0.167,0.1,0.248,0.153c-1.011-0.261-2.134-0.292-3.146-0.013
    c-0.821,0.229-1.674,0.503-2.354,1.033c0.007-0.041,0.046-0.085,0.081-0.126C132.595,424.749,133.703,424.196,134.841,424.106z
      M125.85,330.29c0.22-0.12,0.54-0.28,0.95-0.45c1.356-0.563,2.928-0.934,4.402-0.813c0.423,0.035,0.86,0.123,1.262,0.263
    c0.577,0.2,1.046,0.485,1.496,0.89c0.1,0.09,0.15,0.182,0.19,0.23c0.03,0.04,0.05,0.061,0.06,0.08c-0.01-0.01-0.04-0.03-0.09-0.051
    c-0.06-0.029-0.14-0.09-0.25-0.149c-1.188-0.644-2.754-0.603-4.06-0.467c-1.311,0.136-2.627,0.349-3.92,0.606
    c-0.19,0.021-0.31,0.051-0.36,0.051C125.58,330.439,125.69,330.38,125.85,330.29z M166.484,425.564
    c-0.229-0.131-0.573-0.254-0.697-0.314c-0.404-0.198-0.818-0.379-1.247-0.518c-1.006-0.326-2.118-0.428-3.149-0.162
    c-0.158,0.028-0.259,0.05-0.261,0.05c0.373-0.076,0.771-0.451,1.17-0.561c0.525-0.144,1.048-0.146,1.579-0.034
    c1.085,0.228,2.127,0.804,2.807,1.695C166.629,425.654,166.563,425.607,166.484,425.564z M171.74,330.43
    c-0.24-0.05-0.59-0.109-1.01-0.18c-1.801-0.302-3.627-0.684-5.459-0.43c-0.52,0.072-1.049,0.218-1.513,0.47
    c-0.108,0.06-0.188,0.12-0.25,0.149c-0.04,0.021-0.069,0.041-0.079,0.051c0.01-0.021,0.021-0.04,0.051-0.08
    c0.049-0.051,0.1-0.141,0.188-0.23c1.194-1.193,3.024-1.3,4.599-1.05c0.448,0.071,0.899,0.17,1.336,0.295
    c0.754,0.216,1.498,0.489,2.187,0.865c0.22,0.12,0.351,0.21,0.351,0.21S172,330.471,171.74,330.43z"/>
    </svg>