<!--  *ngIf="!isFront && isWoman" 
style="padding-top: 4.50pt; padding-bottom: 4.50pt;"
-->

<svg version="1.1" xmlns="http://www.w3.org/2000/svg" xmlns:xlink="http://www.w3.org/1999/xlink" x="0px" y="0px" 
       viewBox="54.713 24.975 190.574 450.063"
      enable-background="new 54.713 24.975 190.574 450.063" xml:space="preserve">
    <path fill="#F1DBCB" d="M123.407,464.329c-0.144-0.02-0.339-0.172-0.521-0.41c-0.486-0.633-0.773-1.646-0.671-2.354
    c0.261-1.798,0.267-3.396,0.017-4.763c-0.191-1.039,0.723-3.404,1.459-5.309c0.351-0.902,0.682-1.759,0.854-2.367
    c0.571-2.041,3.027-9.195,4.546-11.583c0.957-1.507,1.489-3.347,2.002-5.128c0.351-1.216,0.683-2.367,1.132-3.361
    c1.131-2.497,2.002-6.29,2.035-6.446l0.008-0.053c0.547-6.29-0.761-13.364-3.996-21.62c-11.994-30.602-8.356-50.028-6.4-60.47
    l0.195-1.055c1.793-9.681,2.502-17.923,0.509-29.088c-0.542-3.04-1.716-6.541-3.202-10.974
    c-3.741-11.166-9.396-28.039-11.398-57.063c-1.768-25.648,3.74-35.428,8.598-44.057c2.805-4.981,5.453-9.685,6.389-16.831
    c1.723-13.19-1.585-28.988-3.704-37.214c-0.042-0.203-4.17-20.609-2.024-26.426l-0.691-0.253c-1.354,3.668-0.375,12.54,0.633,19.093
    c0.236,1.728-1.482,4.525-1.501,4.554l-0.032,0.049l-0.015,0.059c-1.457,6.057-4.095,14.617-6.44,19.09
    c-1.193,2.277-1.522,4.637-1.873,7.137c-0.689,4.928-1.47,10.515-8.773,18.192c-2.182,2.173-4.962,6.099-7.605,10.167
    c-2.642,4.066-5.147,8.273-6.774,11.004c-0.88,1.479-1.518,2.549-1.729,2.844c-0.194,0.267-1.136,2.724-1.256,6.16
    c-0.126,3.469-1.936,6.82-2.532,7.92c-0.839,1.552-3.141,9.821-3.018,11.278c0.088,1.035,0.248,4.446-1.413,4.868
    c-0.221,0.056-0.327,0.002-0.393-0.053c-0.587-0.481-0.462-2.785-0.378-4.308c0.031-0.588,0.063-1.139,0.063-1.598
    c0-0.558,0.03-1.207,0.057-1.838c0.095-2.123,0.129-3.447-0.351-3.926c-0.138-0.135-0.309-0.201-0.493-0.193
    c-0.697,0.031-1.426,1.555-3.543,7.408c-0.352,0.971-0.653,1.809-0.844,2.268c-0.17,0.416-0.309,0.851-0.442,1.27
    c-0.53,1.652-0.893,2.581-2.225,2.408c-0.253-0.03-0.346-0.141-0.402-0.231c-0.452-0.762,0.446-3.1,1.042-4.646
    c0.29-0.754,0.54-1.403,0.673-1.901c0.146-0.549,0.436-1.39,0.746-2.281c1.086-3.138,1.553-4.682,1.143-5.258
    c-0.113-0.155-0.28-0.242-0.476-0.242c-0.798,0-2.292,2.022-5.925,8.009c-0.261,0.43-0.474,0.779-0.621,1.014
    c-0.129,0.211-0.262,0.434-0.4,0.664c-0.868,1.466-1.855,3.131-3.508,2.943c-0.13-0.015-0.152-0.063-0.169-0.099
    c-0.14-0.299-0.251-1.793,4.183-8.533l0.032-0.051c0.639-0.972,2.742-5.17,2.315-6.264c-0.073-0.191-0.215-0.321-0.402-0.368
    c-0.635-0.159-1.772,1.033-5.096,4.931c-1.065,1.25-2.071,2.429-2.562,2.877c-0.513,0.472-0.964,0.696-1.352,0.669
    c-0.312-0.019-0.599-0.197-0.925-0.578c0.068-0.664,2.169-3.564,3.709-5.697c1.44-1.992,2.802-3.874,3.403-5.01
    c1.254-2.365,1.668-6.185,0.983-6.799c-0.179-0.158-0.426-0.168-0.63-0.029c-1.119,0.768-5.814,3.391-7.399,2.662
    c-0.265-0.119-0.577-0.314-0.569-0.557c0.014-0.483,1.038-1.277,2.235-1.739c1.005-0.387,2.492-1.732,4.067-3.155
    c0.981-0.885,1.995-1.8,2.814-2.402c1.899-1.386,6.97-2.549,7.549-2.679l0.314,0.026l0.122-0.127
    c2.591-2.709,5.241-10.41,8.048-18.563c3.238-9.409,6.908-20.071,10.709-23.057c7.163-5.629,8.236-15.415,9.487-33.554l0.027,0.002
    c0.751-10.959,2.382-18.209,5.289-23.501c3.57-6.504,9.208-10.002,17.224-10.699l0.032-0.002c9.223-0.802,13.59-5.714,15.631-9.696
    c2.205-4.301,2.232-8.352,2.232-8.521l-0.019-0.214l-0.067-3.717l-0.152-0.108c-6.389-4.498-6.971-14.812-6.975-14.915l-0.064-1.259
    l-0.623,1.094c-0.093,0.162-0.184,0.194-0.242,0.204c-0.216,0.037-0.537-0.152-0.689-0.272c-2.639-3.848-2.063-7.763-1.366-9.061
    c0.214-0.402,0.386-0.483,0.417-0.483l0.063,0.002c0.123,0.026,0.274,0.22,0.365,0.338c0.125,0.162,0.313,0.407,0.61,0.297
    c0.378-0.137,0.378-0.137,0.209-4.382c-0.058-1.423-0.134-3.317-0.222-5.83c-0.344-9.739,12.563-13.952,14.035-14.401
    c2.113-0.643,4.418-0.641,7.022,0c1.472,0.449,14.38,4.661,14.036,14.401c-0.09,2.513-0.164,4.407-0.221,5.83
    c-0.17,4.245-0.17,4.245,0.207,4.382c0.295,0.11,0.484-0.135,0.609-0.297c0.098-0.123,0.253-0.326,0.378-0.341
    c0.029,0.005,0.203,0.081,0.419,0.481c0.697,1.298,1.274,5.213-1.365,9.063c-0.151,0.12-0.472,0.309-0.688,0.272
    c-0.058-0.01-0.149-0.042-0.243-0.204l-0.625-1.094l-0.063,1.259c-0.004,0.103-0.586,10.418-6.978,14.915l-0.149,0.108l-0.068,3.918
    c0,0.171,0.023,4.22,2.232,8.523c2.041,3.98,6.406,8.894,15.631,9.694c8.021,0.699,13.66,4.203,17.224,10.714
    c2.899,5.292,4.528,12.544,5.278,23.514c1.277,18.617,2.279,28.595,9.539,34.299c3.802,2.986,7.472,13.651,10.711,23.06
    c2.807,8.152,5.455,15.854,8.047,18.563l0.123,0.127l0.313-0.027c0.577,0.128,5.651,1.293,7.551,2.68
    c0.818,0.601,1.834,1.515,2.813,2.402c1.575,1.422,3.062,2.767,4.067,3.152c1.197,0.461,2.22,1.258,2.232,1.739
    c0.01,0.244-0.304,0.439-0.566,0.56c-1.586,0.727-6.281-1.894-7.399-2.664c-0.204-0.141-0.452-0.129-0.638,0.037
    c-0.688,0.611-0.271,4.432,0.979,6.799c0.604,1.136,1.965,3.018,3.405,5.01c1.541,2.129,3.644,5.031,3.71,5.697
    c-0.326,0.377-0.613,0.557-0.925,0.578c-0.386,0.025-0.843-0.198-1.354-0.67c-0.492-0.449-1.496-1.627-2.56-2.875
    c-3.328-3.901-4.464-5.091-5.099-4.933c-0.188,0.047-0.33,0.177-0.402,0.365c-0.428,1.095,1.675,5.293,2.316,6.267l0.029,0.051
    c4.436,6.74,4.323,8.236,4.186,8.533c-0.021,0.035-0.039,0.084-0.17,0.098c-1.658,0.189-2.643-1.477-3.508-2.941
    c-0.14-0.229-0.271-0.457-0.4-0.668c-0.146-0.232-0.357-0.584-0.62-1.014c-3.634-5.986-5.128-8.006-5.929-8.006
    c-0.193,0-0.36,0.087-0.476,0.244c-0.407,0.576,0.06,2.117,1.146,5.258c0.309,0.89,0.6,1.73,0.746,2.279
    c0.133,0.5,0.383,1.149,0.672,1.899c0.598,1.548,1.494,3.884,1.041,4.647c-0.053,0.09-0.146,0.197-0.399,0.229
    c-1.338,0.175-1.696-0.753-2.226-2.409c-0.131-0.42-0.272-0.852-0.444-1.266c-0.188-0.459-0.49-1.299-0.841-2.268
    c-2.117-5.854-2.848-7.377-3.543-7.412c-0.191-0.008-0.356,0.058-0.493,0.193c-0.481,0.482-0.447,1.807-0.351,3.928
    c0.024,0.629,0.056,1.28,0.056,1.838c0,0.459,0.032,1.012,0.063,1.596c0.082,1.525,0.209,3.828-0.377,4.311
    c-0.068,0.055-0.172,0.108-0.396,0.051c-1.661-0.424-1.502-3.832-1.413-4.867c0.122-1.459-2.182-9.723-3.02-11.277
    c-0.596-1.102-2.406-4.45-2.531-7.922c-0.123-3.434-1.063-5.893-1.258-6.161c-0.211-0.294-0.848-1.363-1.729-2.841
    c-3.253-5.466-10.025-16.84-14.379-21.173c-7.294-7.667-8.09-13.54-8.791-18.722c-0.354-2.61-0.688-5.076-1.882-7.355
    c-2.347-4.473-4.981-13.033-6.441-19.093l-0.014-0.056l-0.032-0.052c-0.018-0.027-1.658-2.689-1.516-4.426
    c1.012-6.558,2.013-15.526,0.647-19.221l-0.688,0.255c2.146,5.813-1.979,26.222-2.021,26.409
    c-2.123,8.244-5.433,24.039-3.707,37.229c0.937,7.146,3.587,11.853,6.39,16.833c4.858,8.629,10.365,18.407,8.596,44.055
    c-2.002,29.027-7.657,45.898-11.398,57.064c-1.481,4.432-2.658,7.932-3.201,10.973c-1.994,11.165-1.281,19.408,0.51,29.089
    l0.197,1.055c1.955,10.439,5.596,29.867-6.399,60.467l-0.213,0.545l0,0c-3.085,8.023-4.159,14.912-3.624,21.065l0.007,0.052
    c0.037,0.157,0.903,3.95,2.037,6.446c0.446,0.994,0.78,2.146,1.133,3.361c0.515,1.781,1.043,3.621,2.002,5.128
    c1.521,2.392,3.976,9.542,4.549,11.583c0.171,0.608,0.5,1.462,0.851,2.367c0.736,1.903,1.654,4.27,1.464,5.309
    c-0.253,1.365-0.248,2.968,0.015,4.763c0.102,0.708-0.188,1.721-0.67,2.354c-0.182,0.238-0.377,0.395-0.521,0.41l-0.022,0.002
    l-0.003-0.01l-0.273,0.76c0.01,0.606-0.058,1.872-0.738,2.669c-0.354,0.411-0.818,0.636-1.418,0.688
    c-0.021-0.017-0.047-0.031-0.073-0.054l-0.47,0.56c0.035,0.026,0.063,0.057,0.092,0.081c0.017,0.219,0.012,0.667-0.271,1.046
    c-0.307,0.407-0.865,0.644-1.66,0.696l-0.289,0.021l0.004,0.763c0.013,0.276-0.021,0.688-0.267,1.03
    c-0.294,0.412-0.841,0.645-1.62,0.699c-0.555,0.037-0.945-0.061-1.156-0.287c-0.371-0.407-0.246-1.257-0.143-1.943
    c0.064-0.426,0.115-0.762,0.063-1.023c-0.082-0.396-0.334-0.898-0.603-1.428c-0.228-0.445-0.608-1.197-0.558-1.397
    c0.048-0.164,0.068-0.49-0.299-0.845c-0.457-0.438-1.488-0.84-2-0.67l-0.172,0.066l-0.063,0.154
    c-0.079,0.188-0.144,0.341,1.065,2.774l0.218,0.439c0.569,1.166,1.217,2.488,1.3,3.702c0.063,0.898-1.087,1.229-2.219,1.438
    c-1.09,0.198-1.758-0.297-2.486-1.157c-0.904-1.063-1.855-2.351-2.098-3.826c-0.051-0.32-0.081-0.656-0.113-0.98
    c-0.073-0.746-0.148-1.52-0.459-2.263c-0.23-0.556-0.563-1.035-0.884-1.501c-0.253-0.365-0.491-0.712-0.681-1.084
    c-0.681-1.33-0.795-3.257-0.389-6.443c0.436-3.418-0.829-12.636-1.617-17.826c-0.137-0.882-0.302-1.794-0.474-2.761
    c-0.825-4.615-1.761-9.846,0.688-11.261l0.03-0.021c0.253-0.187,1.515-1.146,1.472-2.021l-0.012-0.104
    c-0.003-11.403-2.119-32.524-4.361-43.478c-2.326-11.383,0.008-29.184,2.41-38.188c1.482-5.567-0.51-29.515-2.267-50.644
    c-1.278-15.384-2.485-29.91-2.169-35.027c0.386-6.176,0.707-10.92,0.925-14.022l0.226-0.59c-0.059-0.071-0.109-0.143-0.168-0.215
    c0-0.01,0-0.021,0.004-0.031l-0.031-0.002c-0.068-0.088-0.139-0.18-0.206-0.264c-0.272-0.326-0.483-0.666-0.699-0.979
    c-0.442-0.618-0.746-1.207-1.026-1.676c-0.266-0.479-0.438-0.873-0.574-1.133c-0.079-0.162-0.133-0.273-0.166-0.336
    c0.037-0.516,0.105-1.568,0.16-2.939c0.018-0.494,0.045-1.029,0.057-1.592c0.013-0.565,0.027-1.162,0.044-1.777
    c0.007-0.615,0.017-1.254,0.026-1.9c0-0.646,0.004-1.304,0.006-1.961c0.005-0.658-0.002-1.316-0.01-1.963
    c-0.006-0.321-0.008-0.643-0.01-0.962c-0.006-0.31-0.006-0.64-0.043-0.962c-0.007-0.09-0.021-0.179-0.033-0.268
    c0.023-0.069,0.045-0.14,0.065-0.215c0.054-0.158,0.088-0.332,0.164-0.506c0.069-0.174,0.123-0.361,0.206-0.545
    c0.089-0.182,0.16-0.378,0.258-0.563c0.107-0.181,0.188-0.379,0.311-0.554l0.166-0.272c0.062-0.088,0.123-0.174,0.184-0.26
    c0.118-0.174,0.253-0.332,0.376-0.493c0.13-0.155,0.258-0.301,0.385-0.439c0.132-0.135,0.248-0.271,0.368-0.383
    c0.239-0.234,0.445-0.419,0.6-0.552c0.153-0.131,0.242-0.203,0.242-0.203s-0.117,0.013-0.313,0.076
    c-0.098,0.031-0.217,0.07-0.346,0.127c-0.131,0.059-0.283,0.123-0.435,0.213c-0.155,0.084-0.313,0.19-0.481,0.307
    c-0.162,0.121-0.33,0.256-0.492,0.408c-0.157,0.156-0.326,0.319-0.467,0.508c-0.074,0.092-0.152,0.181-0.221,0.279l-0.191,0.302
    c-0.137,0.201-0.227,0.425-0.33,0.636c-0.055,0.105-0.086,0.219-0.123,0.326c-0.036,0.11-0.07,0.219-0.105,0.324
    c-0.031,0.106-0.053,0.208-0.07,0.311c-0.041-0.125-0.084-0.25-0.133-0.37c-0.219-0.551-0.496-1.042-0.805-1.447
    c-0.621-0.819-1.314-1.325-1.82-1.614c-0.25-0.148-0.462-0.243-0.604-0.303c-0.128-0.051-0.203-0.075-0.222-0.08
    c0.035,0.018,0.317,0.179,0.731,0.518c0.438,0.361,1.033,0.927,1.531,1.739c0.239,0.409,0.474,0.868,0.628,1.384
    c0.158,0.515,0.27,1.074,0.297,1.661c0.023,0.574,0.01,1.233,0.01,1.874c0,0.649-0.003,1.307,0.008,1.963
    c0.006,0.658,0.014,1.315,0.021,1.961c0.016,0.647,0.029,1.283,0.044,1.9c0.021,0.617,0.04,1.21,0.06,1.777
    c0.017,0.564,0.047,1.096,0.068,1.59c0.063,1.313,0.135,2.332,0.18,2.869c0,0,0,0.004-0.002,0.008
    c-0.018,0.029-0.087,0.168-0.199,0.398c-0.135,0.26-0.307,0.653-0.571,1.133c-0.282,0.469-0.587,1.058-1.028,1.676
    c-0.213,0.313-0.427,0.652-0.701,0.979c-0.066,0.084-0.135,0.176-0.203,0.262l-0.026,0.002c0,0.01,0,0.02,0.002,0.029
    c-0.06,0.073-0.115,0.146-0.173,0.219l0.229,0.586c0.214,3.074,0.534,7.803,0.923,14.014c0.321,5.118-0.889,19.648-2.168,35.027
    c-1.758,21.131-3.75,45.078-2.266,50.645c2.4,9.006,4.734,26.807,2.409,38.186c-2.365,11.557-4.198,32.857-4.2,43.493l-0.01,0.117
    c-0.043,0.855,1.217,1.815,1.47,2.003l0.034,0.021c2.447,1.415,1.512,6.646,0.688,11.261c-0.173,0.967-0.334,1.879-0.47,2.761
    c-0.792,5.188-2.056,14.406-1.619,17.826c0.405,3.188,0.29,5.113-0.388,6.443c-0.191,0.372-0.43,0.719-0.68,1.082
    c-0.322,0.468-0.655,0.947-0.885,1.503c-0.308,0.743-0.384,1.517-0.457,2.263c-0.031,0.324-0.066,0.66-0.119,0.98
    c-0.237,1.477-1.191,2.765-2.092,3.826c-0.729,0.862-1.4,1.355-2.49,1.157c-1.131-0.207-2.279-0.537-2.219-1.438
    c0.084-1.217,0.732-2.536,1.305-3.704l0.216-0.441c1.207-2.434,1.146-2.584,1.065-2.771l-0.078-0.168l-0.158-0.058
    c-0.508-0.169-1.541,0.232-2,0.671c-0.368,0.354-0.344,0.682-0.297,0.846c0.051,0.199-0.332,0.95-0.558,1.397
    c-0.271,0.528-0.522,1.03-0.603,1.427c-0.053,0.264,0,0.6,0.063,1.024c0.104,0.687,0.233,1.536-0.143,1.943
    c-0.211,0.228-0.598,0.322-1.155,0.287c-0.776-0.053-1.321-0.287-1.616-0.694c-0.251-0.343-0.283-0.755-0.268-1.035l0.002-0.763
    l-0.289-0.021c-0.79-0.054-1.35-0.285-1.656-0.691c-0.285-0.378-0.292-0.832-0.271-1.053l-0.43-0.603l-0.021,0.015
    c-0.6-0.052-1.064-0.275-1.418-0.688c-0.68-0.789-0.749-2.063-0.739-2.669l-0.276-0.761"/>
    <path fill="#F1DBCB" d="M137.907,328.598c-0.013-0.007-0.042-0.027-0.089-0.052c-0.062-0.032-0.146-0.093-0.258-0.149
    c-0.115-0.06-0.252-0.127-0.414-0.188c-0.08-0.037-0.168-0.066-0.26-0.092c-0.094-0.029-0.188-0.063-0.293-0.086
    c-0.103-0.026-0.205-0.055-0.32-0.068c-0.11-0.02-0.227-0.047-0.346-0.059c-0.121-0.018-0.244-0.032-0.369-0.037
    c-0.127-0.01-0.254-0.02-0.391-0.023c-0.262-0.014-0.537-0.006-0.814,0c-0.278,0.012-0.563,0.026-0.849,0.057
    c-0.569,0.052-1.141,0.125-1.676,0.207c-0.271,0.043-0.529,0.084-0.776,0.123c-0.248,0.043-0.482,0.084-0.697,0.121
    c-0.438,0.076-0.801,0.143-1.056,0.187c-0.258,0.041-0.403,0.063-0.403,0.063s0.125-0.086,0.354-0.209
    c0.229-0.125,0.565-0.295,0.983-0.461c0.414-0.172,0.912-0.339,1.457-0.48c0.271-0.071,0.558-0.141,0.852-0.188
    c0.292-0.058,0.592-0.095,0.896-0.123c0.302-0.022,0.605-0.039,0.908-0.033c0.301,0.004,0.598,0.022,0.885,0.064
    c0.285,0.036,0.561,0.1,0.817,0.178c0.255,0.069,0.49,0.17,0.698,0.273c0.105,0.046,0.204,0.104,0.295,0.162
    c0.091,0.054,0.174,0.109,0.248,0.169c0.15,0.106,0.268,0.229,0.359,0.323c0.097,0.092,0.152,0.185,0.197,0.238
    C137.881,328.557,137.9,328.583,137.907,328.598z"/>
    <path fill="#F1DBCB" d="M171.055,328.602c0,0-0.146-0.023-0.406-0.064c-0.254-0.044-0.615-0.107-1.055-0.186
    c-0.216-0.037-0.449-0.08-0.695-0.121c-0.248-0.039-0.51-0.08-0.776-0.123c-0.535-0.082-1.104-0.156-1.679-0.209
    c-0.281-0.026-0.566-0.043-0.848-0.056c-0.277-0.006-0.553-0.014-0.813,0c-0.135,0.003-0.266,0.013-0.391,0.021
    c-0.127,0.009-0.25,0.021-0.369,0.039c-0.121,0.014-0.231,0.037-0.348,0.059c-0.111,0.018-0.218,0.044-0.32,0.068
    c-0.104,0.021-0.196,0.059-0.293,0.086c-0.092,0.025-0.179,0.057-0.26,0.094c-0.162,0.063-0.3,0.129-0.412,0.188
    c-0.115,0.058-0.195,0.114-0.26,0.147c-0.047,0.022-0.076,0.045-0.089,0.054c0.008-0.017,0.026-0.043,0.06-0.084
    c0.043-0.056,0.103-0.146,0.195-0.24c0.094-0.094,0.209-0.213,0.363-0.32c0.074-0.061,0.156-0.115,0.248-0.174
    c0.088-0.057,0.188-0.111,0.292-0.157c0.208-0.106,0.444-0.204,0.7-0.272c0.257-0.078,0.531-0.143,0.816-0.179
    c0.283-0.042,0.584-0.063,0.885-0.067c0.301-0.002,0.604,0.01,0.908,0.037s0.604,0.064,0.895,0.122
    c0.296,0.05,0.58,0.114,0.853,0.185c0.544,0.146,1.042,0.313,1.457,0.486c0.417,0.165,0.753,0.331,0.983,0.459
    C170.93,328.516,171.055,328.602,171.055,328.602z"/>
    <g>
    <g>
      <path fill="none" stroke="#494949" stroke-width="0.4907" stroke-miterlimit="10" d="M118.729,117.258"/>
    </g>
    </g>
    <g>
    <g>
      <path fill="none" stroke="#494949" stroke-width="0.4907" stroke-miterlimit="10" d="M181.248,117.27"/>
    </g>
    </g>
    <g>
    <g>
      <path fill="#494949" d="M128.895,328.579c0,0,0.127-0.085,0.356-0.21s0.565-0.294,0.983-0.46c0.414-0.173,0.912-0.341,1.457-0.484
        c0.272-0.069,0.558-0.135,0.851-0.186c0.292-0.056,0.593-0.093,0.896-0.122c0.303-0.026,0.607-0.04,0.908-0.036
        c0.303,0.006,0.6,0.024,0.885,0.065c0.287,0.039,0.563,0.101,0.817,0.179c0.257,0.071,0.492,0.168,0.701,0.272
        c0.104,0.049,0.202,0.104,0.292,0.16c0.091,0.057,0.175,0.111,0.248,0.174c0.154,0.105,0.27,0.228,0.361,0.319
        c0.097,0.093,0.152,0.188,0.197,0.238c0.041,0.057,0.063,0.087,0.063,0.087s-0.033-0.021-0.095-0.057
        c-0.063-0.033-0.145-0.094-0.26-0.148c-0.113-0.059-0.25-0.127-0.412-0.188c-0.08-0.037-0.168-0.065-0.262-0.094
        c-0.093-0.027-0.188-0.063-0.291-0.086c-0.103-0.023-0.208-0.054-0.322-0.066c-0.11-0.021-0.225-0.047-0.346-0.061
        c-0.119-0.02-0.24-0.029-0.367-0.036c-0.127-0.011-0.257-0.021-0.39-0.022c-0.265-0.012-0.537-0.006-0.815,0
        c-0.279,0.014-0.563,0.025-0.849,0.056c-0.569,0.051-1.142,0.127-1.677,0.209c-0.27,0.043-0.529,0.084-0.776,0.123
        c-0.248,0.043-0.481,0.083-0.696,0.12c-0.438,0.074-0.802,0.14-1.056,0.186C129.042,328.555,128.895,328.579,128.895,328.579z"/>
    </g>
    <g>
      <path fill="#494949" d="M171.053,328.579c0,0-0.146-0.024-0.406-0.067c-0.254-0.044-0.617-0.105-1.054-0.185
        c-0.217-0.037-0.45-0.077-0.698-0.119c-0.246-0.039-0.506-0.08-0.772-0.123c-0.536-0.082-1.104-0.157-1.679-0.209
        c-0.283-0.028-0.567-0.043-0.85-0.056c-0.277-0.006-0.553-0.012-0.816,0.001c-0.131,0.003-0.262,0.013-0.387,0.022
        c-0.127,0.006-0.25,0.021-0.369,0.035c-0.121,0.014-0.232,0.037-0.347,0.061c-0.112,0.016-0.219,0.043-0.321,0.066
        c-0.104,0.021-0.199,0.059-0.291,0.086c-0.095,0.025-0.182,0.057-0.261,0.094c-0.163,0.062-0.3,0.131-0.413,0.188
        c-0.115,0.057-0.197,0.115-0.26,0.15s-0.093,0.054-0.093,0.054s0.021-0.03,0.063-0.087c0.045-0.053,0.101-0.146,0.193-0.238
        c0.096-0.094,0.208-0.214,0.361-0.322c0.072-0.06,0.154-0.115,0.246-0.17c0.093-0.058,0.188-0.113,0.293-0.162
        c0.207-0.104,0.443-0.201,0.701-0.271c0.254-0.078,0.529-0.142,0.815-0.181c0.287-0.041,0.584-0.062,0.886-0.063
        c0.301-0.004,0.605,0.01,0.908,0.035c0.303,0.028,0.604,0.063,0.895,0.122c0.295,0.051,0.578,0.113,0.854,0.188
        c0.545,0.146,1.042,0.313,1.457,0.483c0.417,0.166,0.753,0.334,0.981,0.459C170.928,328.494,171.053,328.579,171.053,328.579z"/>
    </g>
    </g>
    <path fill="none" stroke="#494949" stroke-width="0.736" stroke-miterlimit="10" d="M146.406,25.957"/>
    <g>
    <path fill="#494949" d="M134.723,424.849c0,0,0.064-0.073,0.184-0.198c0.966-1.016,2.482-1.641,3.885-1.411
      c0.532,0.086,1.059,0.263,1.509,0.561c0.146,0.098,0.226,0.156,0.226,0.156s-0.101-0.021-0.267-0.064
      c-0.083-0.02-0.18-0.053-0.297-0.069c-0.854-0.137-1.628-0.216-2.489-0.04c-0.539,0.107-1.063,0.286-1.57,0.502
      c-0.25,0.104-0.498,0.224-0.74,0.347C135.059,424.681,134.788,424.761,134.723,424.849z"/>
    </g>
    <g>
    <path fill="#494949" d="M164.982,424.627c-0.244-0.123-0.49-0.24-0.741-0.347c-0.507-0.216-1.031-0.395-1.57-0.502
      c-0.86-0.177-1.635-0.097-2.487,0.04c-0.117,0.019-0.216,0.052-0.299,0.069c-0.164,0.043-0.266,0.064-0.266,0.064
      s0.078-0.062,0.227-0.156c0.449-0.298,0.977-0.475,1.508-0.561c1.403-0.229,2.92,0.396,3.888,1.411
      c0.118,0.125,0.184,0.198,0.184,0.198C165.355,424.761,165.087,424.681,164.982,424.627z"/>
    </g>
    <path fill="#494949" d="M244.288,218.554c0.846-0.388,1.01-0.895,0.998-1.252c-0.034-1.087-1.718-2.021-2.708-2.402
    c-0.877-0.338-2.383-1.697-3.837-3.013c-0.994-0.898-2.022-1.827-2.875-2.45c-2.13-1.557-7.646-2.766-7.88-2.816l-0.055-0.012
    l-0.072,0.006c-2.443-2.708-5.029-10.22-7.764-18.166c-3.435-9.97-6.98-20.278-10.951-23.399c-7.018-5.511-8-15.37-9.262-33.772
    c-1.178-17.187-4.8-33.311-23.174-34.909c-16.979-1.476-17.188-16.831-17.188-17.478l0.061-3.541
    c5.637-4.097,6.841-12.223,7.079-14.671c0.046,0.014,0.089,0.023,0.129,0.03c0.644,0.108,1.257-0.412,1.385-0.539
    c2.687-3.879,2.405-8.258,1.369-9.995c-0.396-0.665-0.804-0.774-1.077-0.74c-0.193,0.021-0.355,0.105-0.492,0.209
    c0.01-0.616,0.051-1.662,0.111-3.189c0.057-1.423,0.132-3.321,0.221-5.837c0.362-10.29-13.029-14.666-14.578-15.136
    c-2.758-0.679-5.187-0.676-7.431,0.005c-1.528,0.465-14.92,4.841-14.558,15.13c0.089,2.516,0.164,4.414,0.221,5.837
    c0.063,1.532,0.104,2.58,0.111,3.195c-0.145-0.107-0.32-0.193-0.541-0.215c-0.274-0.034-0.68,0.075-1.075,0.74
    c-1.036,1.737-1.317,6.115,1.429,10.063c0.067,0.06,0.696,0.576,1.325,0.472c0.04-0.007,0.083-0.017,0.129-0.03
    c0.238,2.448,1.442,10.575,7.079,14.671l0.061,3.541l0.016,0.14c-0.059,1.556-1.034,15.944-17.208,17.349
    c-18.128,1.577-21.911,17.246-23.144,34.137l-0.027-0.001c-1.26,18.402-2.244,28.261-9.258,33.772
    c-3.971,3.12-7.519,13.428-10.95,23.397c-2.735,7.947-5.321,15.46-7.767,18.168l-0.071-0.007l-0.055,0.012
    c-0.233,0.051-5.751,1.261-7.88,2.816c-0.852,0.622-1.879,1.552-2.873,2.45c-1.455,1.315-2.961,2.676-3.838,3.014
    c-0.99,0.381-2.675,1.314-2.709,2.402c-0.011,0.357,0.153,0.863,0.998,1.251c2.044,0.935,6.787-1.889,7.892-2.577
    c0.161,0.836-0.084,3.646-1.187,5.73c-0.577,1.09-1.986,3.037-3.349,4.92c-3.358,4.641-4.201,5.979-3.728,6.547
    c0.302,0.36,0.784,0.849,1.486,0.896c0.6,0.038,1.222-0.24,1.9-0.861c0.524-0.479,1.496-1.618,2.622-2.938
    c1.381-1.619,3.646-4.276,4.275-4.656c0.028,0.823-1.363,4.099-2.302,5.528c-5,7.604-4.421,8.84-4.23,9.245
    c0.139,0.295,0.406,0.479,0.753,0.518c2.125,0.241,3.289-1.725,4.224-3.3c0.134-0.227,0.264-0.444,0.393-0.651
    c0.146-0.234,0.362-0.59,0.626-1.025c1.07-1.762,4.241-6.984,5.19-7.598c0.047,0.699-0.794,3.129-1.261,4.477
    c-0.313,0.902-0.607,1.755-0.76,2.329c-0.122,0.46-0.378,1.124-0.648,1.827c-0.761,1.977-1.624,4.217-0.986,5.285
    c0.195,0.33,0.52,0.531,0.938,0.586c1.995,0.262,2.544-1.426,3.021-2.915c0.129-0.405,0.262-0.819,0.423-1.21
    c0.194-0.471,0.498-1.309,0.855-2.299c0.739-2.043,2.24-6.195,2.873-6.871c0.214,0.447,0.134,2.214,0.086,3.299
    c-0.029,0.65-0.059,1.299-0.059,1.869c0,0.443-0.029,0.981-0.061,1.557c-0.113,2.064-0.229,4.2,0.645,4.918
    c0.195,0.162,0.536,0.328,1.041,0.196c2.083-0.532,2.126-3.765,1.965-5.644c-0.114-1.345,2.146-9.408,2.934-10.866
    c0.615-1.14,2.487-4.607,2.618-8.246c0.117-3.297,1.003-5.562,1.118-5.756c0.23-0.32,0.839-1.344,1.761-2.892
    c3.24-5.441,9.981-16.763,14.279-21.038l-0.261-0.261l0.267,0.253c7.467-7.848,8.301-13.808,8.971-18.598
    c0.355-2.541,0.662-4.734,1.796-6.897c2.364-4.512,5.019-13.103,6.491-19.204c0.154-0.254,0.791-1.349,1.214-2.586
    c0.504,3.019,0.94,5.178,0.997,5.45c2.111,8.193,5.398,23.887,3.689,36.951c-0.914,7.005-3.529,11.65-6.3,16.567
    c-4.907,8.717-10.472,18.598-8.688,44.466c2.009,29.119,7.683,46.045,11.437,57.244c1.476,4.404,2.642,7.883,3.175,10.869
    c1.975,11.053,1.27,19.225-0.508,28.823l-0.195,1.056c-1.97,10.51-5.635,30.073,6.438,60.871c3.195,8.147,4.486,15.111,3.959,21.238
    c-0.01,0.04-0.889,3.882-1.988,6.313c-0.473,1.042-0.813,2.218-1.17,3.462c-0.499,1.729-1.016,3.517-1.916,4.934
    c-1.557,2.446-4.053,9.711-4.635,11.78c-0.161,0.574-0.485,1.412-0.829,2.298c-0.812,2.093-1.728,4.464-1.499,5.709
    c0.236,1.286,0.23,2.807-0.02,4.521c-0.146,1.02,0.297,2.232,0.813,2.907c0.212,0.277,0.442,0.479,0.677,0.59
    c-0.025,0.658,0.021,2.235,0.911,3.272c0.433,0.504,0.999,0.811,1.688,0.916c-0.004,0.354,0.064,0.891,0.422,1.369
    c0.382,0.511,0.988,0.83,1.808,0.951c-0.028,0.396,0.013,1.014,0.399,1.551c0.43,0.599,1.158,0.936,2.17,1.004
    c0.783,0.049,1.376-0.122,1.754-0.532c0.413,1.084,1.986,1.371,2.725,1.506c0.211,0.038,0.409,0.059,0.598,0.059
    c1.168,0,1.934-0.691,2.58-1.46c0.968-1.143,1.992-2.529,2.261-4.188c0.055-0.34,0.089-0.685,0.122-1.027
    c0.07-0.725,0.138-1.407,0.404-2.049c0.201-0.482,0.498-0.915,0.813-1.371c0.254-0.366,0.516-0.748,0.729-1.165
    c0.75-1.471,0.889-3.522,0.463-6.867c-0.441-3.45,0.983-13.476,1.617-17.623c0.133-0.871,0.297-1.798,0.465-2.739
    c0.867-4.855,1.85-10.357-1.012-12.007c-0.5-0.366-1.186-1.046-1.171-1.354l0.015-0.155c0-10.592,1.828-31.841,4.184-43.359
    c2.352-11.496,0.002-29.448-2.418-38.522c-1.451-5.443,0.535-29.326,2.288-50.396c1.28-15.408,2.491-29.962,2.169-35.134
    c-0.419-6.688-0.76-11.695-0.982-14.854l-0.08,0.006c0.223-0.343,0.426-0.679,0.596-1.004c0.397-0.662,0.646-1.289,0.885-1.785
    c0.227-0.502,0.342-0.924,0.449-1.197c0.097-0.277,0.15-0.426,0.15-0.426s-0.27,0.571-0.771,1.541
    c-0.279,0.469-0.577,1.063-1.024,1.676c-0.258,0.397-0.573,0.813-0.911,1.24l-0.029,0.002c0,0.01,0.002,0.021,0.002,0.03
    c-0.193,0.245-0.387,0.488-0.598,0.745c-0.607,0.701-1.309,1.421-2.113,2.109c-0.81,0.682-1.7,1.354-2.68,1.957
    c-0.964,0.631-2.041,1.143-3.152,1.611c-1.123,0.436-2.295,0.805-3.498,1.034c-0.6,0.129-1.199,0.252-1.797,0.308
    c-0.59,0.092-1.211,0.127-1.83,0.147c-0.627,0.055-1.178-0.011-1.787-0.022c-0.594-0.002-1.174-0.078-1.742-0.168
    c-0.572-0.07-1.132-0.154-1.67-0.291c-0.536-0.136-1.083-0.203-1.58-0.387c-0.504-0.166-0.994-0.324-1.469-0.479
    c-0.459-0.199-0.9-0.392-1.325-0.576c-0.435-0.167-0.813-0.404-1.188-0.602c-0.371-0.203-0.738-0.379-1.059-0.578
    c-0.623-0.422-1.189-0.766-1.626-1.098c-0.862-0.681-1.354-1.07-1.354-1.07s0.446,0.441,1.228,1.213
    c0.405,0.369,0.946,0.77,1.55,1.259c0.641,0.423,1.35,0.946,2.203,1.368c0.427,0.213,0.872,0.436,1.332,0.664
    c0.48,0.186,0.977,0.379,1.488,0.576c0.507,0.217,1.063,0.317,1.615,0.487c0.551,0.181,1.135,0.263,1.729,0.353
    c0.591,0.104,1.195,0.191,1.813,0.205c0.6,0.026,1.271,0.103,1.877,0.06c0.614-0.013,1.237-0.031,1.885-0.119
    c0.647-0.051,1.279-0.168,1.908-0.29c1.258-0.26,2.479-0.669,3.646-1.146c1.154-0.51,2.268-1.065,3.262-1.74
    c1.021-0.633,1.904-1.396,2.702-2.146c0.794-0.758,1.478-1.538,2.062-2.293c0.082-0.108,0.146-0.211,0.226-0.317
    c0.222,3.175,0.541,7.887,0.926,14.043c0.319,5.117-0.889,19.645-2.168,35.022c-1.758,21.13-3.75,45.079-2.266,50.646
    c2.401,9.007,4.735,26.808,2.407,38.188c-2.364,11.563-4.198,32.885-4.196,43.476l-0.013,0.139
    c-0.043,0.851,1.218,1.813,1.502,2.021c2.447,1.414,1.514,6.647,0.689,11.266c-0.17,0.949-0.336,1.881-0.471,2.758
    c-0.791,5.191-2.055,14.412-1.619,17.828c0.406,3.185,0.29,5.11-0.389,6.438c-0.19,0.373-0.428,0.721-0.678,1.082
    c-0.322,0.469-0.656,0.95-0.887,1.506c-0.308,0.741-0.384,1.516-0.457,2.262c-0.031,0.328-0.063,0.654-0.115,0.979
    c-0.24,1.479-1.195,2.769-2.096,3.829c-0.729,0.861-1.4,1.354-2.488,1.156c-1.132-0.207-2.281-0.539-2.219-1.438
    c0.084-1.216,0.732-2.535,1.303-3.701l0.217-0.443c1.207-2.434,1.145-2.582,1.065-2.772l-0.077-0.169l-0.16-0.053
    c-0.502-0.17-1.539,0.232-1.998,0.67c-0.369,0.353-0.346,0.679-0.299,0.842c0.051,0.202-0.33,0.954-0.559,1.403
    c-0.268,0.528-0.521,1.027-0.602,1.424c-0.051,0.264,0,0.601,0.063,1.025c0.103,0.684,0.231,1.536-0.144,1.941
    c-0.209,0.229-0.6,0.318-1.154,0.286c-0.777-0.052-1.322-0.286-1.618-0.691c-0.25-0.347-0.28-0.758-0.267-1.037
    c0.033-0.01,0.056-0.014,0.095-0.027c0.114-0.042,0.251-0.102,0.397-0.185c0.146-0.084,0.301-0.196,0.453-0.335
    c0.076-0.07,0.146-0.153,0.221-0.234c0.068-0.086,0.131-0.181,0.195-0.275c0.061-0.099,0.108-0.207,0.164-0.313
    c0.049-0.109,0.082-0.227,0.124-0.34c0.044-0.115,0.056-0.238,0.085-0.358c0.031-0.12,0.038-0.244,0.049-0.368
    c0.031-0.248,0.014-0.495,0.008-0.743c-0.012-0.158-0.035-0.316-0.057-0.477c0.004-0.047,0.006-0.096,0.012-0.15
    c0.012-0.131,0.033-0.279,0.059-0.44c0.031-0.159,0.066-0.331,0.122-0.495c0.05-0.167,0.118-0.327,0.196-0.469
    c0.033-0.075,0.086-0.136,0.127-0.197c0.043-0.063,0.097-0.106,0.14-0.158c0.046-0.047,0.099-0.075,0.14-0.109
    s0.086-0.052,0.119-0.067c0.07-0.032,0.11-0.051,0.11-0.051s-0.042,0.015-0.114,0.041c-0.036,0.015-0.083,0.024-0.128,0.059
    s-0.103,0.058-0.153,0.104c-0.048,0.046-0.107,0.09-0.158,0.147c-0.045,0.063-0.106,0.12-0.148,0.192
    c-0.096,0.141-0.184,0.301-0.249,0.468c-0.065,0.154-0.115,0.313-0.159,0.467c-0.013-0.087-0.029-0.179-0.035-0.262
    c-0.01-0.11-0.02-0.218-0.031-0.322c-0.002-0.105-0.006-0.21-0.008-0.311c0-0.201,0.008-0.395,0.043-0.563
    c0.029-0.171,0.088-0.32,0.174-0.426c0.084-0.109,0.211-0.147,0.311-0.139c0.1,0.005,0.18,0.032,0.229,0.057
    c0.053,0.021,0.076,0.04,0.076,0.04s-0.021-0.021-0.072-0.047c-0.045-0.03-0.123-0.065-0.229-0.083
    c-0.103-0.021-0.255,0.009-0.362,0.123c-0.11,0.107-0.189,0.268-0.24,0.443c-0.053,0.18-0.082,0.375-0.104,0.582
    c-0.006,0.104-0.014,0.212-0.021,0.32c-0.002,0.11-0.002,0.223-0.002,0.336c-0.006,0.231,0.016,0.458,0.022,0.694
    c0.032,0.966-0.03,2.256-0.899,2.888c-0.664,0.482-1.973,0.141-2.445-0.487c-0.164-0.218-0.247-0.478-0.271-0.743
    c-0.024-0.273,0.032-0.32,0.215-0.509c0.09-0.094,0.174-0.194,0.252-0.299c0.175-0.229,0.324-0.477,0.438-0.738
    c0.3-0.684,0.333-1.483,0.472-2.211c0.041-0.225,0.084-0.45,0.123-0.66c0.039-0.213,0.084-0.404,0.102-0.588
    c0.016-0.177-0.014-0.334-0.083-0.417c-0.07-0.084-0.14-0.079-0.138-0.081c-0.002,0,0.066,0.013,0.115,0.098
    c0.049,0.084,0.051,0.228,0.01,0.388c-0.019,0.077-0.055,0.168-0.082,0.258c-0.032,0.097-0.064,0.192-0.098,0.296
    c-0.059,0.18-0.121,0.368-0.183,0.562c-0.005-0.039-0.011-0.08-0.015-0.12c-0.021-0.167-0.049-0.331-0.059-0.482
    c-0.012-0.151-0.023-0.298-0.034-0.433c-0.003-0.134-0.005-0.258-0.007-0.365c0.01-0.104,0.008-0.204,0.025-0.28
    c0.009-0.037,0.016-0.069,0.022-0.103c0.011-0.026,0.023-0.048,0.033-0.067c0.022-0.033,0.048-0.039,0.048-0.036
    c0-0.003-0.025-0.001-0.055,0.031c-0.012,0.02-0.028,0.039-0.044,0.066c-0.011,0.029-0.022,0.063-0.037,0.101
    c-0.028,0.075-0.039,0.172-0.063,0.28c-0.014,0.111-0.027,0.235-0.043,0.371c-0.007,0.136-0.015,0.285-0.022,0.44
    c-0.011,0.158-0.005,0.318-0.007,0.489c-0.002,0.166,0.002,0.354-0.008,0.521c-0.004,0.086-0.002,0.172-0.011,0.258l-0.034,0.256
    c-0.002,0.03-0.012,0.061-0.018,0.089c-0.029,0.092-0.061,0.192-0.085,0.272c-0.06,0.188-0.104,0.333-0.134,0.429
    c-0.021,0.051-0.039,0.105-0.062,0.153c-0.038,0.067-0.073,0.137-0.108,0.203c-0.041,0.063-0.082,0.123-0.121,0.182
    c-0.082,0.116-0.164,0.222-0.247,0.313c-0.165,0.181-0.324,0.31-0.435,0.389c-0.031,0.021-0.047,0.031-0.07,0.046
    c-0.602-0.052-1.073-0.271-1.428-0.682c-0.684-0.795-0.75-2.07-0.738-2.678c0.164-0.008,0.361-0.024,0.599-0.099
    c0.146-0.045,0.302-0.112,0.454-0.206c0.076-0.047,0.148-0.105,0.223-0.163c0.065-0.064,0.135-0.134,0.196-0.206
    c0.056-0.078,0.115-0.155,0.163-0.24c0.041-0.086,0.087-0.172,0.122-0.263c0.028-0.09,0.056-0.182,0.084-0.272
    c0.019-0.093,0.03-0.187,0.046-0.277l0.012-0.067c0.006-0.039,0.004-0.05,0.006-0.073l0.006-0.131c0.006-0.085,0.008-0.174,0-0.285
    c0.043-0.147,0.113-0.419,0.127-0.707c0.009-0.105,0.004-0.212-0.008-0.311s-0.037-0.188-0.063-0.262
    c-0.015-0.037-0.035-0.066-0.048-0.097c-0.014-0.027-0.032-0.049-0.047-0.065c-0.027-0.035-0.043-0.057-0.043-0.057
    s0.013,0.021,0.033,0.063c0.012,0.021,0.026,0.041,0.034,0.071c0.009,0.03,0.024,0.062,0.03,0.098
    c0.016,0.073,0.025,0.159,0.021,0.253c-0.004,0.095-0.015,0.191-0.037,0.289c-0.015,0.072-0.035,0.143-0.057,0.209
    c-0.035-0.166-0.082-0.321-0.145-0.463c-0.063-0.144-0.135-0.271-0.215-0.38c-0.078-0.108-0.16-0.202-0.239-0.273
    c-0.078-0.074-0.154-0.132-0.218-0.175c-0.129-0.086-0.211-0.115-0.211-0.115s0.078,0.042,0.19,0.144
    c0.056,0.05,0.123,0.113,0.187,0.195c0.066,0.078,0.131,0.179,0.19,0.29c0.06,0.108,0.108,0.236,0.147,0.375
    s0.063,0.287,0.074,0.441c0.008,0.155,0.008,0.316-0.014,0.476c-0.005,0.076-0.02,0.16-0.037,0.246l-0.023,0.129
    c-0.004,0.019-0.008,0.053-0.012,0.057l-0.018,0.058l-0.07,0.229c-0.033,0.067-0.066,0.139-0.098,0.209
    c-0.037,0.063-0.081,0.122-0.12,0.185c-0.043,0.057-0.095,0.103-0.138,0.152c-0.051,0.044-0.104,0.081-0.153,0.12
    c-0.058,0.027-0.108,0.063-0.163,0.088c-0.111,0.045-0.222,0.078-0.328,0.094c-0.521,0.083-0.938-0.004-1.267-0.435
    c-0.483-0.633-0.772-1.646-0.669-2.354c0.261-1.795,0.266-3.396,0.015-4.761c-0.192-1.041,0.726-3.409,1.461-5.311
    c0.351-0.902,0.681-1.758,0.853-2.364c0.574-2.044,3.027-9.198,4.547-11.586c0.958-1.506,1.488-3.347,2.002-5.123
    c0.352-1.219,0.683-2.369,1.133-3.363c1.131-2.497,1.999-6.29,2.043-6.5c0.547-6.292-0.761-13.364-3.998-21.622
    c-11.995-30.603-8.355-50.029-6.4-60.469l0.197-1.056c1.793-9.681,2.502-17.925,0.508-29.089c-0.543-3.038-1.715-6.541-3.201-10.973
    c-3.742-11.164-9.396-28.037-11.398-57.061c-1.768-25.65,3.738-35.428,8.596-44.056c2.805-4.981,5.454-9.686,6.389-16.833
    c1.725-13.187-1.582-28.986-3.703-37.212c-0.042-0.205-4.17-20.611-2.024-26.426l-0.69-0.255
    c-1.354,3.668-0.377,12.528,0.629,19.079c0.248,1.727-1.48,4.538-1.5,4.566l-0.045,0.108c-1.459,6.061-4.098,14.62-6.441,19.09
    c-1.191,2.276-1.523,4.637-1.873,7.137c-0.689,4.929-1.471,10.515-8.771,18.19c-4.361,4.343-11.132,15.713-14.386,21.179
    c-0.88,1.477-1.515,2.543-1.727,2.838c-0.192,0.268-1.135,2.727-1.257,6.16c-0.124,3.466-1.935,6.819-2.529,7.921
    c-0.841,1.554-3.144,9.819-3.019,11.279c0.088,1.034,0.246,4.442-1.414,4.867c-0.224,0.056-0.326,0.003-0.392-0.052
    c-0.587-0.481-0.461-2.785-0.378-4.309c0.032-0.591,0.063-1.144,0.063-1.599c0-0.56,0.028-1.197,0.058-1.836
    c0.095-2.123,0.129-3.448-0.353-3.929c-0.136-0.135-0.309-0.197-0.493-0.192c-0.696,0.033-1.424,1.558-3.541,7.41
    c-0.353,0.978-0.651,1.803-0.843,2.269c-0.17,0.409-0.309,0.842-0.444,1.268c-0.529,1.652-0.88,2.578-2.226,2.408
    c-0.252-0.031-0.346-0.142-0.4-0.231c-0.454-0.763,0.446-3.099,1.041-4.646c0.29-0.752,0.541-1.402,0.673-1.902
    c0.146-0.547,0.437-1.387,0.744-2.275c1.088-3.143,1.556-4.686,1.146-5.264c-0.112-0.156-0.28-0.242-0.475-0.242
    c-0.798,0-2.292,2.02-5.925,8.004c-0.262,0.432-0.476,0.783-0.622,1.018c-0.131,0.211-0.265,0.436-0.401,0.666
    c-0.868,1.466-1.861,3.127-3.508,2.943c-0.129-0.015-0.152-0.063-0.169-0.1c-0.14-0.297-0.25-1.789,4.216-8.582
    c0.64-0.975,2.742-5.172,2.315-6.266c-0.074-0.19-0.217-0.32-0.402-0.367c-0.647-0.171-1.775,1.035-5.099,4.934
    c-1.063,1.247-2.067,2.426-2.558,2.873c-0.514,0.471-0.958,0.703-1.354,0.67c-0.311-0.021-0.598-0.199-0.925-0.579
    c0.069-0.665,2.169-3.567,3.711-5.698c1.441-1.992,2.802-3.872,3.403-5.007c1.253-2.367,1.667-6.188,0.981-6.799
    c-0.178-0.158-0.426-0.172-0.63-0.03c-1.119,0.769-5.811,3.393-7.4,2.663c-0.264-0.121-0.576-0.316-0.569-0.559
    c0.016-0.482,1.04-1.278,2.237-1.739c1.005-0.386,2.493-1.731,4.068-3.155c0.979-0.885,1.992-1.801,2.813-2.4
    c1.897-1.387,6.97-2.551,7.549-2.68l0.314,0.027l0.122-0.127c2.592-2.709,5.242-10.411,8.05-18.565
    c3.238-9.408,6.908-20.072,10.709-23.058c7.161-5.627,8.234-15.415,9.486-33.551l0.025,0.001
    c1.334-19.47,5.674-32.738,22.547-34.204c17.658-1.536,17.861-18.051,17.861-18.217l-0.086-3.93l-0.152-0.107
    c-6.389-4.498-6.969-14.812-6.976-14.916l-0.062-1.259l-0.625,1.094c-0.094,0.163-0.185,0.195-0.243,0.205
    c-0.238,0.039-0.587-0.186-0.659-0.232c-2.671-3.858-2.096-7.797-1.396-9.101c0.213-0.399,0.388-0.484,0.465-0.484
    c0.127,0.014,0.285,0.219,0.381,0.341c0.125,0.162,0.316,0.406,0.611,0.298c0.375-0.137,0.375-0.137,0.207-4.378
    c-0.058-1.423-0.133-3.32-0.221-5.834c-0.344-9.74,12.563-13.952,14.036-14.4c2.112-0.642,4.415-0.641,7.021,0
    c1.477,0.448,14.383,4.66,14.037,14.401c-0.088,2.514-0.162,4.411-0.219,5.834c-0.17,4.241-0.17,4.241,0.206,4.378
    c0.296,0.108,0.485-0.136,0.61-0.298c0.096-0.122,0.255-0.327,0.38-0.341c0.032,0,0.206,0.085,0.42,0.485
    c0.696,1.303,1.272,5.242-1.337,9.032c-0.135,0.115-0.491,0.34-0.721,0.3c-0.062-0.01-0.149-0.042-0.242-0.205l-0.625-1.095
    l-0.063,1.26c-0.006,0.104-0.579,10.414-6.976,14.916l-0.151,0.107l-0.067,3.919c0,0.167,0.203,16.682,17.86,18.217
    c16.832,1.463,21.171,14.741,22.505,34.226c1.273,18.617,2.277,28.597,9.538,34.301c3.802,2.986,7.472,13.65,10.709,23.059
    c2.808,8.153,5.457,15.854,8.05,18.563l0.121,0.127l0.313-0.027c0.579,0.13,5.649,1.293,7.549,2.68
    c0.821,0.601,1.835,1.517,2.815,2.402c1.572,1.424,3.062,2.768,4.063,3.153c1.197,0.461,2.222,1.257,2.236,1.739
    c0.008,0.243-0.308,0.438-0.568,0.559c-1.584,0.725-6.28-1.893-7.397-2.662c-0.209-0.143-0.455-0.129-0.633,0.029
    c-0.688,0.611-0.271,4.432,0.981,6.8c0.603,1.136,1.963,3.017,3.401,5.009c1.543,2.131,3.644,5.032,3.711,5.696
    c-0.325,0.379-0.612,0.559-0.924,0.578c-0.385,0.031-0.838-0.197-1.354-0.668c-0.491-0.449-1.497-1.629-2.563-2.877
    c-3.326-3.9-4.469-5.094-5.099-4.932c-0.185,0.047-0.325,0.178-0.399,0.367c-0.428,1.095,1.677,5.292,2.347,6.311
    c4.438,6.744,4.323,8.239,4.187,8.537c-0.018,0.036-0.039,0.085-0.168,0.1c-1.621,0.185-2.641-1.478-3.511-2.944
    c-0.137-0.229-0.271-0.454-0.399-0.664c-0.146-0.231-0.355-0.582-0.615-1.011c-3.637-5.989-5.133-8.012-5.93-8.012
    c-0.193,0-0.363,0.086-0.477,0.242c-0.411,0.578,0.059,2.12,1.145,5.26c0.311,0.892,0.602,1.731,0.746,2.279
    c0.131,0.5,0.383,1.15,0.672,1.903c0.597,1.546,1.496,3.883,1.041,4.646c-0.056,0.09-0.146,0.199-0.398,0.231
    c-1.35,0.174-1.696-0.757-2.227-2.41c-0.136-0.424-0.272-0.856-0.442-1.267c-0.19-0.463-0.488-1.289-0.843-2.264
    c-2.117-5.856-2.849-7.382-3.543-7.414c-0.178-0.015-0.355,0.057-0.492,0.192c-0.479,0.479-0.447,1.806-0.354,3.929
    c0.027,0.639,0.059,1.276,0.059,1.836c0,0.455,0.029,1.008,0.063,1.598c0.082,1.523,0.209,3.826-0.379,4.309
    c-0.066,0.055-0.169,0.107-0.393,0.053c-1.658-0.425-1.5-3.834-1.411-4.869c0.123-1.457-2.181-9.724-3.021-11.277
    c-0.597-1.101-2.406-4.45-2.529-7.921c-0.123-3.435-1.063-5.893-1.256-6.16c-0.213-0.296-0.854-1.367-1.732-2.849
    c-3.255-5.464-10.025-16.835-14.378-21.166c-7.294-7.667-8.089-13.541-8.79-18.724c-0.354-2.609-0.688-5.074-1.883-7.355
    c-2.346-4.475-4.982-13.033-6.442-19.091l-0.045-0.108c-0.019-0.027-1.658-2.697-1.51-4.433c1.014-6.56,2.014-15.519,0.651-19.211
    l-0.691,0.255c1.287,3.49,0.316,12.232-0.676,18.708h-0.002c-0.002,0.005,0,0.012,0,0.017c-0.66,4.306-1.328,7.608-1.344,7.683
    c-2.125,8.244-5.435,24.043-3.707,37.229c0.935,7.147,3.584,11.852,6.389,16.833c4.859,8.628,10.365,18.406,8.596,44.056
    c-2.002,29.024-7.656,45.896-11.398,57.062c-1.483,4.434-2.658,7.934-3.201,10.975c-1.991,11.166-1.281,19.407,0.51,29.088
    l0.195,1.057c1.955,10.438,5.597,29.865-6.398,60.467c-3.146,8.027-4.4,15.098-3.828,21.66c0.036,0.159,0.904,3.952,2.035,6.449
    c0.449,0.994,0.779,2.146,1.133,3.361c0.516,1.778,1.044,3.618,2.003,5.126c1.521,2.388,3.976,9.543,4.548,11.585
    c0.172,0.606,0.502,1.462,0.853,2.364c0.735,1.901,1.651,4.271,1.461,5.311c-0.251,1.364-0.246,2.967,0.015,4.761
    c0.104,0.708-0.186,1.721-0.669,2.354c-0.183,0.238-0.377,0.392-0.549,0.404c0,0-0.017,0.004-0.05,0.014
    c-0.665,0.188-1.375-0.179-1.643-0.792c-0.222-0.508-0.271-1.138-0.119-1.672c0.039-0.138,0.088-0.266,0.146-0.375
    c0.061-0.111,0.124-0.211,0.189-0.29c0.064-0.081,0.131-0.146,0.188-0.195c0.111-0.101,0.189-0.143,0.189-0.143
    s-0.082,0.029-0.211,0.115c-0.063,0.043-0.141,0.101-0.219,0.175c-0.08,0.071-0.162,0.165-0.24,0.272
    c-0.078,0.108-0.149,0.237-0.215,0.381c-0.061,0.142-0.106,0.297-0.144,0.462c-0.021-0.068-0.042-0.139-0.058-0.21
    c-0.021-0.099-0.033-0.194-0.037-0.289s0.006-0.181,0.021-0.253c0.009-0.036,0.021-0.067,0.031-0.099
    c0.008-0.029,0.022-0.052,0.032-0.07c0.021-0.04,0.035-0.063,0.035-0.063s-0.017,0.021-0.045,0.057
    c-0.015,0.019-0.033,0.038-0.045,0.065c-0.016,0.03-0.035,0.06-0.05,0.097c-0.026,0.074-0.051,0.163-0.063,0.263
    c-0.012,0.099-0.018,0.204-0.01,0.31c0.017,0.311,0.108,0.605,0.146,0.914c0.036,0.328,0.039,0.66,0.165,0.971
    c0.281,0.702,0.992,1.075,1.722,1.11c0.013,0.605-0.055,1.88-0.735,2.673c-0.354,0.411-0.824,0.629-1.426,0.681
    c-0.021-0.014-0.037-0.021-0.064-0.043c-0.112-0.079-0.27-0.208-0.436-0.389c-0.082-0.09-0.164-0.195-0.248-0.312
    c-0.039-0.06-0.078-0.119-0.119-0.183c-0.037-0.065-0.072-0.135-0.109-0.203c-0.027-0.058-0.049-0.124-0.074-0.185
    c-0.029-0.097-0.072-0.232-0.123-0.396c-0.021-0.074-0.054-0.172-0.08-0.257c-0.008-0.035-0.019-0.068-0.021-0.104l-0.031-0.256
    c-0.01-0.087-0.007-0.173-0.012-0.259c-0.01-0.168-0.006-0.354-0.008-0.521c-0.004-0.17,0.004-0.331-0.008-0.489
    c-0.006-0.156-0.015-0.305-0.021-0.441c-0.019-0.136-0.029-0.26-0.043-0.37c-0.024-0.108-0.035-0.205-0.063-0.28
    c-0.015-0.037-0.025-0.07-0.035-0.102c-0.018-0.027-0.033-0.048-0.043-0.065c-0.031-0.033-0.058-0.034-0.058-0.031
    c0-0.003,0.024,0.003,0.048,0.036c0.012,0.02,0.021,0.041,0.033,0.067c0.006,0.031,0.014,0.064,0.021,0.103
    c0.019,0.076,0.017,0.175,0.025,0.281c-0.002,0.105-0.004,0.229-0.007,0.364c-0.013,0.136-0.021,0.279-0.035,0.433
    c-0.009,0.151-0.035,0.314-0.058,0.481c-0.006,0.041-0.01,0.086-0.016,0.125c-0.063-0.19-0.126-0.385-0.185-0.563
    c-0.034-0.104-0.065-0.2-0.099-0.295c-0.026-0.091-0.063-0.182-0.082-0.259c-0.043-0.159-0.039-0.305,0.01-0.389
    c0.05-0.085,0.117-0.097,0.113-0.097c0.006,0.002-0.065-0.003-0.138,0.081c-0.067,0.083-0.098,0.241-0.082,0.417
    c0.021,0.183,0.063,0.375,0.103,0.588c0.039,0.21,0.082,0.437,0.125,0.66c0.229,1.203,0.343,2.473,1.283,3.362
    c0.037,0.034,0.061,0.055,0.09,0.077c0.019,0.222,0.014,0.676-0.273,1.057c-0.219,0.29-0.553,0.469-0.896,0.564
    c-0.396,0.113-0.922,0.234-1.309,0.041c-0.35-0.175-0.625-0.492-0.809-0.832c-0.418-0.772-0.342-1.677-0.309-2.521
    c0.021-0.53,0.021-1.07-0.123-1.585c-0.05-0.177-0.13-0.336-0.238-0.444c-0.106-0.114-0.26-0.145-0.362-0.123
    c-0.106,0.019-0.183,0.054-0.229,0.083c-0.05,0.026-0.072,0.047-0.072,0.047s0.025-0.018,0.076-0.04
    c0.049-0.022,0.129-0.052,0.229-0.057c0.103-0.009,0.228,0.029,0.312,0.139c0.088,0.105,0.146,0.256,0.174,0.427
    c0.035,0.17,0.043,0.361,0.045,0.563c-0.004,0.102-0.008,0.205-0.01,0.312c-0.012,0.104-0.021,0.212-0.031,0.321
    c-0.006,0.083-0.021,0.174-0.034,0.262c-0.045-0.15-0.093-0.312-0.159-0.465c-0.066-0.167-0.154-0.326-0.248-0.468
    c-0.043-0.072-0.104-0.13-0.15-0.191c-0.049-0.06-0.107-0.104-0.155-0.148c-0.052-0.045-0.108-0.07-0.153-0.103
    c-0.045-0.033-0.092-0.044-0.128-0.06c-0.067-0.024-0.11-0.04-0.112-0.041c0.455,0.156,0.688,0.625,0.83,1.054
    c0.271,0.813,0.076,1.618,0.153,2.446c0.06,0.613,0.319,1.229,0.752,1.675c0.257,0.267,0.581,0.468,0.927,0.595
    c0.037,0.015,0.059,0.017,0.09,0.025c0.014,0.278-0.018,0.69-0.265,1.034c-0.296,0.41-0.841,0.646-1.621,0.698
    c-0.562,0.032-0.944-0.06-1.153-0.287c-0.375-0.405-0.246-1.257-0.145-1.941c0.063-0.425,0.114-0.762,0.063-1.024
    c-0.08-0.397-0.332-0.896-0.602-1.426c-0.229-0.448-0.607-1.199-0.557-1.401c0.046-0.164,0.066-0.49-0.301-0.843
    c-0.459-0.438-1.49-0.841-2-0.67l-0.172,0.066l-0.063,0.153c-0.08,0.188-0.144,0.339,1.063,2.771l0.217,0.443
    c0.572,1.166,1.221,2.486,1.304,3.703c0.063,0.897-1.086,1.229-2.222,1.438c-1.084,0.198-1.758-0.295-2.485-1.156
    c-0.901-1.063-1.854-2.35-2.095-3.827c-0.055-0.325-0.086-0.652-0.115-0.979c-0.073-0.747-0.146-1.521-0.458-2.263
    c-0.229-0.556-0.563-1.036-0.886-1.503c-0.252-0.364-0.488-0.71-0.68-1.084c-0.679-1.329-0.795-3.255-0.389-6.44
    c0.436-3.416-0.828-12.636-1.619-17.828c-0.135-0.877-0.301-1.808-0.471-2.758c-0.824-4.616-1.758-9.849,0.723-11.284
    c0.252-0.186,1.512-1.147,1.469-2.02l-0.01-0.083c0-11.396-2.119-32.537-4.361-43.498c-2.328-11.38,0.008-29.181,2.408-38.188
    c1.483-5.566-0.508-29.513-2.266-50.638c-1.279-15.385-2.488-29.914-2.168-35.034c0.391-6.262,0.711-10.983,0.926-14.049
    c0.078,0.106,0.143,0.208,0.225,0.316c0.584,0.754,1.27,1.535,2.063,2.293c0.799,0.749,1.684,1.512,2.702,2.146
    c0.993,0.674,2.108,1.229,3.263,1.739c1.168,0.478,2.391,0.886,3.646,1.147c0.63,0.121,1.261,0.238,1.906,0.289
    c0.649,0.088,1.271,0.107,1.887,0.119c0.607,0.043,1.277-0.033,1.877-0.059c0.617-0.014,1.222-0.102,1.813-0.205
    c0.594-0.09,1.178-0.172,1.729-0.354c0.553-0.17,1.108-0.271,1.614-0.486c0.511-0.197,1.008-0.391,1.488-0.576
    c0.461-0.229,0.904-0.451,1.332-0.664c0.854-0.422,1.563-0.945,2.203-1.369c0.602-0.488,1.145-0.889,1.551-1.258
    c0.782-0.773,1.229-1.213,1.229-1.213s-0.492,0.389-1.354,1.07c-0.438,0.332-1.005,0.676-1.628,1.099
    c-0.321,0.198-0.688,0.374-1.059,0.577c-0.375,0.197-0.753,0.434-1.188,0.602c-0.427,0.184-0.869,0.377-1.326,0.575
    c-0.476,0.155-0.965,0.315-1.469,0.479c-0.498,0.183-1.043,0.25-1.58,0.386c-0.539,0.137-1.099,0.221-1.67,0.292
    c-0.568,0.089-1.146,0.165-1.742,0.167c-0.607,0.011-1.162,0.078-1.787,0.022c-0.619-0.021-1.239-0.054-1.83-0.146
    c-0.598-0.057-1.195-0.18-1.797-0.309c-1.203-0.229-2.375-0.597-3.5-1.034c-1.106-0.468-2.188-0.979-3.148-1.61
    c-0.979-0.604-1.871-1.275-2.682-1.958c-0.805-0.687-1.506-1.407-2.111-2.108c-0.211-0.256-0.404-0.5-0.6-0.744
    c0-0.01,0.002-0.021,0.002-0.032l-0.028-0.002c-0.339-0.425-0.653-0.841-0.911-1.238c-0.447-0.614-0.745-1.207-1.021-1.677
    c-0.418-0.807-0.666-1.314-0.74-1.471c0.035-0.51,0.103-1.557,0.16-2.939c0.067-1.971,0.154-4.602,0.136-7.23
    c-0.005-0.655-0.007-1.313-0.011-1.96c-0.016-0.653,0.01-1.268-0.056-1.924c-0.008-0.08-0.026-0.155-0.038-0.235
    c0.024-0.082,0.045-0.159,0.074-0.248c0.182-0.638,0.484-1.446,0.938-2.168c0.854-1.468,2.315-2.603,2.315-2.603
    s-0.47,0.074-1.09,0.418c-0.313,0.166-0.647,0.412-0.978,0.716c-0.322,0.306-0.631,0.678-0.879,1.088
    c-0.135,0.2-0.221,0.426-0.326,0.636c-0.106,0.211-0.154,0.441-0.229,0.65c-0.038,0.119-0.062,0.238-0.081,0.355
    c-0.044-0.139-0.076-0.284-0.131-0.416c-0.213-0.552-0.51-1.03-0.807-1.445c-0.61-0.825-1.316-1.319-1.813-1.615
    c-0.505-0.296-0.826-0.388-0.826-0.388s0.289,0.164,0.736,0.517c0.445,0.353,1.02,0.938,1.533,1.738
    c0.24,0.41,0.473,0.869,0.621,1.389c0.154,0.516,0.272,1.073,0.295,1.662c0.025,0.574,0.016,1.232,0.016,1.873
    c0.002,0.648,0.004,1.305,0.006,1.962c0.004,2.629,0.112,5.256,0.196,7.229c0.099,1.973,0.211,3.286,0.211,3.286
    s0.009-0.121,0.022-0.325c0.024,0.07,0.062,0.173,0.119,0.334c0.106,0.273,0.221,0.695,0.449,1.197
    c0.238,0.496,0.487,1.123,0.885,1.785c0.17,0.324,0.373,0.66,0.597,1l-0.076-0.004c-0.212,3.013-0.56,8.037-0.981,14.863
    c-0.322,5.174,0.887,19.729,2.17,35.141c1.752,21.068,3.735,44.945,2.287,50.39c-2.422,9.073-4.771,27.024-2.42,38.522
    c2.234,10.924,4.348,31.99,4.35,43.387l0.012,0.102c0.014,0.298-0.594,0.95-1.139,1.351c-2.896,1.673-1.91,7.175-1.043,12.027
    c0.168,0.943,0.332,1.868,0.465,2.74c0.634,4.147,2.058,14.172,1.617,17.622c-0.426,3.345-0.287,5.397,0.463,6.869
    c0.211,0.417,0.475,0.799,0.729,1.167c0.314,0.455,0.611,0.887,0.813,1.369c0.268,0.642,0.334,1.324,0.404,2.05
    c0.033,0.343,0.067,0.687,0.123,1.025c0.271,1.658,1.293,3.047,2.258,4.188c0.652,0.771,1.418,1.463,2.586,1.463
    c0.188,0,0.39-0.019,0.596-0.058c0.736-0.137,2.313-0.422,2.73-1.497c0.369,0.399,0.963,0.576,1.746,0.521
    c1.01-0.066,1.74-0.404,2.17-1.004c0.385-0.537,0.426-1.152,0.399-1.551c0.819-0.121,1.426-0.44,1.808-0.951
    c0.358-0.478,0.426-1.013,0.422-1.369c0.689-0.104,1.256-0.411,1.688-0.916c0.892-1.036,0.937-2.613,0.913-3.271
    c0.234-0.112,0.464-0.313,0.676-0.59c0.518-0.676,0.96-1.891,0.813-2.907c-0.25-1.713-0.256-3.234-0.02-4.521
    c0.229-1.244-0.689-3.615-1.499-5.708c-0.344-0.887-0.668-1.725-0.829-2.299c-0.582-2.068-3.078-9.333-4.634-11.779
    c-0.901-1.418-1.418-3.207-1.917-4.937c-0.357-1.243-0.697-2.418-1.17-3.46c-1.098-2.427-1.977-6.263-1.98-6.263
    c-0.556-6.396,0.687-13.355,3.789-21.277c12.072-30.797,8.407-50.359,6.438-60.871l-0.196-1.055
    c-1.777-9.596-2.482-17.766-0.508-28.824c0.533-2.984,1.699-6.465,3.175-10.867c3.755-11.201,9.429-28.126,11.437-57.244
    c1.785-25.869-3.778-35.75-8.688-44.468c-2.771-4.917-5.385-9.561-6.3-16.567c-1.709-13.062,1.579-28.757,3.692-36.968
    c0.056-0.266,0.488-2.41,0.992-5.413c0.422,1.229,1.053,2.314,1.205,2.567c1.473,6.098,4.125,14.688,6.49,19.204
    c1.139,2.167,1.446,4.458,1.807,7.113c0.683,5.031,1.526,11.292,8.994,19.139c4.293,4.273,11.031,15.589,14.271,21.028
    c0.926,1.554,1.536,2.58,1.76,2.89c0.122,0.206,1.009,2.47,1.126,5.768c0.13,3.646,2.003,7.107,2.618,8.246
    c0.788,1.457,3.047,9.523,2.937,10.866c-0.16,1.88-0.119,5.111,1.963,5.644c0.506,0.131,0.846-0.036,1.041-0.196
    c0.875-0.718,0.758-2.853,0.646-4.918c-0.031-0.574-0.062-1.113-0.062-1.558c0-0.568-0.029-1.218-0.06-1.867
    c-0.049-1.086-0.128-2.853,0.086-3.301c0.636,0.678,2.138,4.832,2.874,6.875c0.355,0.988,0.66,1.824,0.854,2.295
    c0.162,0.392,0.293,0.806,0.422,1.209c0.443,1.387,0.941,2.943,2.625,2.943c0.125,0,0.259-0.01,0.396-0.027
    c0.42-0.054,0.743-0.256,0.938-0.584c0.639-1.069-0.227-3.311-0.985-5.287c-0.271-0.701-0.524-1.365-0.647-1.825
    c-0.15-0.576-0.447-1.431-0.76-2.333c-0.466-1.342-1.299-3.747-1.262-4.461c0.998,0.677,4.132,5.841,5.193,7.593
    c0.264,0.433,0.478,0.784,0.621,1.019c0.129,0.207,0.261,0.426,0.395,0.649c0.936,1.576,2.09,3.535,4.225,3.301
    c0.348-0.038,0.613-0.222,0.754-0.518c0.189-0.406,0.771-1.644-4.269-9.3c-0.892-1.354-2.249-4.545-2.267-5.432
    c0.761,0.49,2.934,3.039,4.272,4.611c1.128,1.32,2.101,2.463,2.625,2.941c0.679,0.621,1.296,0.908,1.897,0.86
    c0.703-0.047,1.187-0.534,1.484-0.896c0.475-0.568-0.367-1.905-3.726-6.545c-1.363-1.883-2.771-3.833-3.351-4.922
    c-1.104-2.084-1.351-4.895-1.188-5.73C237.502,216.666,242.252,219.491,244.288,218.554z M132.378,470.149
    c0.06-0.301,0.302-0.774,0.536-1.235c0.398-0.786,0.743-1.466,0.609-1.918c0.006-0.028,0.076-0.139,0.306-0.285
    c0.224-0.142,0.483-0.242,0.692-0.299c-0.129,0.315-0.385,0.889-0.896,1.921l-0.219,0.447c-0.332,0.677-0.688,1.403-0.957,2.148
    c-0.001-0.004-0.001-0.008-0.002-0.011C132.4,470.608,132.352,470.285,132.378,470.149z M167.695,470.921
    c0,0.003-0.002,0.006-0.002,0.009c-0.271-0.745-0.625-1.472-0.957-2.147l-0.219-0.447c-0.514-1.031-0.77-1.604-0.896-1.92
    c0.208,0.056,0.468,0.156,0.691,0.297c0.229,0.146,0.299,0.257,0.308,0.266c-0.136,0.475,0.209,1.151,0.606,1.938
    c0.232,0.462,0.476,0.938,0.535,1.237C167.792,470.285,167.743,470.608,167.695,470.921z"/>
    </svg>