<!-- *ngIf="isFront && !isWoman" -->
<!-- style="padding-top: 4.50pt; padding-bottom: 4.50pt;" -->
<svg version="1.1" xmlns="http://www.w3.org/2000/svg" xmlns:xlink="http://www.w3.org/1999/xlink" x="0px" y="0px" 
     viewBox="39.765 24.983 218.867 450.046"
      enable-background="new 39.765 24.983 218.867 450.046" xml:space="preserve">
    <path fill="#494949" d="M257.616,236.521c0.858-0.394,1.026-0.909,1.015-1.271c-0.033-1.107-1.751-2.059-2.76-2.447
    c-0.896-0.345-2.436-1.734-3.921-3.078c-1.015-0.917-2.063-1.864-2.933-2.5c-2.039-1.49-7.127-2.67-7.938-2.851
    c-6.487-6.208-11.595-15.248-15.181-26.871c-0.985-3.191-2.111-6.27-3.346-9.149c-2.984-6.952-6.063-11.561-8.535-15.264
    c-2.553-3.819-4.236-6.342-4.236-9.096c0-3.881-1.51-14.77-3.106-26.298c-1.133-8.172-2.304-16.623-2.929-22.599
    c-0.775-4.027-3.65-9.551-12.946-13c-1.731-0.642-3.442-1.262-5.118-1.869c-12.746-4.614-23.754-8.599-23.754-15.765v-9.671
    c0.803-0.65,4.373-3.919,4.672-10.774c0.791-0.4,3.239-2.072,3.457-7.494c0.024-0.646,0.055-1.243,0.08-1.794
    c0.146-3.063,0.219-4.601-0.615-5.065c-0.543-0.302-1.275-0.029-2.246,0.58c0.162-2.671,0.463-11.643-2.315-16.457
    c-3.474-6.007-8.464-8.805-15.713-8.805s-12.243,2.798-15.713,8.805c-2.782,4.814-2.479,13.786-2.318,16.457
    c-0.967-0.608-1.698-0.882-2.245-0.58c-0.834,0.464-0.761,2.002-0.615,5.065c0.026,0.551,0.055,1.148,0.081,1.794
    c0.217,5.422,2.667,7.094,3.457,7.494c0.297,6.855,3.869,10.125,4.67,10.774v9.671c0,7.108-10.979,11.069-23.69,15.654
    c-1.779,0.642-3.598,1.298-5.434,1.979c-9.299,3.45-12.174,8.977-12.953,13.037c-0.604,5.791-1.708,13.992-2.777,21.923
    c-1.592,11.82-3.096,22.984-3.096,26.937c0,2.754-1.685,5.277-4.235,9.096c-2.474,3.704-5.552,8.313-8.535,15.264
    c-1.232,2.87-2.358,5.949-3.346,9.15c-3.585,11.622-8.693,20.662-15.181,26.871c-0.812,0.181-5.899,1.36-7.94,2.851
    c-0.868,0.635-1.917,1.583-2.93,2.499c-1.487,1.344-3.024,2.733-3.922,3.079c-1.009,0.388-2.725,1.34-2.76,2.447
    c-0.012,0.362,0.155,0.877,1.015,1.271c2.086,0.957,6.945-1.941,8.057-2.636c0.169,0.845-0.078,3.724-1.21,5.863
    c-0.589,1.113-2.028,3.102-3.42,5.025c-3.425,4.732-4.284,6.096-3.803,6.672c0.308,0.369,0.798,0.865,1.514,0.914
    c0.615,0.048,1.243-0.246,1.934-0.879c0.535-0.488,1.527-1.651,2.676-3c1.415-1.659,3.737-4.383,4.375-4.757
    c0.041,0.827-1.386,4.188-2.349,5.654c-5.104,7.762-4.514,9.02-4.319,9.434c0.14,0.299,0.412,0.483,0.764,0.522
    c2.167,0.249,3.353-1.76,4.306-3.367c0.136-0.229,0.269-0.452,0.4-0.663c0.149-0.238,0.368-0.6,0.637-1.042
    c1.096-1.806,4.348-7.165,5.311-7.767c0.058,0.702-0.807,3.199-1.286,4.583c-0.319,0.92-0.62,1.789-0.775,2.375
    c-0.125,0.471-0.386,1.147-0.663,1.864c-0.776,2.018-1.656,4.303-1.008,5.391c0.199,0.334,0.529,0.54,0.954,0.595
    c2.05,0.271,2.592-1.452,3.077-2.971c0.132-0.414,0.267-0.836,0.432-1.235c0.198-0.479,0.507-1.332,0.871-2.342
    c0.757-2.095,2.298-6.356,2.941-7.027c0.224,0.443,0.143,2.264,0.093,3.378c-0.03,0.664-0.06,1.326-0.06,1.908
    c0,0.451-0.03,1.002-0.062,1.59c-0.115,2.104-0.234,4.283,0.656,5.015c0.198,0.161,0.544,0.325,1.057,0.198
    c2.12-0.543,2.164-3.838,2.001-5.754c-0.116-1.371,2.19-9.605,2.994-11.096c0.628-1.162,2.54-4.697,2.672-8.414
    c0.121-3.372,1.025-5.681,1.143-5.879c0.187-0.26,1.243-1.598,2.84-3.622c7.449-9.438,24.895-31.543,27.121-36.401
    c1.468-3.203,2.023-5.085,2.667-7.265c0.552-1.871,1.177-3.992,2.53-7.459c0.056-0.239,4.621-19.809,6.045-32.26
    c0.535,8.959,1.834,25.08,4.693,37.185c0.043,0.147,4.34,14.861,1.723,24.076c-2.739,9.64-11.846,69.582-3.195,94.308
    c6.024,17.221,6.388,30.591,5.163,35.375c-1.256,4.918-2.087,9.219-2.541,13.147c-0.965,8.375-0.262,17.068,2.091,25.839
    c0.691,2.57,1.557,5.326,2.645,8.422c3.394,9.652,5.679,19.354,6.986,29.66c0.39,3.077,0.698,6.125,0.917,9.058
    c0.147,1.954,0.248,3.711-0.005,5.399c-0.007,0.037-0.694,3.797-1.654,6.195c-0.412,1.031-0.69,2.187-0.983,3.406
    c-0.408,1.694-0.83,3.449-1.641,4.857c-1.404,2.441-3.507,9.587-3.98,11.614c-0.131,0.563-0.409,1.389-0.704,2.262
    c-0.695,2.063-1.482,4.402-1.206,5.604c0.284,1.233,0.344,2.705,0.177,4.374c-0.099,0.996,0.386,2.158,0.916,2.791
    c0.216,0.258,0.446,0.439,0.678,0.543c0.006,0.645,0.123,2.166,1.029,3.132c0.44,0.469,1.001,0.742,1.671,0.816
    c0.013,0.349,0.105,0.857,0.47,1.305c0.392,0.479,0.993,0.763,1.79,0.847c-0.008,0.391,0.061,0.979,0.456,1.48
    c0.445,0.563,1.169,0.859,2.155,0.884c0.765,0.023,1.331-0.178,1.674-0.58c0.46,1.021,1.986,1.23,2.707,1.329
    c0.157,0.021,0.307,0.031,0.451,0.031c1.214,0,1.959-0.729,2.582-1.535c0.888-1.148,1.822-2.542,2.01-4.161
    c0.038-0.331,0.056-0.664,0.074-0.997c0.037-0.705,0.073-1.371,0.303-2.002c0.173-0.476,0.441-0.904,0.726-1.358
    c0.23-0.366,0.469-0.747,0.657-1.162c0.663-1.46,0.708-3.458,0.151-6.684c-0.576-3.321,0.37-13.091,0.803-17.138
    c0.091-0.852,0.211-1.752,0.333-2.673c0.63-4.744,1.345-10.12-1.495-11.595c-0.474-0.337-1.129-0.973-1.128-1.291
    c0-10.271,1.771-30.876,4.061-42.077c0.024-0.221,2.383-22.318-1.646-42.703c-2.95-14.936-0.657-29.981,0.86-39.939
    c0.586-3.85,1.05-6.891,1.117-9.113c0.029-0.971,0.729-23.539,2.218-35.615c0.068,0.043,0.133,0.088,0.205,0.127
    c1.807,0.977,4.192,1.012,5.994-0.002c0.094-0.053,0.18-0.108,0.266-0.166c1.321,10.662,1.982,29.925,2.157,35.654
    c0.067,2.226,0.53,5.267,1.116,9.114c1.519,9.958,3.812,25.007,0.861,39.94c-4.029,20.384-1.731,42.481-1.703,42.738
    c2.285,11.17,4.058,31.771,4.058,42.044c0.001,0.314-0.655,0.951-1.086,1.264c-2.882,1.499-2.168,6.874-1.539,11.616
    c0.123,0.923,0.243,1.825,0.334,2.677c0.433,4.047,1.379,13.815,0.804,17.138c-0.559,3.227-0.513,5.225,0.151,6.685
    c0.188,0.412,0.426,0.793,0.655,1.159c0.283,0.454,0.553,0.886,0.727,1.36c0.229,0.63,0.266,1.295,0.303,1.999
    c0.018,0.334,0.036,0.668,0.074,1.001c0.189,1.621,1.122,3.014,2.01,4.16c0.695,0.9,1.547,1.709,3.033,1.504
    c0.721-0.099,2.246-0.308,2.706-1.33c0.345,0.403,0.901,0.609,1.674,0.581c0.984-0.021,1.71-0.319,2.154-0.884
    c0.396-0.501,0.465-1.092,0.457-1.48c0.796-0.084,1.396-0.366,1.789-0.846c0.364-0.446,0.456-0.957,0.471-1.306
    c0.67-0.074,1.229-0.35,1.67-0.816c0.905-0.965,1.022-2.485,1.029-3.132c0.231-0.103,0.461-0.284,0.678-0.543
    c0.53-0.633,1.015-1.795,0.915-2.791c-0.166-1.67-0.105-3.143,0.178-4.374c0.276-1.199-0.51-3.537-1.205-5.601
    c-0.293-0.873-0.572-1.699-0.703-2.266c-0.474-2.026-2.575-9.171-3.979-11.614c-0.813-1.409-1.232-3.164-1.645-4.859
    c-0.293-1.222-0.569-2.373-0.981-3.403c-0.959-2.398-1.646-6.159-1.649-6.186c-0.254-1.697-0.154-3.456-0.008-5.413
    c0.223-2.955,0.53-6.004,0.918-9.057c1.307-10.306,3.592-20.007,6.985-29.66c1.09-3.103,1.955-5.856,2.646-8.425
    c2.385-8.877,3.107-17.569,2.153-25.836c-0.454-3.938-1.284-8.237-2.541-13.147c-1.225-4.784-0.858-18.154,5.163-35.375
    c8.65-24.728-0.456-84.667-3.193-94.309c-2.617-9.211,1.68-23.928,1.729-24.096c2.854-12.089,4.152-28.206,4.688-37.164
    c1.426,12.452,5.992,32.029,6.063,32.31c1.337,3.418,1.963,5.54,2.515,7.411c0.645,2.179,1.198,4.061,2.666,7.263
    c2.227,4.854,19.666,26.955,27.113,36.392c1.604,2.03,2.659,3.371,2.84,3.621c0.125,0.209,1.03,2.518,1.149,5.89
    c0.134,3.712,2.043,7.25,2.672,8.414c0.805,1.487,3.11,9.723,2.993,11.096c-0.161,1.916-0.116,5.211,2,5.754
    c0.518,0.127,0.859-0.037,1.06-0.199c0.892-0.73,0.771-2.909,0.656-5.016c-0.032-0.586-0.063-1.138-0.063-1.588
    c0-0.582-0.027-1.244-0.059-1.908c-0.05-1.115-0.132-2.937,0.092-3.379c0.645,0.671,2.186,4.931,2.939,7.024
    c0.365,1.01,0.675,1.863,0.871,2.344c0.166,0.399,0.302,0.821,0.435,1.235c0.483,1.519,1.037,3.239,3.077,2.972
    c0.425-0.055,0.754-0.261,0.952-0.595c0.647-1.088-0.23-3.373-1.009-5.39c-0.274-0.717-0.537-1.396-0.662-1.865
    c-0.154-0.588-0.457-1.459-0.775-2.383c-0.477-1.375-1.332-3.848-1.285-4.564c1.012,0.668,4.227,5.965,5.313,7.758
    c0.269,0.441,0.486,0.803,0.637,1.041c0.132,0.211,0.264,0.436,0.398,0.663c0.953,1.606,2.145,3.616,4.307,3.365
    c0.354-0.039,0.624-0.226,0.764-0.524c0.194-0.412,0.785-1.67-4.354-9.485c-0.914-1.391-2.309-4.668-2.313-5.559
    c0.769,0.486,2.999,3.103,4.373,4.714c1.147,1.349,2.144,2.513,2.681,3.001c0.688,0.631,1.301,0.908,1.935,0.877
    c0.715-0.049,1.204-0.545,1.513-0.914c0.48-0.574-0.379-1.938-3.804-6.67c-1.392-1.923-2.83-3.912-3.421-5.025
    c-1.131-2.139-1.379-5.018-1.209-5.863C250.67,234.58,255.527,237.476,257.616,236.521z M131.42,471.129
    c-0.054-0.273-0.111-0.575-0.092-0.7c0.044-0.291,0.258-0.762,0.464-1.218c0.354-0.781,0.659-1.456,0.509-1.888
    c0.036-0.185,0.531-0.465,0.909-0.594c-0.112,0.313-0.335,0.872-0.775,1.87l-0.197,0.453
    C131.953,469.711,131.646,470.413,131.42,471.129z M166.909,471.129c-0.226-0.716-0.531-1.418-0.816-2.073l-0.183-0.418
    c-0.452-1.02-0.678-1.591-0.791-1.906c0.379,0.127,0.873,0.402,0.91,0.568c-0.15,0.455,0.154,1.129,0.507,1.909
    c0.207,0.457,0.42,0.929,0.465,1.22C167.021,470.554,166.963,470.854,166.909,471.129z" />
    
    <path fill="#F1DBCB" d="M163.46,335.6c0,0,0.01,0,0.021,0.011v0.01C163.47,335.6,163.46,335.6,163.46,335.6z" />
    
    <path fill="#F1DBCB" d="M163.53,335.68c0.04,0.051,0.1,0.141,0.189,0.23C163.62,335.82,163.57,335.73,163.53,335.68z" />
    
    <path fill="#F1DBCB" d="M172.21,335.59c0,0-0.01,0.01-0.03,0.021c-0.02,0-0.069,0.01-0.13,0.01
    C172.15,335.6,172.21,335.59,172.21,335.59z" />
    
    <path fill="#F1DBCB" d="M134.16,335.59v0.01c-0.01,0-0.01,0-0.02,0C134.15,335.6,134.16,335.59,134.16,335.59z" />
    
    <path fill="#F1DBCB" d="M142.957,106.167c-0.034-0.022-0.311-0.222-0.759-0.557c-0.251-0.162-0.549-0.369-0.901-0.591
    c-0.357-0.212-0.756-0.456-1.207-0.689c-0.222-0.126-0.46-0.239-0.709-0.355c-0.123-0.059-0.249-0.121-0.377-0.182
    c-0.128-0.057-0.261-0.113-0.394-0.172c-0.267-0.116-0.54-0.236-0.828-0.337c-0.285-0.108-0.573-0.227-0.874-0.325
    c-0.15-0.052-0.301-0.104-0.453-0.155c-0.155-0.049-0.311-0.096-0.466-0.143c-0.311-0.099-0.63-0.185-0.95-0.273
    c-0.644-0.18-1.303-0.323-1.969-0.458c-0.662-0.133-1.33-0.251-1.992-0.343c-0.662-0.091-1.315-0.175-1.95-0.234
    c-0.634-0.057-1.249-0.108-1.835-0.14c-0.584-0.032-1.139-0.057-1.65-0.072c-2.047-0.052-3.424,0.018-3.424,0.018
    s0.335-0.079,0.932-0.172c0.596-0.094,1.453-0.205,2.484-0.266c0.518-0.032,1.079-0.057,1.673-0.057
    c0.594-0.005,1.222,0.002,1.869,0.044c0.323,0.02,0.652,0.037,0.985,0.069c0.335,0.024,0.67,0.059,1.01,0.104
    c0.678,0.083,1.362,0.197,2.044,0.325c0.68,0.146,1.357,0.303,2.015,0.495c0.163,0.049,0.328,0.096,0.49,0.143
    c0.163,0.052,0.32,0.108,0.48,0.163c0.157,0.057,0.315,0.111,0.473,0.165c0.153,0.059,0.309,0.118,0.458,0.177
    c0.306,0.116,0.602,0.241,0.887,0.375c0.288,0.123,0.562,0.263,0.828,0.401c0.269,0.13,0.524,0.271,0.766,0.416
    c0.244,0.141,0.478,0.278,0.692,0.426c0.217,0.145,0.431,0.271,0.618,0.416c0.189,0.143,0.369,0.281,0.536,0.407
    c0.333,0.261,0.604,0.512,0.83,0.709C142.693,105.896,142.929,106.138,142.957,106.167z" />
    
    <path fill="#F1DBCB" d="M174.107,101.158c0,0-1.375-0.069-3.424-0.018c-0.514,0.015-1.066,0.04-1.649,0.072
    c-0.587,0.032-1.2,0.083-1.835,0.14c-0.637,0.059-1.288,0.143-1.948,0.234c-0.663,0.091-1.33,0.209-1.995,0.343
    c-0.663,0.135-1.324,0.278-1.966,0.458c-0.322,0.088-0.642,0.175-0.953,0.273c-0.155,0.047-0.312,0.093-0.463,0.143
    c-0.151,0.052-0.306,0.104-0.453,0.155c-0.303,0.099-0.591,0.217-0.877,0.325c-0.288,0.101-0.562,0.222-0.827,0.337
    c-0.133,0.059-0.264,0.116-0.395,0.172c-0.129,0.062-0.252,0.123-0.374,0.182c-0.249,0.116-0.488,0.229-0.71,0.355
    c-0.453,0.234-0.853,0.478-1.209,0.689c-0.35,0.222-0.647,0.429-0.901,0.591c-0.448,0.335-0.722,0.535-0.756,0.557
    c0.026-0.029,0.261-0.271,0.665-0.67c0.229-0.197,0.497-0.448,0.83-0.709c0.17-0.126,0.347-0.264,0.535-0.407
    c0.189-0.145,0.404-0.271,0.619-0.416c0.217-0.148,0.451-0.286,0.69-0.426c0.244-0.145,0.498-0.286,0.769-0.416
    c0.266-0.138,0.539-0.278,0.826-0.401c0.285-0.133,0.582-0.259,0.887-0.375c0.152-0.059,0.307-0.118,0.461-0.177
    c0.156-0.054,0.313-0.108,0.474-0.165c0.157-0.054,0.317-0.111,0.478-0.163c0.164-0.047,0.328-0.094,0.494-0.143
    c0.653-0.192,1.332-0.35,2.012-0.495c0.684-0.128,1.367-0.241,2.048-0.325c0.337-0.044,0.675-0.079,1.008-0.104
    c0.332-0.032,0.662-0.049,0.983-0.069c0.647-0.042,1.275-0.049,1.869-0.044c0.594,0,1.154,0.024,1.672,0.057
    c1.035,0.063,1.891,0.172,2.485,0.266C173.771,101.079,174.107,101.158,174.107,101.158z" />
    
    <path fill="#F1DBCB" d="M141.657,54.001c0,0.746-0.608,1.354-1.354,1.354c-0.746,0-1.355-0.608-1.355-1.354
    c0-0.19,0.04-0.377,0.116-0.547c0.133-0.029,0.267-0.052,0.401-0.071c0.076-0.012,0.155-0.017,0.231-0.02
    c-0.162,0.158-0.263,0.377-0.263,0.621c0,0.48,0.389,0.869,0.866,0.869c0.155,0,0.296-0.037,0.416-0.104
    c-0.238-0.062-0.416-0.276-0.416-0.534c0-0.303,0.246-0.549,0.552-0.549c0.105,0,0.205,0.027,0.288,0.082
    c-0.034-0.116-0.094-0.222-0.167-0.313c0.113,0.02,0.229,0.037,0.342,0.057c0.089,0.01,0.175,0.029,0.262,0.052
    C141.629,53.691,141.657,53.846,141.657,54.001z" />
    
    
    <path fill="#F1DBCB" d="M158.801,54.001c0,0.746-0.607,1.354-1.354,1.354c-0.747,0-1.354-0.608-1.354-1.354
    c0-0.155,0.029-0.311,0.081-0.458c0.086-0.022,0.172-0.042,0.262-0.052c0.131-0.022,0.258-0.042,0.391-0.064
    c-0.299,0.34-0.288,0.859,0.035,1.185c0.283,0.281,0.709,0.33,1.039,0.143c-0.096-0.02-0.188-0.069-0.26-0.143
    c-0.216-0.217-0.216-0.564,0-0.778c0.182-0.182,0.457-0.209,0.668-0.084c-0.035-0.133-0.108-0.258-0.219-0.367
    c-0.005-0.007-0.015-0.012-0.02-0.02c0.07,0.005,0.143,0.008,0.214,0.02c0.136,0.02,0.271,0.042,0.401,0.071
    C158.762,53.625,158.801,53.812,158.801,54.001z" />
    
    
    <path fill="#F1DBCB" d="M159.544,75.833c-0.015,0.017-0.076,0.089-0.183,0.212c-0.125,0.135-0.303,0.34-0.547,0.586
    c-0.238,0.247-0.535,0.547-0.891,0.87c-0.175,0.165-0.363,0.337-0.566,0.515c-0.203,0.18-0.42,0.362-0.653,0.547
    c-0.229,0.189-0.472,0.384-0.729,0.574c-0.254,0.195-0.521,0.389-0.809,0.576c-0.279,0.195-0.57,0.392-0.882,0.574
    c-0.154,0.091-0.31,0.187-0.468,0.281c-0.162,0.086-0.325,0.175-0.492,0.261c-0.165,0.086-0.33,0.178-0.502,0.261
    c-0.176,0.079-0.352,0.158-0.527,0.236c-0.348,0.17-0.725,0.293-1.102,0.421l-0.283,0.099l-0.299,0.074
    c-0.198,0.049-0.397,0.099-0.598,0.148c-0.204,0.054-0.392,0.062-0.588,0.093l-0.291,0.04l-0.146,0.02l-0.074,0.01l-0.029,0.005
    h-0.069c-0.832,0.044-1.659-0.074-2.433-0.286c-0.776-0.209-1.495-0.537-2.163-0.884c-0.667-0.35-1.272-0.749-1.827-1.148
    c-0.557-0.401-1.054-0.813-1.497-1.207c-0.892-0.788-1.564-1.515-2.016-2.037c-0.423-0.49-0.652-0.8-0.68-0.837
    c0.032,0.029,0.309,0.303,0.786,0.736c0.507,0.46,1.246,1.104,2.175,1.811c0.934,0.702,2.059,1.473,3.354,2.103
    c0.646,0.315,1.338,0.584,2.054,0.776c0.717,0.188,1.466,0.283,2.202,0.236h0.052l0.008-0.002l0.062-0.007l0.146-0.017l0.293-0.037
    l0.29-0.037c0.099-0.013,0.197-0.022,0.283-0.049c0.18-0.042,0.357-0.086,0.537-0.128l0.269-0.062l0.266-0.091
    c0.354-0.121,0.711-0.227,1.051-0.377c0.175-0.069,0.345-0.138,0.515-0.207c0.167-0.074,0.327-0.158,0.492-0.236
    c0.159-0.079,0.321-0.158,0.481-0.234c0.154-0.086,0.312-0.17,0.463-0.254c0.313-0.16,0.604-0.335,0.891-0.51
    c0.288-0.167,0.561-0.347,0.822-0.52c0.269-0.165,0.518-0.337,0.759-0.505c0.241-0.163,0.469-0.33,0.683-0.488
    c0.221-0.155,0.422-0.306,0.61-0.453c0.38-0.286,0.707-0.544,0.974-0.761C159.217,76.119,159.51,75.865,159.544,75.833z" />
    
    <path fill="#F1DBCB" d="M145.8,64.47c-0.08-0.06-0.1-0.12-0.05-0.16C145.71,64.35,145.73,64.41,145.8,64.47z" />
    
    <path fill="#F1DBCB" d="M145.4,71.94c0.07,0.08,0.14,0.16,0.22,0.24c-0.07-0.08-0.14-0.16-0.21-0.24H145.4z M145.03,72.27
    c0.11,0.13,0.23,0.26,0.36,0.39c-0.13-0.14-0.24-0.27-0.35-0.39H145.03z M140.66,69.98l1.83,0.78l-1.82-0.78H140.66z" />
    <g>
    <path fill="#F1DBCB" d="M249.75,233.12c1.14,0.79,5.94,3.47,7.56,2.72c0.271-0.12,0.591-0.32,0.58-0.58
    c-0.01-0.49-1.06-1.3-2.279-1.78c-1.03-0.39-2.551-1.76-4.15-3.21c-1-0.91-2.04-1.84-2.88-2.46c-2.04-1.49-7.7-2.73-7.76-2.75
    l-0.101-0.02l-0.08-0.07c-6.609-6.3-11.81-15.47-15.449-27.26c-0.98-3.17-2.091-6.22-3.32-9.07c-2.95-6.89-6.01-11.47-8.47-15.15
    c-2.53-3.79-4.36-6.53-4.36-9.5c0-3.83-1.5-14.69-3.09-26.19c-1.141-8.17-2.311-16.63-2.931-22.59
    c-0.739-3.83-3.52-9.1-12.479-12.43c-1.73-0.64-3.45-1.26-5.11-1.86c-13.01-4.71-24.239-8.78-24.239-16.46V74.42l0.149-0.11
    c0.04-0.04,4.29-3.21,4.53-10.55l0.01-0.26l0.24-0.08c0.02-0.01,2.97-1.14,3.2-6.93c0.02-0.65,0.05-1.25,0.08-1.8
    c0.109-2.32,0.199-4.14-0.24-4.38c-0.18-0.1-0.69-0.02-2.101,0.96l-0.64,0.44l0.061-0.78c0.01-0.12,0.939-11.4-2.171-16.78
    c-3.319-5.75-8.109-8.44-15.069-8.44c-6.96,0-11.75,2.69-15.07,8.44c-3.11,5.38-2.18,16.66-2.17,16.78l0.06,0.78l-0.64-0.44
    c-1.41-0.98-1.92-1.06-2.1-0.96c-0.43,0.24-0.34,2.06-0.23,4.38c0.02,0.55,0.05,1.15,0.08,1.8c0.23,5.79,3.17,6.92,3.2,6.93
    l0.24,0.09l0.01,0.25c0.23,7.34,4.48,10.51,4.52,10.55l0.15,0.11v10.04c0,7.62-11.2,11.66-24.17,16.35
    c-1.77,0.63-3.6,1.29-5.43,1.97c-8.96,3.33-11.73,8.6-12.48,12.44c-0.6,5.8-1.71,14-2.78,21.94c-1.52,11.27-3.09,22.92-3.09,26.83
    c0,2.98-1.82,5.72-4.36,9.51c-2.45,3.67-5.51,8.25-8.47,15.14c-1.22,2.85-2.34,5.9-3.31,9.08c-3.64,11.78-8.84,20.95-15.46,27.26
    l-0.07,0.07l-0.1,0.02c-0.06,0.01-5.72,1.25-7.76,2.75c-0.84,0.61-1.88,1.55-2.88,2.45c-1.6,1.45-3.12,2.82-4.15,3.22
    c-1.22,0.47-2.27,1.28-2.28,1.78c-0.01,0.25,0.31,0.45,0.58,0.57c1.62,0.75,6.42-1.93,7.56-2.71c0.21-0.15,0.45-0.13,0.63,0.03
    c0.7,0.62,0.28,4.51-1,6.93c-0.61,1.16-2,3.08-3.47,5.11c-1.58,2.18-3.73,5.15-3.79,5.819c0.33,0.391,0.63,0.57,0.95,0.601
    c0.39,0.02,0.86-0.21,1.38-0.69c0.51-0.459,1.53-1.66,2.62-2.93c3.39-3.99,4.55-5.2,5.19-5.04c0.19,0.05,0.34,0.18,0.41,0.37
    c0.44,1.12-1.71,5.4-2.36,6.39l-0.04,0.06c-4.52,6.88-4.41,8.411-4.26,8.71c0.02,0.05,0.05,0.09,0.17,0.1
    c1.196,0.135,2.081-0.735,2.723-1.632c1.63-2.276,2.93-4.834,4.455-7.187c0.783-1.207,1.575-2.604,2.677-3.56
    c0.172-0.149,0.565-0.512,0.815-0.512c0.2,0,0.37,0.09,0.48,0.24c0.42,0.59-0.05,2.16-1.17,5.37
    c-0.59,1.735-1.157,3.472-1.794,5.19c-0.367,0.991-1.239,2.765-0.706,3.82c0.05,0.1,0.15,0.21,0.41,0.239
    c1.627,0.184,1.966-1.544,2.413-2.729c0.836-2.217,1.58-4.469,2.419-6.685c0.46-1.215,0.878-2.778,1.748-3.785
    c0.139-0.161,0.383-0.422,0.621-0.432c0.18-0.01,0.36,0.06,0.49,0.2c0.668,0.718,0.43,2.219,0.399,3.094
    c-0.063,1.748-0.131,3.496-0.2,5.244c-0.031,0.801-0.367,3.009,0.431,3.572c0.07,0.05,0.18,0.11,0.4,0.05
    c1.7-0.43,1.54-3.92,1.45-4.97c-0.13-1.49,2.22-9.93,3.08-11.51c0.61-1.13,2.46-4.55,2.58-8.09c0.13-3.5,1.09-6.01,1.29-6.28
    c0.19-0.28,1.2-1.55,2.86-3.65c6.79-8.61,24.84-31.48,27.02-36.25c1.45-3.16,2-5.02,2.63-7.17c0.56-1.88,1.19-4.01,2.53-7.44
    c0.23-0.98,6.44-27.74,6.44-38.07c0-0.25-0.01-0.5-0.01-0.73c0,0,0.74-0.02,0.74,0c0.02,0.9,0.92,26.45,4.99,43.72
    c0.18,0.59,4.4,15.05,1.72,24.47c-1.51,5.34-4.41,22.73-5.89,41.51c-1.32,16.62-1.92,39.18,2.68,52.351
    c5.7,16.27,6.68,29.97,5.19,35.81c-1.25,4.88-2.08,9.15-2.52,13.05c-0.96,8.28-0.27,16.88,2.06,25.561
    c0.69,2.55,1.55,5.29,2.63,8.369c3.42,9.7,5.71,19.45,7.03,29.811c0.39,3.08,0.7,6.14,0.92,9.1c0.15,2,0.25,3.801-0.02,5.57
    c-0.03,0.17-0.7,3.88-1.69,6.35c-0.4,0.98-0.67,2.11-0.95,3.311c-0.42,1.75-0.86,3.55-1.72,5.05c-1.37,2.38-3.44,9.42-3.91,11.42
    c-0.13,0.59-0.42,1.44-0.72,2.33c-0.63,1.87-1.41,4.2-1.18,5.2c0.3,1.33,0.37,2.84,0.19,4.609c-0.07,0.69,0.25,1.65,0.75,2.24
    c0.07,0.101,0.15,0.17,0.23,0.23c-0.2-0.15,0.86-1.4,0.99-1.58c0.11-0.15,0.22-0.271,0.32-0.38c0.13-0.13,0.23-0.24,0.28-0.29
    c-0.03,0.06-0.1,0.2-0.19,0.359c-0.71,1.32-1.02,2.931-0.51,4.37c0.12,0.34,0.31,0.681,0.55,0.94c0.33,0.35,0.73,0.54,1.24,0.59
    c0.01-0.03,0.02-0.06,0.04-0.1c0.49-0.971,0.95-1.891,1.71-2.69c0.25-0.25,0.51-0.49,0.79-0.71c0.08-0.05,0.15-0.09,0.2-0.13
    c0.06-0.04,0.12-0.08,0.18-0.11c-0.89,0.771-1.51,1.82-1.91,2.92c-0.12,0.33-0.22,0.66-0.31,0.99c-0.12,0.48-0.09,1.01,0.24,1.4
    c0.26,0.31,0.85,0.64,1.26,0.569c0.2-0.029,0.26-0.26,0.32-0.409c0.09-0.25,0.19-0.5,0.29-0.75c0.43-0.971,0.97-2.011,1.76-2.74
    c0.1-0.09,0.19-0.17,0.27-0.24c0.08-0.08,0.16-0.13,0.23-0.18c0.05-0.04,0.1-0.07,0.13-0.101c-0.42,0.391-0.76,0.86-1.03,1.351
    c-0.44,0.819-0.76,1.68-1.02,2.569c-0.2,0.721-0.48,1.61,0.05,2.271c0.3,0.38,0.83,0.58,1.58,0.6c0.54,0.01,0.91-0.1,1.1-0.33
    c0.34-0.399,0.18-1.22,0.05-1.87c-0.08-0.409-0.14-0.739-0.1-1c0.06-0.39,0.28-0.89,0.52-1.409c0.14-0.311,0.29-0.62,0.39-0.94
    c0.16-0.47-0.04-0.87,0.34-1.27c0.3-0.311,0.74-0.551,1.15-0.671c0.31-0.1,1.13-0.17,1.07,0.36c-0.04,0.351-0.2,0.73-0.34,1.05
    c-0.59,1.431-1.33,2.84-1.72,4.33c-0.11,0.4-0.18,0.811-0.19,1.221c-0.02,0.859,1.1,1.13,2.2,1.279c1.06,0.15,1.66-0.34,2.35-1.22
    c0.75-0.96,1.47-2.04,1.76-3.24c0.32-1.27,0.07-2.62,0.56-3.85c0.46-1.15,1.34-2.101,1.65-3.311c0.25-0.949,0.21-2.05,0.12-3.029
    c-0.07-0.79-0.19-1.58-0.32-2.36c-0.57-3.29,0.26-12.28,0.8-17.34c0.09-0.86,0.21-1.75,0.34-2.69c0.59-4.5,1.27-9.609-1.15-10.859
    l-0.05-0.03c-0.24-0.17-1.44-1.07-1.44-1.9c0-10.3,1.78-30.96,4.07-42.17c0.08-0.72,2.33-22.43-1.63-42.47
    c-2.98-15.06-0.67-30.18,0.85-40.19c0.56-3.68,1.04-6.85,1.11-9.02c0.03-0.99,0.74-24.14,2.28-36.14
    c-0.42-0.421-0.55-0.881-0.55-1.45c0,0,0.01,0.04,0.03,0.12c0.33,1.31,2.03,1.739,3.18,1.899c1.32,0.2,2.7,0.061,3.959-0.399
    c0.601-0.221,1.23-0.591,1.53-1.181c0.03-0.06,0.06-0.12,0.08-0.17c0.02-0.06,0.03-0.109,0.04-0.149c0.02-0.08,0.03-0.12,0.03-0.12
    s0.01,0.04,0.01,0.12c0,0.05,0.01,0.09,0.01,0.149c0,0.25-0.09,0.49-0.21,0.71c-0.04,0.061-0.3,0.351-0.3,0.41
    c1.37,10.58,2.05,30.37,2.229,36.2c0.061,2.17,0.54,5.35,1.101,9.02c1.53,10.011,3.83,25.131,0.859,40.19
    c-0.71,3.59-1.199,7.2-1.579,10.83c-0.36,3.45-0.561,6.899-0.681,10.37c-0.109,3.04-0.12,6.069-0.069,9.12
    c0.039,2.38,0.119,4.75,0.27,7.12c0.1,1.689,0.19,3.35,0.42,5.02c0.35,2.63,0.89,5.22,1.26,7.85c0.41,2.9,0.771,5.811,1.08,8.73
    c0.33,3.02,0.61,6.05,0.851,9.08c0.229,2.859,0.43,5.72,0.569,8.59c0.13,2.4,0.221,4.8,0.24,7.2v0.729
    c0.01,0.83-1.189,1.73-1.43,1.9l-0.04,0.03c-0.53,0.27-1.03,1.01-1.271,1.54c-0.359,0.8-0.439,1.71-0.46,2.58
    c-0.04,2.17,0.29,4.35,0.54,6.5c0.351,2.989,0.7,5.989,0.95,8.989c0.22,2.7,0.41,5.41,0.41,8.12c0.01,1.05-0.01,2.12-0.19,3.16
    c-0.529,3.07-0.5,4.94,0.101,6.25c0.16,0.37,0.38,0.72,0.6,1.08c0.3,0.47,0.601,0.95,0.8,1.5c0.44,1.2,0.23,2.5,0.521,3.729
    c0.29,1.21,1.01,2.261,1.76,3.23c0.66,0.86,1.29,1.37,2.34,1.22c1.101-0.149,2.23-0.42,2.2-1.279c-0.02-1.181-0.59-2.48-1.09-3.641
    l-0.19-0.42c-1.08-2.43-1.01-2.58-0.92-2.76l0.07-0.15l0.18-0.06c0.5-0.15,1.49,0.29,1.92,0.74c0.34,0.359,0.311,0.68,0.25,0.84
    c-0.05,0.189,0.28,0.93,0.48,1.37c0.24,0.52,0.46,1.02,0.52,1.409c0.04,0.261-0.02,0.591-0.1,1c-0.13,0.65-0.29,1.471,0.05,1.87
    c0.19,0.23,0.561,0.34,1.1,0.32c0.75-0.01,1.29-0.21,1.591-0.6c0.699-0.881,0.069-2.23-0.24-3.141c-0.21-0.59-0.45-1.17-0.76-1.72
    c-0.2-0.35-0.49-0.88-0.841-1.19c0.69,0.521,1.211,1.24,1.641,1.99c0.18,0.311,0.35,0.63,0.5,0.93
    c0.14,0.311,0.27,0.601,0.38,0.851c0.08,0.21,0.15,0.39,0.21,0.54c0.63-0.061,1.09-0.25,1.36-0.58c0.569-0.7,0.22-1.65-0.061-2.39
    c-0.34-0.94-0.81-1.98-1.58-2.641c-0.069-0.06-0.13-0.109-0.18-0.149c-0.04-0.04-0.07-0.07-0.1-0.101
    c0.029,0.01,0.069,0.04,0.119,0.07c1.36,0.83,2.011,2.17,2.7,3.53c0.021,0.04,0.03,0.069,0.04,0.1c0.51-0.05,0.92-0.25,1.24-0.59
    c1.05-1.12,1.03-3.03,0.479-4.38c-0.069-0.17-0.149-0.34-0.22-0.5c-0.069-0.16-0.149-0.311-0.22-0.431
    c-0.12-0.22-0.21-0.38-0.23-0.409c0.03,0.029,0.15,0.159,0.32,0.34c0.1,0.109,0.21,0.229,0.32,0.38c0.37,0.479,0.79,1,0.99,1.58
    c0.069-0.061,0.149-0.13,0.229-0.23c0.83-0.97,0.73-2.09,0.67-3.279c-0.06-1.19,0.01-2.4,0.271-3.57c0.229-1-0.551-3.33-1.19-5.2
    c-0.29-0.89-0.58-1.74-0.72-2.33c-0.46-2-2.53-9.04-3.9-11.42c-0.859-1.5-1.3-3.3-1.72-5.05c-0.29-1.2-0.561-2.32-0.95-3.311
    c-0.99-2.47-1.67-6.18-1.689-6.34c-0.271-1.779-0.171-3.58-0.021-5.58c0.22-2.96,0.53-6.02,0.92-9.1
    c1.32-10.35,3.61-20.11,7.03-29.811c1.08-3.09,1.939-5.829,2.62-8.369c2.359-8.79,3.08-17.391,2.14-25.561
    c-0.45-3.91-1.28-8.18-2.52-13.05c-1.5-5.84-0.521-19.54,5.18-35.81c4.61-13.171,4-35.73,2.689-52.351
    c-1.489-18.78-4.39-36.17-5.899-41.51c-2.67-9.42,1.54-23.87,1.72-24.49c4.08-17.24,4.97-42.77,5-43.72l0.74,0.02
    c-0.32,9.73,6.189,37.8,6.43,38.8c1.34,3.43,1.971,5.56,2.521,7.44c0.64,2.16,1.18,4.02,2.63,7.17
    c2.189,4.77,20.229,27.64,27.03,36.25c1.659,2.1,2.659,3.37,2.859,3.65c0.19,0.27,1.15,2.78,1.28,6.28
    c0.13,3.54,1.97,6.97,2.58,8.09c0.859,1.58,3.21,10.02,3.08,11.51c-0.09,1.06-0.25,4.54,1.45,4.97
    c0.229,0.061,0.329,0.01,0.399-0.05c0.793-0.637,0.471-2.674,0.438-3.539c-0.065-1.736-0.141-3.473-0.205-5.209
    c-0.031-0.85-0.301-2.475,0.387-3.162c0.14-0.14,0.31-0.21,0.5-0.2c0.71,0.04,1.45,1.59,3.61,7.56
    c0.359,0.99,0.67,1.85,0.859,2.319c0.181,0.421,0.32,0.86,0.45,1.29c0.55,1.69,0.92,2.641,2.28,2.46
    c0.26-0.029,0.359-0.14,0.42-0.239c0.312-0.522,0.055-1.354-0.085-1.887c-0.218-0.828-0.523-1.628-0.819-2.43
    c-0.624-1.69-1.193-3.403-1.766-5.111c-0.422-1.258-1.013-2.605-1.129-3.939c-0.025-0.283-0.054-0.75,0.119-1.003
    c0.109-0.16,0.279-0.25,0.47-0.25c0.567,0,1.25,0.914,1.548,1.276c1.208,1.471,2.196,3.137,3.194,4.751
    c0.951,1.54,1.854,3.112,2.819,4.642c0.657,1.04,1.688,2.464,3.118,2.23c0.12-0.02,0.16-0.06,0.181-0.109
    c0.14-0.3,0.25-1.83-4.271-8.71l-0.04-0.05c-0.65-1-2.8-5.28-2.36-6.39c0.08-0.19,0.221-0.33,0.41-0.37
    c0.641-0.16,1.8,1.05,5.19,5.03c1.09,1.27,2.109,2.48,2.62,2.94c0.52,0.479,0.989,0.71,1.38,0.68c0.32-0.021,0.62-0.21,0.95-0.601
    c-0.061-0.669-2.21-3.64-3.79-5.819c-1.471-2.03-2.86-3.95-3.471-5.11c-1.279-2.41-1.699-6.31-1.01-6.93
    C249.29,232.99,249.54,232.98,249.75,233.12z M161.51,55.007c-0.056-0.04-0.107-0.078-0.146-0.113
    c-0.203-0.181-0.418-0.347-0.641-0.502c-0.48-0.334-1.015-0.627-1.572-0.812c-0.061-0.02-0.12-0.03-0.181-0.05
    c0.05,0.15,0.08,0.31,0.08,0.47c0,0.57-0.3,1.06-0.74,1.35c0.101-0.01,0.19-0.02,0.28-0.03c0.21-0.03,0.41-0.03,0.61-0.06
    c0.189-0.04,0.37-0.07,0.54-0.1c0.17-0.02,0.319-0.07,0.45-0.1c0.14-0.03,0.26-0.06,0.35-0.09c0.09-0.03,0.17-0.05,0.22-0.07
    c0.021-0.01,0.03-0.01,0.04-0.01c-0.04,0.02-0.12,0.07-0.24,0.12c-0.09,0.05-0.21,0.09-0.34,0.14
    c-1.176,0.451-2.431,0.546-3.68,0.491c-0.356-0.016-0.713-0.044-1.068-0.079c-0.52-0.052-1.03-0.16-1.542-0.262
    c-0.199-0.04-0.31-0.06-0.31-0.06s0.11,0,0.31,0.01c0.2,0.02,0.49,0.03,0.83,0.06c0.17,0.02,0.351,0.03,0.55,0.05
    c0.19,0.02,0.4,0.01,0.61,0.02c0.22,0,0.44,0.01,0.66,0.02h0.08c-0.48-0.27-0.82-0.8-0.82-1.4c0-0.12,0.021-0.25,0.05-0.38
    c-0.009,0.037-0.505,0.141-0.569,0.162c-0.212,0.071-0.418,0.157-0.619,0.253c-0.55,0.263-1.107,0.606-1.571,1.005
    c-0.14,0.12-0.25,0.2-0.31,0.25c0.179-0.15,0.313-0.413,0.482-0.585c0.917-0.935,2.109-1.539,3.403-1.741
    c0.348-0.055,0.705-0.087,1.057-0.091c1.341-0.018,2.587,0.731,3.478,1.687c0.14,0.15,0.25,0.28,0.34,0.39
    c0.11,0.16,0.189,0.27,0.22,0.33C161.752,55.185,161.624,55.091,161.51,55.007z M152.97,63.45c-0.17-1.12-0.879-2.072-1.09-3.18
    c-0.04-0.21-0.05-0.33-0.05-0.33s0.02,0.03,0.04,0.08c0.02,0.05,0.06,0.12,0.11,0.21c0.313,0.554,0.603,1.126,0.91,1.685
    c0.376,0.683,0.752,1.476,0.499,2.266c-0.29,0.941-1.348,1.479-2.25,1.66c-0.199,0.04-0.319,0.05-0.319,0.05s0.109-0.05,0.29-0.14
    c0.189-0.1,0.439-0.24,0.729-0.43c0.28-0.19,0.601-0.43,0.83-0.76C152.9,64.25,153.03,63.85,152.97,63.45z M151.79,52.02
    c0.65-0.63,1.02-1.23,2.5-1.41c0.87-0.11,1.76-0.17,2.64-0.24c0.75-0.07,1.551-0.2,2.311-0.17c0.689,0.03,1.47,0.43,2,0.72
    c0.43,0.25,1.229,0.67,1.27,1.13c0.061,0.65,0.49,0.93-0.62,0.45c0,0-1.54-1.14-4.77-0.61C153.89,52.41,151.15,52.66,151.79,52.02z
    M150.22,65.23c0,0,0.379-0.98,1.66-0.98c1.29,0-1.18,0.98-1.18,0.98C150.06,65.5,150.22,65.23,150.22,65.23z M148.117,69.632
    c0.239,0.136,0.478,0.258,0.743,0.258c0.422,0,0.781-0.338,1.163-0.475c0.714-0.255,1.41,0.016,2.048,0.344
    c0.91,0.497,2.024,0.701,3.05,0.53l1.97-0.31c-0.793,0.338-1.59,0.667-2.371,1.031c-0.939,0.438-1.84,0.97-2.499,1.789
    c-0.58,0.52-1.46,1-3.33,1h-0.03c-1.88,0-2.76-0.48-3.33-1l-0.14-0.14c-0.13-0.14-0.24-0.27-0.36-0.39
    c-0.03-0.03-0.06-0.07-0.1-0.1c-0.57-0.55-1.93-1.19-2.44-1.41l-1.82-0.78c0,0,1.958,0.31,1.96,0.31
    c0.799,0.126,1.621,0.035,2.381-0.235c0.725-0.258,1.404-0.826,2.209-0.784C147.547,69.288,147.832,69.47,148.117,69.632z
    M145.16,64.56c0.23,0.32,0.55,0.57,0.83,0.76c0.28,0.19,0.54,0.33,0.72,0.43c0.18,0.09,0.29,0.14,0.29,0.14s-0.12-0.01-0.32-0.05
    c-0.2-0.05-0.5-0.12-0.83-0.27c-0.16-0.07-0.34-0.16-0.52-0.29c-0.682-0.495-1.102-1.219-0.92-2.065
    c0.235-1.096,0.992-1.979,1.44-2.985c0.04-0.09,0.09-0.16,0.11-0.21s0.03-0.08,0.03-0.08s0,0.12-0.05,0.33
    c-0.157,0.655-0.385,1.293-0.641,1.916C144.975,62.977,144.557,63.781,145.16,64.56z M147.76,65.23c0,0,0.16,0.27-0.49,0
    c0,0-1.18-0.47-1.47-0.76c-0.07-0.06-0.09-0.12-0.05-0.16s0.15-0.06,0.35-0.06C147.38,64.25,147.76,65.23,147.76,65.23z
    M135.24,52.05c0.05-0.46,0.84-0.88,1.27-1.13c0.53-0.29,1.31-0.69,2-0.72c0.76-0.03,1.56,0.1,2.31,0.17
    c0.88,0.07,1.77,0.13,2.64,0.24c1.48,0.18,1.85,0.77,2.5,1.41c0.64,0.64-2.1,0.39-5.33-0.13s-4.77,0.61-4.77,0.61
    C134.75,52.98,135.18,52.7,135.24,52.05z M137.19,55.01c-0.12-0.05-0.2-0.1-0.24-0.12c0.01,0,0.02,0,0.04,0.01
    c0.05,0.02,0.13,0.04,0.22,0.07c0.09,0.03,0.21,0.06,0.35,0.09c0.333,0.072,0.667,0.135,1.003,0.185
    c0.16,0.023,0.32,0.044,0.48,0.061c0.085,0.009,0.327-0.009,0.396,0.034c-0.45-0.28-0.74-0.78-0.74-1.34
    c0-0.16,0.03-0.32,0.07-0.48c-0.05,0.02-0.11,0.04-0.17,0.06c-0.5,0.167-0.974,0.412-1.415,0.699
    c-0.222,0.145-0.437,0.302-0.644,0.469c-0.192,0.155-0.37,0.367-0.571,0.499c0.055-0.105,0.128-0.202,0.2-0.296
    c0.627-0.834,1.534-1.53,2.531-1.853c0.294-0.095,0.606-0.164,0.913-0.201c0.957-0.118,2.044,0.106,2.924,0.47
    c0.672,0.277,1.28,0.711,1.792,1.224c0.14,0.14,0.27,0.26,0.36,0.38c0.13,0.15,0.21,0.26,0.24,0.31c-0.06-0.04-0.17-0.13-0.31-0.24
    c-0.11-0.1-0.25-0.19-0.41-0.31c-0.363-0.272-0.75-0.515-1.161-0.709c-0.203-0.097-0.412-0.182-0.626-0.25
    c-0.051-0.017-0.555-0.118-0.563-0.15c0.03,0.12,0.04,0.25,0.04,0.38c0,0.6-0.33,1.12-0.82,1.4c0.03,0,0.06-0.01,0.09-0.01
    c0.887,0,1.766-0.097,2.65-0.14c0.2-0.01,0.31-0.02,0.31-0.02s-0.11,0.03-0.31,0.07c-1.126,0.225-2.266,0.384-3.417,0.345
    c-0.345-0.012-0.689-0.038-1.032-0.083C138.621,55.46,137.89,55.3,137.19,55.01z M134.1,335.68c-0.04,0.051-0.1,0.141-0.19,0.23
    c-1.23,1.229-3.18,1.31-4.78,1.03c-0.47-0.091-0.94-0.2-1.4-0.341c-0.67-0.21-1.35-0.46-1.96-0.8c-0.16-0.09-0.27-0.16-0.32-0.2
    c0.05,0.011,0.17,0.03,0.37,0.061c1.97,0.3,3.91,0.77,5.92,0.66c0.58-0.03,1.14-0.13,1.68-0.34c0.16-0.061,0.29-0.131,0.4-0.19
    c0.11-0.06,0.19-0.11,0.25-0.14c0.03-0.021,0.05-0.03,0.08-0.04C134.14,335.63,134.12,335.65,134.1,335.68z M141.34,152.88
    c-0.17,0.05-0.42,0.13-0.74,0.19c-0.31,0.06-0.7,0.15-1.15,0.2c-0.45,0.07-0.96,0.11-1.52,0.15c-0.28,0.01-0.57,0.02-0.87,0.03
    h-0.94c-0.32-0.01-0.65-0.02-0.98-0.03c-0.34-0.02-0.68-0.05-1.03-0.08c-0.69-0.07-1.41-0.14-2.13-0.26
    c-0.73-0.11-1.46-0.24-2.19-0.39s-1.45-0.32-2.16-0.49c-0.71-0.18-1.4-0.38-2.07-0.58c-0.67-0.19-1.31-0.4-1.91-0.6
    c-0.61-0.21-1.17-0.42-1.69-0.61c-1.04-0.39-1.89-0.76-2.48-1.03c-0.42-0.19-0.71-0.33-0.84-0.4c0.35,0.1,1.65,0.5,3.45,1.03
    c0.54,0.15,1.11,0.31,1.72,0.48c0.61,0.17,1.26,0.33,1.92,0.51c0.67,0.18,1.37,0.34,2.07,0.51c0.7,0.16,1.42,0.32,2.14,0.46
    c0.72,0.16,1.44,0.29,2.15,0.41c0.71,0.11,1.41,0.23,2.09,0.31c0.34,0.04,0.68,0.08,1.01,0.12c0.33,0.03,0.65,0.06,0.96,0.09
    c0.32,0.02,0.62,0.04,0.92,0.06c0.29,0.01,0.58,0.02,0.85,0.04c0.55,0,1.06,0.01,1.51-0.01c0.44-0.01,0.83-0.05,1.15-0.07
    c0.33-0.02,0.58-0.06,0.75-0.07c0.17-0.02,0.26-0.04,0.26-0.04S141.5,152.84,141.34,152.88z M142.85,106.09
    c-0.02-0.01-0.03-0.02-0.06-0.04c-0.13-0.1-0.33-0.25-0.59-0.44c-2.85-2.08-6.39-3.21-9.83-3.83c-1-0.18-2.02-0.31-3.04-0.41
    c-2.37-0.23-4.73-0.21-7.11-0.21c0,0,0.33-0.08,0.93-0.17c4-0.6,8.18-0.46,12.08,0.66c1.13,0.33,2.23,0.77,3.27,1.3
    c1.34,0.69,2.72,1.48,3.79,2.55l0.45,0.45c0.01,0.01,0.02,0.02,0.04,0.04c0.01,0.01,0.02,0.02,0.03,0.03
    c0.02,0.02,0.03,0.04,0.05,0.05c0.02,0.02,0.04,0.04,0.05,0.06C142.9,106.12,142.88,106.1,142.85,106.09z M152.83,81.12
    c-0.82,0.38-1.68,0.69-2.57,0.88c-1.32,0.29-2.57,0.3-3.88-0.05c-0.77-0.21-1.49-0.54-2.16-0.89c-0.66-0.35-1.27-0.74-1.83-1.14
    c-0.55-0.4-1.05-0.82-1.49-1.21c-0.9-0.79-1.57-1.52-2.02-2.04c-0.17-0.2-0.35-0.4-0.5-0.62c0.3,0.34,0.89,0.75,1.25,1.06
    c0.52,0.45,1.05,0.89,1.59,1.3c1.04,0.79,2.13,1.51,3.3,2.08c0.64,0.31,1.33,0.58,2.05,0.77c2.81,0.74,5.57-0.42,7.97-1.81
    c1.12-0.66,2.18-1.39,3.21-2.17c0.37-0.28,0.7-0.54,0.97-0.76c0.28-0.22,0.5-0.4,0.641-0.52c0.02-0.02,0.029-0.03,0.04-0.04
    c0.04-0.04,0.069-0.06,0.1-0.08c-0.03,0.04-0.08,0.09-0.13,0.16c-0.13,0.14-0.311,0.34-0.55,0.59
    C157.13,78.4,155.1,80.07,152.83,81.12z M155.03,105.02c-0.351,0.22-0.65,0.43-0.9,0.59c-0.37,0.27-0.62,0.46-0.72,0.52
    c0.01-0.01,0.03-0.03,0.04-0.05c0.01,0,0.02-0.01,0.03-0.03c0.01-0.01,0.02-0.02,0.039-0.03c0.021-0.03,0.061-0.07,0.11-0.12
    c0.021-0.01,0.03-0.03,0.05-0.05c0.101-0.1,0.221-0.22,0.36-0.35c0.22-0.2,0.49-0.45,0.83-0.71c0.17-0.13,0.34-0.27,0.53-0.41
    c0.189-0.14,0.399-0.27,0.619-0.42c0.221-0.14,0.45-0.28,0.69-0.42c0.25-0.15,0.5-0.29,0.771-0.42c0.26-0.14,0.539-0.28,0.819-0.4
    c0.29-0.13,0.59-0.26,0.891-0.37c0.149-0.06,0.31-0.12,0.46-0.18c0.159-0.05,0.319-0.11,0.479-0.17c0.15-0.05,0.311-0.11,0.48-0.16
    c0.159-0.05,0.319-0.09,0.489-0.14c0.65-0.19,1.33-0.35,2.011-0.5c0.68-0.12,1.37-0.24,2.05-0.32c0.34-0.05,0.67-0.08,1.01-0.11
    c0.33-0.03,0.66-0.04,0.98-0.06c0.649-0.05,1.27-0.05,1.869-0.05c0.591,0,1.15,0.03,1.671,0.06c1.04,0.06,1.89,0.17,2.479,0.26
    c0.6,0.1,0.94,0.18,0.94,0.18s-1.38-0.07-3.431-0.02c-0.51,0.01-1.06,0.04-1.649,0.07c-0.58,0.03-1.2,0.08-1.83,0.14
    c-0.641,0.06-1.29,0.14-1.95,0.23s-1.33,0.21-1.99,0.35c-0.67,0.13-1.33,0.27-1.97,0.45c-0.32,0.09-0.64,0.18-0.95,0.28
    c-0.16,0.04-0.31,0.09-0.46,0.14c-0.16,0.05-0.31,0.1-0.46,0.16c-0.3,0.09-0.59,0.21-0.88,0.32c-0.28,0.1-0.56,0.22-0.82,0.34
    c-0.14,0.06-0.27,0.11-0.399,0.17s-0.25,0.12-0.37,0.18c-0.25,0.12-0.49,0.23-0.71,0.36C155.79,104.56,155.39,104.81,155.03,105.02
    z M171.86,335.8c-1.73,0.98-4.33,1.71-6.29,1.13c-0.69-0.199-1.34-0.51-1.851-1.02c-0.09-0.09-0.149-0.18-0.189-0.23
    c-0.021-0.029-0.03-0.04-0.05-0.069c0.01-0.011,0.039,0.02,0.079,0.04c0.03,0.01,0.061,0.04,0.11,0.06
    c0.04,0.03,0.09,0.05,0.14,0.08c1.9,1.15,4.351,0.6,6.381,0.18c0.54-0.109,1.079-0.189,1.619-0.31
    c0.091-0.021,0.171-0.03,0.24-0.04c0.061,0,0.11-0.01,0.13-0.01C172.13,335.65,172.02,335.71,171.86,335.8z M178.27,149.38
    c-4.109,1.81-8.43,3.22-12.89,3.79c-1.3,0.17-2.6,0.27-3.899,0.28c-1.461,0.01-2.891-0.1-4.33-0.38c-0.32-0.06-0.57-0.15-0.74-0.19
    c-0.16-0.04-0.25-0.07-0.25-0.07s0.09,0.02,0.26,0.03c0.18,0.02,0.43,0.06,0.75,0.08c4.18,0.26,8.22-0.32,12.29-1.28
    c1.16-0.28,2.33-0.58,3.49-0.89c1.28-0.33,2.55-0.7,3.819-1.07c0.73-0.21,1.671-0.34,2.351-0.7
    C178.99,149.05,178.7,149.19,178.27,149.38z" />
    
    
    <path fill="#F1DBCB" d="M153.4,70.75c-2.87,0.64-5.38,0.6-7.24,0.36c-0.37-0.05-0.72-0.1-1.05-0.16c-0.32-0.05-0.62-0.12-0.88-0.18
    c0.51-0.09,1.1-0.25,1.69-0.57c0.53-0.29,0.93-0.44,1.23-0.44c0.24,0,0.4,0.09,0.6,0.2c0.05,0.03,0.1,0.06,0.16,0.09l0.1,0.05
    c0.43,0.21,0.57,0.28,0.85,0.28c0.3,0,0.47-0.08,0.98-0.33c0.06-0.03,0.11-0.06,0.17-0.09c0.19-0.11,0.35-0.2,0.59-0.2
    c0.301,0,0.7,0.15,1.23,0.44C152.38,70.49,152.92,70.66,153.4,70.75z" />
    
    
    <path fill="#F1DBCB" d="M153.15,71.3c-0.32,0.21-0.62,0.43-0.811,0.64c-0.55,0.64-1.18,1.37-3.45,1.37h-0.03
    c-1.99,0-2.72-0.56-3.24-1.13c-0.08-0.08-0.15-0.16-0.22-0.24c-0.04-0.05-0.09-0.1-0.14-0.14c-0.15-0.14-0.34-0.29-0.55-0.43
    c1.04,0.21,2.4,0.39,4.01,0.39C150.05,71.76,151.54,71.63,153.15,71.3z" />
    
    
    
    
    
    
    
    </g>
    <path fill="#F1DBCB" d="M141.592,152.815c0,0-0.089,0.024-0.257,0.069c-0.167,0.042-0.413,0.123-0.731,0.185
    c-0.317,0.059-0.706,0.15-1.157,0.199c-0.448,0.069-0.958,0.113-1.518,0.15c-0.28,0.01-0.571,0.022-0.871,0.035
    c-0.303,0-0.613,0-0.934-0.002c-0.32-0.01-0.65-0.022-0.985-0.035c-0.335-0.02-0.68-0.047-1.027-0.076
    c-0.694-0.069-1.413-0.141-2.138-0.256c-0.724-0.113-1.458-0.239-2.185-0.389c-0.729-0.15-1.453-0.323-2.162-0.498
    c-0.71-0.175-1.401-0.377-2.069-0.574c-0.667-0.195-1.305-0.404-1.908-0.608c-0.606-0.202-1.17-0.412-1.69-0.608
    c-1.041-0.392-1.894-0.759-2.484-1.024c-0.555-0.249-0.88-0.414-0.917-0.434c0.084,0.024,1.476,0.463,3.535,1.057
    c0.531,0.15,1.107,0.313,1.716,0.483c0.611,0.17,1.257,0.335,1.924,0.512c0.668,0.175,1.362,0.335,2.064,0.505
    c0.704,0.165,1.418,0.328,2.14,0.468c0.717,0.153,1.438,0.286,2.15,0.404c0.712,0.116,1.414,0.229,2.094,0.315
    c0.342,0.04,0.677,0.079,1.005,0.118c0.33,0.029,0.652,0.062,0.966,0.091c0.313,0.02,0.617,0.04,0.913,0.057
    c0.296,0.012,0.584,0.024,0.857,0.037c0.549,0.005,1.054,0.013,1.502-0.007c0.446-0.007,0.835-0.044,1.158-0.064
    c0.322-0.024,0.573-0.062,0.746-0.079C141.5,152.828,141.592,152.815,141.592,152.815z" />
    
    
    
    
    
    
    
    <path fill="#F1DBCB" d="M179.188,148.949c-0.037,0.02-0.36,0.185-0.916,0.434c-0.59,0.266-1.441,0.633-2.48,1.024
    c-0.521,0.197-1.087,0.406-1.688,0.608c-0.606,0.205-1.244,0.414-1.912,0.608c-0.668,0.197-1.359,0.399-2.068,0.574
    c-0.709,0.175-1.434,0.347-2.16,0.498c-0.729,0.15-1.463,0.276-2.188,0.389c-0.726,0.116-1.443,0.187-2.14,0.256
    c-0.347,0.029-0.688,0.057-1.022,0.076c-0.338,0.012-0.666,0.024-0.987,0.035c-0.319,0.002-0.631,0.002-0.935,0.002
    c-0.301-0.013-0.59-0.025-0.871-0.035c-0.557-0.037-1.069-0.081-1.52-0.15c-0.449-0.049-0.837-0.14-1.156-0.199
    c-0.316-0.062-0.563-0.143-0.73-0.185c-0.167-0.045-0.256-0.069-0.256-0.069s0.091,0.013,0.264,0.03
    c0.176,0.017,0.426,0.054,0.746,0.079c0.322,0.02,0.712,0.057,1.16,0.064c0.445,0.02,0.949,0.012,1.5,0.007
    c0.275-0.012,0.563-0.024,0.855-0.037c0.297-0.017,0.603-0.037,0.918-0.057c0.313-0.03,0.633-0.062,0.963-0.091
    c0.326-0.04,0.662-0.079,1.004-0.118c0.683-0.086,1.382-0.2,2.094-0.315c0.712-0.118,1.434-0.251,2.15-0.404
    c0.722-0.14,1.438-0.303,2.143-0.468c0.702-0.17,1.396-0.33,2.063-0.505c0.668-0.177,1.313-0.342,1.924-0.512
    c0.61-0.17,1.188-0.333,1.721-0.483C177.713,149.412,179.104,148.973,179.188,148.949z" />
    
    
    
    
    
    
    
    <path fill="none" stroke="#494949" stroke-width="0.4926" stroke-miterlimit="10" d="M110.112,261.176" />
    
    
    
    
    
    
    
    <path fill="none" stroke="#494949" stroke-width="0.4926" stroke-miterlimit="10" d="M244.927,246.644" />
    
    
    
    
    
    
    
    <path fill="none" stroke="#494949" stroke-width="0.7389" stroke-miterlimit="10" d="M155.296,382.221" />
    
    
    <path fill="#494949" d="M122.219,101.165c0,0,1.348-0.307,3.417-0.433c1.033-0.038,2.245-0.102,3.54-0.012
    c1.298,0.053,2.673,0.248,4.04,0.493c0.674,0.169,1.358,0.299,2.012,0.5c0.651,0.214,1.305,0.381,1.901,0.652
    c0.601,0.256,1.194,0.471,1.709,0.781c0.518,0.3,1.036,0.527,1.458,0.836c0.433,0.292,0.819,0.572,1.159,0.819
    c0.331,0.261,0.589,0.527,0.816,0.726c0.438,0.413,0.688,0.649,0.688,0.649s-0.283-0.195-0.778-0.538
    c-0.248-0.168-0.53-0.396-0.884-0.612c-0.365-0.201-0.775-0.426-1.211-0.686c-0.431-0.27-0.958-0.455-1.479-0.708
    c-0.519-0.264-1.118-0.423-1.705-0.658c-0.584-0.246-1.236-0.367-1.867-0.575c-0.638-0.188-1.308-0.305-1.965-0.463
    c-0.667-0.117-1.332-0.25-1.994-0.339c-0.664-0.074-1.313-0.19-1.949-0.231c-1.268-0.134-2.46-0.194-3.484-0.221
    c-1.023-0.01-1.881-0.035-2.48-0.008C122.563,101.155,122.219,101.165,122.219,101.165z" />
    
    <path fill="#494949" d="M174.109,101.165c0,0-0.344-0.01-0.944-0.027c-4.135-0.118-8.438,0.227-12.419,1.389
    c-1.163,0.339-2.303,0.755-3.401,1.267c-1.368,0.637-2.815,1.458-3.973,2.383c0,0,0.25-0.236,0.688-0.649
    c0.228-0.198,0.484-0.464,0.815-0.726c3.009-2.383,6.837-3.595,10.617-3.965c1.082-0.106,2.181-0.164,3.268-0.16
    c1.158,0.004,2.318,0.057,3.469,0.19C172.835,100.937,173.504,101.165,174.109,101.165z" />
    
    <path fill="#494949" d="M138.202,75.838c0,0,0.28,0.278,0.786,0.74c0.5,0.469,1.252,1.098,2.175,1.813
    c0.923,0.715,2.065,1.463,3.354,2.1c0.324,0.154,0.65,0.32,0.999,0.437c0.341,0.14,0.692,0.257,1.055,0.339
    c0.716,0.208,1.467,0.257,2.204,0.236c0.336-0.031,0.775-0.076,1.134-0.143c0.359-0.097,0.718-0.14,1.075-0.275
    c0.715-0.223,1.408-0.5,2.053-0.827c0.648-0.316,1.265-0.654,1.837-0.997c0.573-0.339,1.103-0.69,1.579-1.027
    c1.92-1.34,3.094-2.397,3.094-2.397s-0.25,0.305-0.73,0.799c-0.486,0.486-1.185,1.19-2.111,1.93
    c-0.461,0.373-0.975,0.764-1.537,1.148c-0.563,0.388-1.168,0.785-1.841,1.116c-0.66,0.353-1.38,0.66-2.134,0.912
    c-0.363,0.146-0.782,0.215-1.177,0.325c-0.407,0.08-0.752,0.126-1.195,0.172c-0.83,0.011-1.66-0.069-2.427-0.308
    c-0.391-0.098-0.763-0.231-1.121-0.387c-0.368-0.133-0.707-0.314-1.043-0.483c-1.339-0.695-2.43-1.578-3.328-2.351
    c-0.897-0.78-1.555-1.521-2.015-2.033C138.432,76.158,138.202,75.838,138.202,75.838z" />
    
    <g>
    <path fill="#494949" d="M118.554,148.954c0,0,0.354,0.109,0.973,0.299c0.619,0.185,1.503,0.448,2.564,0.764
    c1.061,0.313,2.307,0.645,3.643,0.986c1.335,0.344,2.765,0.685,4.204,0.972c0.715,0.169,1.441,0.271,2.15,0.408
    c0.713,0.108,1.415,0.214,2.094,0.317c0.683,0.074,1.343,0.146,1.968,0.214c0.629,0.032,1.223,0.062,1.772,0.09
    c0.55-0.005,1.054-0.01,1.501-0.014c0.451,0.015,0.835-0.048,1.157-0.076c0.645-0.057,1.014-0.089,1.014-0.089
    s-0.361,0.084-0.992,0.231c-3.141,0.732-6.56,0.437-9.703-0.123c-0.938-0.167-1.869-0.371-2.792-0.602
    c-0.939-0.235-1.872-0.497-2.799-0.779c-1.128-0.343-2.238-0.742-3.347-1.143C119.88,149.621,118.554,148.954,118.554,148.954z" />
    
    <path fill="#494949" d="M179.193,148.954c0,0-1.325,0.667-3.405,1.456c-1.045,0.376-2.265,0.829-3.601,1.218
    c-1.33,0.408-2.773,0.764-4.229,1.07c-0.726,0.164-1.465,0.259-2.187,0.389c-0.724,0.119-1.443,0.173-2.138,0.259
    c-0.696,0.057-1.372,0.076-2.012,0.106c-0.642-0.012-1.246-0.023-1.806-0.033c-0.56-0.03-1.067-0.105-1.52-0.155
    c-0.449-0.037-0.836-0.144-1.152-0.208c-0.633-0.147-0.992-0.231-0.992-0.231s0.369,0.032,1.014,0.089
    c0.32,0.028,0.706,0.091,1.157,0.076c0.446,0.004,0.95,0.009,1.5,0.014c0.549-0.028,1.144-0.058,1.772-0.09
    c0.625-0.068,1.283-0.14,1.969-0.214c0.679-0.103,1.381-0.209,2.094-0.317c0.709-0.137,1.435-0.239,2.15-0.408
    c1.438-0.287,2.866-0.628,4.202-0.972c1.337-0.341,2.581-0.673,3.644-0.986c1.062-0.316,1.945-0.579,2.563-0.764
    C178.841,149.063,179.193,148.954,179.193,148.954z" />
    </g>
    
    
    </svg>