<!--  *ngIf="isFront && isWoman" 
style="padding-top: 4.50pt; padding-bottom: 4.50pt;"
-->

 <svg version="1.1" xmlns="http://www.w3.org/2000/svg" xmlns:xlink="http://www.w3.org/1999/xlink" x="0px" y="0px" 
      viewBox="54.369 24.974 191.263 450.007"
      enable-background="new 54.369 24.974 191.263 450.007" xml:space="preserve">
    <path fill="#494949" d="M244.63,218.48c0.849-0.389,1.013-0.898,1.001-1.256c-0.033-1.091-1.725-2.029-2.718-2.411
    c-0.881-0.338-2.393-1.703-3.854-3.023c-0.998-0.902-2.031-1.835-2.888-2.46c-2.136-1.561-7.674-2.775-7.905-2.826l-0.058-0.013
    l-0.069,0.007c-2.453-2.716-5.051-10.256-7.793-18.231c-3.445-10.005-7.009-20.351-10.992-23.483
    c-7.039-5.532-8.025-15.427-9.291-33.896l-0.026,0.001c-1.237-16.951-5.035-32.679-23.228-34.261
    c-17.039-1.481-17.252-16.893-17.254-17.541l0.063-3.553c5.655-4.113,6.864-12.268,7.104-14.726c0.047,0.014,0.09,0.024,0.131,0.031
    c0.646,0.105,1.265-0.414,1.394-0.541c2.692-3.895,2.414-8.289,1.374-10.032c-0.397-0.669-0.813-0.772-1.081-0.742
    c-0.195,0.022-0.355,0.106-0.495,0.21c0.008-0.619,0.052-1.675,0.112-3.215c0.058-1.428,0.133-3.328,0.222-5.845
    c0.362-10.327-13.078-14.718-14.632-15.19c-2.767-0.682-5.204-0.68-7.457,0.005c-1.534,0.467-14.975,4.86-14.61,15.186
    c0.089,2.522,0.164,4.426,0.221,5.854c0.063,1.54,0.104,2.594,0.112,3.211c-0.145-0.108-0.322-0.195-0.542-0.216
    c-0.271-0.029-0.682,0.073-1.081,0.742c-1.04,1.744-1.322,6.137,1.436,10.1c0.068,0.06,0.688,0.581,1.329,0.474
    c0.04-0.007,0.085-0.016,0.13-0.031c0.238,2.458,1.447,10.614,7.104,14.726l0.063,3.553l0.014,0.139
    c-0.057,1.551-1.03,16.004-17.25,17.414c-18.462,1.606-22.099,17.778-23.28,35.013c-1.265,18.47-2.253,28.366-9.292,33.896
    c-3.985,3.131-7.547,13.477-10.991,23.483c-2.744,7.974-5.339,15.514-7.793,18.231l-0.07-0.006l-0.056,0.012
    c-0.234,0.051-5.771,1.264-7.908,2.826c-0.855,0.625-1.887,1.557-2.884,2.458c-1.461,1.321-2.972,2.686-3.853,3.025
    c-0.993,0.383-2.685,1.321-2.718,2.412c-0.013,0.359,0.152,0.866,1.001,1.255c2.05,0.94,6.811-1.895,7.92-2.587
    c0.163,0.839-0.084,3.66-1.191,5.751c-0.579,1.094-1.994,3.05-3.362,4.941c-3.367,4.655-4.213,5.998-3.737,6.567
    c0.303,0.363,0.787,0.852,1.492,0.899c0.597,0.043,1.225-0.241,1.905-0.864c0.527-0.48,1.504-1.625,2.635-2.951
    c1.385-1.625,3.657-4.291,4.288-4.672c0.029,0.826-1.366,4.114-2.307,5.545c-5.021,7.637-4.439,8.875-4.249,9.283
    c0.139,0.295,0.408,0.48,0.756,0.52c2.133,0.238,3.3-1.731,4.238-3.313c0.135-0.226,0.266-0.447,0.395-0.654
    c0.147-0.233,0.361-0.586,0.624-1.021c1.075-1.771,4.261-7.019,5.215-7.633c0.048,0.7-0.797,3.136-1.265,4.489
    c-0.313,0.906-0.61,1.764-0.764,2.341c-0.123,0.462-0.38,1.128-0.651,1.834c-0.763,1.983-1.629,4.231-0.989,5.305
    c0.196,0.33,0.522,0.533,0.941,0.587c0.14,0.018,0.272,0.027,0.398,0.027c1.689,0,2.189-1.564,2.629-2.955
    c0.13-0.406,0.262-0.82,0.424-1.213c0.195-0.473,0.499-1.313,0.858-2.307c0.741-2.049,2.249-6.217,2.884-6.896
    c0.214,0.449,0.135,2.223,0.086,3.311c-0.029,0.653-0.059,1.305-0.059,1.877c0,0.445-0.029,0.986-0.062,1.563
    c-0.113,2.072-0.23,4.215,0.646,4.936c0.196,0.162,0.535,0.326,1.046,0.197c2.089-0.533,2.132-3.777,1.972-5.662
    c-0.115-1.351,2.152-9.445,2.943-10.906c0.617-1.143,2.497-4.622,2.628-8.275c0.117-3.308,1.008-5.582,1.123-5.777
    c0.23-0.322,0.843-1.349,1.77-2.906c3.251-5.459,10.016-16.82,14.334-21.117c7.485-7.868,8.335-14.152,9.019-19.202
    c0.361-2.664,0.673-4.964,1.813-7.139c2.052-3.913,4.231-10.679,5.691-16.069c0.534,1.28,1.263,2.496,2.165,3.57
    c0.698,0.827,1.484,1.575,2.326,2.243c1.788,8.343,3.624,20.456,2.253,30.938c-0.919,7.031-3.544,11.692-6.322,16.628
    c-4.928,8.749-10.512,18.665-8.721,44.628c2.016,29.225,7.709,46.212,11.478,57.455c1.48,4.418,2.65,7.908,3.186,10.904
    c1.982,11.1,1.275,19.301-0.509,28.932l-0.197,1.061c-1.976,10.549-5.653,30.188,6.462,61.092
    c2.223,5.671,3.478,10.949,3.837,16.146c0.112,1.515,0.206,3.499-0.078,5.401c-0.006,0.037-0.693,3.795-1.652,6.195
    c-0.412,1.029-0.69,2.182-0.983,3.402c-0.407,1.691-0.83,3.445-1.641,4.855c-1.402,2.439-3.505,9.584-3.979,11.611
    c-0.133,0.563-0.41,1.391-0.704,2.264c-0.695,2.064-1.482,4.4-1.205,5.604c0.284,1.229,0.344,2.703,0.177,4.373
    c-0.099,0.996,0.386,2.154,0.917,2.791c0.216,0.258,0.446,0.438,0.677,0.541c0.007,0.645,0.123,2.168,1.029,3.133
    c0.438,0.467,1,0.74,1.669,0.813c0.014,0.352,0.106,0.859,0.471,1.309c0.394,0.479,0.993,0.762,1.789,0.846
    c-0.007,0.387,0.062,0.979,0.456,1.479c0.445,0.563,1.17,0.861,2.155,0.887c0.776,0.035,1.33-0.182,1.673-0.582
    c0.46,1.021,1.986,1.229,2.706,1.33c1.482,0.201,2.335-0.604,3.032-1.504c0.888-1.148,1.82-2.543,2.009-4.158
    c0.038-0.332,0.056-0.666,0.074-1c0.037-0.705,0.072-1.369,0.303-2c0.174-0.479,0.442-0.904,0.726-1.359
    c0.23-0.367,0.469-0.748,0.656-1.162c0.663-1.461,0.708-3.459,0.15-6.68c-0.575-3.324,0.37-13.09,0.804-17.135
    c0.091-0.855,0.211-1.754,0.334-2.676c0.629-4.74,1.343-10.115-1.505-11.596c-0.291-0.191-0.887-0.717-0.87-1.063l0.014-0.158
    c0-11.401,2.121-32.547,4.363-43.506c2.36-11.537,0.001-29.559-2.428-38.664c-1.456-5.465,0.537-29.43,2.296-50.57
    c1.287-15.469,2.502-30.077,2.177-35.27c-0.216-3.455-0.411-7.113-0.58-10.283c-0.134-2.498-0.251-4.691-0.35-6.244
    c0.78,0.494,2.16,0.965,3.938-0.096c-0.101,1.567-0.221,3.817-0.354,6.362c-0.169,3.162-0.361,6.808-0.578,10.25
    c-0.324,5.19,0.891,19.804,2.178,35.271c1.761,21.145,3.752,45.104,2.297,50.567c-2.431,9.108-4.789,27.127-2.43,38.664
    c2.365,11.56,4.199,32.886,4.199,43.521c0.001,0.373-0.482,0.965-0.75,1.23c-2.824,1.531-2.113,6.869-1.488,11.586
    c0.121,0.924,0.241,1.822,0.334,2.678c0.433,4.045,1.379,13.813,0.803,17.135c-0.559,3.223-0.512,5.221,0.149,6.68
    c0.188,0.414,0.427,0.795,0.655,1.16c0.286,0.455,0.554,0.887,0.729,1.361c0.229,0.629,0.268,1.291,0.303,1.994
    c0.02,0.336,0.035,0.672,0.074,1.006c0.188,1.619,1.121,3.012,2.011,4.158c0.622,0.807,1.366,1.535,2.581,1.535
    c0.146,0,0.294-0.014,0.445-0.031c0.719-0.104,2.244-0.313,2.704-1.33c0.345,0.396,0.868,0.594,1.675,0.58
    c0.982-0.023,1.709-0.32,2.151-0.885c0.396-0.5,0.465-1.094,0.457-1.48c0.796-0.084,1.396-0.367,1.789-0.848
    c0.364-0.445,0.456-0.953,0.47-1.307c0.672-0.07,1.231-0.346,1.672-0.813c0.903-0.965,1.021-2.486,1.026-3.133
    c0.23-0.104,0.463-0.283,0.683-0.545c0.527-0.635,1.015-1.793,0.911-2.787c-0.167-1.67-0.105-3.145,0.179-4.373
    c0.275-1.199-0.512-3.539-1.205-5.604c-0.295-0.873-0.569-1.695-0.702-2.262c-0.474-2.027-2.575-9.172-3.979-11.611
    c-0.813-1.408-1.23-3.164-1.642-4.857c-0.295-1.223-0.57-2.373-0.982-3.402c-0.961-2.396-1.646-6.158-1.647-6.184
    c-0.271-1.791-0.339-3.601-0.205-5.38c0.334-4.873,1.643-10.168,4.002-16.188c12.116-30.906,8.438-50.543,6.463-61.092l-0.197-1.06
    c-1.783-9.634-2.49-17.832-0.51-28.931c0.535-2.998,1.705-6.487,3.188-10.905c3.771-11.242,9.461-28.229,11.479-57.455
    c1.791-25.964-3.793-35.88-8.724-44.629c-2.775-4.935-5.4-9.596-6.319-16.627c-1.336-10.215,0.386-21.979,2.074-30.09
    c1.286-0.845,2.47-1.886,3.479-3.08c0.597-0.71,1.111-1.484,1.556-2.293c0.896,3.177,3.067,10.456,5.336,14.778
    c1.138,2.171,1.444,4.373,1.804,6.922c0.673,4.808,1.51,10.79,9.002,18.666l0.26-0.246l-0.254,0.255
    c4.311,4.29,11.074,15.65,14.326,21.11c0.927,1.556,1.539,2.584,1.764,2.896c0.122,0.206,1.012,2.476,1.131,5.788
    c0.131,3.662,2.01,7.134,2.627,8.275c0.791,1.461,3.059,9.555,2.943,10.905c-0.161,1.887-0.12,5.13,1.971,5.664
    c0.51,0.129,0.851-0.036,1.045-0.197c0.877-0.721,0.761-2.863,0.648-4.937c-0.032-0.577-0.063-1.118-0.063-1.562
    c0-0.572-0.028-1.226-0.061-1.877c-0.05-1.09-0.128-2.863,0.087-3.311c0.634,0.679,2.14,4.84,2.88,6.888
    c0.358,0.997,0.666,1.841,0.861,2.313c0.16,0.394,0.293,0.809,0.424,1.214c0.479,1.495,1.016,3.19,3.029,2.928
    c0.422-0.054,0.746-0.257,0.94-0.587c0.64-1.074-0.225-3.32-0.988-5.305c-0.271-0.705-0.525-1.371-0.647-1.834
    c-0.152-0.576-0.45-1.432-0.766-2.338c-0.468-1.344-1.304-3.762-1.268-4.479c1.001,0.681,4.143,5.853,5.207,7.606
    c0.267,0.438,0.485,0.797,0.632,1.035c0.129,0.205,0.26,0.424,0.396,0.65c0.938,1.582,2.104,3.551,4.237,3.314
    c0.352-0.041,0.617-0.225,0.757-0.521c0.19-0.407,0.774-1.647-4.28-9.334c-0.896-1.358-2.257-4.562-2.271-5.451
    c0.763,0.492,2.941,3.052,4.291,4.632c1.129,1.324,2.104,2.469,2.632,2.949c0.681,0.622,1.303,0.903,1.905,0.864
    c0.705-0.048,1.188-0.537,1.49-0.899c0.477-0.57-0.37-1.912-3.738-6.57c-1.367-1.888-2.78-3.843-3.36-4.938
    c-1.106-2.091-1.354-4.912-1.19-5.751C237.816,216.584,242.576,219.417,244.63,218.48z M134.342,471.073
    c-0.054-0.275-0.112-0.576-0.092-0.701c0.045-0.291,0.258-0.762,0.464-1.217c0.353-0.781,0.658-1.455,0.509-1.891
    c0.037-0.182,0.533-0.465,0.91-0.596c-0.113,0.316-0.337,0.881-0.782,1.887l-0.191,0.441
    C134.874,469.655,134.568,470.358,134.342,471.073z M165.637,471.071c-0.225-0.717-0.531-1.42-0.816-2.076l-0.187-0.426
    c-0.448-1.014-0.673-1.58-0.786-1.896c0.379,0.129,0.873,0.404,0.91,0.57c-0.15,0.455,0.153,1.129,0.506,1.908
    c0.207,0.457,0.42,0.928,0.465,1.221C165.748,470.497,165.691,470.795,165.637,471.071z"/>
    <path fill="#F1DBCB" d="M158.813,53.486c0,0.803-0.65,1.455-1.457,1.455c-0.803,0-1.455-0.652-1.455-1.455
    c0-0.202,0.051-0.395,0.123-0.574c0.047-0.017,0.098-0.037,0.146-0.052c0.078-0.026,0.156-0.052,0.238-0.078
    c-0.236,0.418-0.187,0.955,0.175,1.312c0.416,0.417,1.083,0.429,1.513,0.04c-0.147,0.012-0.309-0.04-0.424-0.155
    c-0.213-0.212-0.213-0.559,0-0.771s0.561-0.212,0.771,0c0.007,0.005,0.012,0.007,0.016,0.015c-0.022-0.249-0.129-0.49-0.317-0.68
    c-0.011-0.01-0.021-0.015-0.029-0.024c0.113-0.003,0.229,0,0.343,0.005C158.675,52.784,158.813,53.124,158.813,53.486z"/>
    <path fill="#F1DBCB" d="M143.207,53.796c0,0.803-0.653,1.456-1.453,1.456c-0.803,0-1.455-0.653-1.455-1.456
    c0-0.361,0.133-0.701,0.367-0.962c0.112-0.006,0.224-0.008,0.337-0.006c-0.212,0.2-0.347,0.483-0.347,0.798
    c0,0.606,0.489,1.099,1.096,1.099c0.269,0,0.515-0.096,0.707-0.256c-0.008,0.002-0.013,0.002-0.021,0.002
    c-0.3,0-0.544-0.243-0.544-0.544c0-0.301,0.244-0.544,0.544-0.544c0.165,0,0.313,0.073,0.409,0.187
    c-0.008-0.172-0.062-0.332-0.141-0.475c0.079,0.024,0.156,0.049,0.235,0.076c0.05,0.015,0.095,0.032,0.142,0.052
    C143.163,53.402,143.207,53.595,143.207,53.796z"/>
    <path fill="#F1DBCB" d="M155.027,68.721c-1.174,0.066-3.354,0.185-4.07,0.15c-0.621-0.03-0.804,0.029-0.976,0.113
    c-0.063,0.029-0.102,0.047-0.257,0.047c-0.157,0-0.194-0.018-0.259-0.047c-0.172-0.084-0.354-0.144-0.976-0.113
    c-0.722,0.034-2.897-0.081-4.071-0.15c1.646-0.938,3.061-1.071,4.137-1.071c0.768,0,0.967,0.126,0.994,0.147
    c-0.008-0.01-0.021-0.036-0.024-0.086l0.493-0.018c0,0.05-0.016,0.079-0.024,0.092c0.026-0.02,0.207-0.136,0.896-0.136
    C151.971,67.649,153.382,67.782,155.027,68.721z"/>
    <path fill="#F1DBCB" d="M155.193,69.203c-0.365,0.338-0.947,0.798-1.69,1.141c-1.303,0.598-2.115,0.938-3.688,0.938h-0.271
    c-1.56,0-2.282-0.333-3.595-0.938c-0.743-0.343-1.325-0.803-1.691-1.141c1.143,0.066,3.478,0.194,4.26,0.16
    c0.547-0.027,0.653,0.024,0.739,0.063c0.113,0.054,0.221,0.096,0.47,0.096c0.247,0,0.354-0.042,0.468-0.096
    c0.086-0.04,0.189-0.092,0.742-0.063C151.714,69.4,154.048,69.272,155.193,69.203z"/>
    <path fill="#494949" d="M118.771,132.011c0,0-0.213-0.865-0.452-2.174c-0.104-0.658-0.226-1.428-0.312-2.256
    c-0.083-0.829-0.162-1.715-0.188-2.605c-0.039-0.889-0.02-1.782,0.02-2.618c0.011-0.418,0.076-0.822,0.113-1.204
    c0.036-0.383,0.083-0.743,0.166-1.072c0.124-0.663,0.285-1.2,0.441-1.564c0.142-0.365,0.229-0.566,0.229-0.566
    s-0.033,0.22-0.092,0.605c-0.027,0.191-0.084,0.416-0.105,0.683c-0.012,0.269-0.026,0.57-0.054,0.896
    c-0.034,0.324-0.032,0.682-0.037,1.058c0,0.377-0.021,0.771-0.014,1.183c0.009,0.41,0.017,0.835,0.023,1.267
    c-0.005,0.431,0.033,0.87,0.046,1.309c0.01,0.878,0.077,1.756,0.098,2.582c0.033,0.825,0.075,1.595,0.084,2.259
    C118.785,131.119,118.771,132.011,118.771,132.011z"/>
    <path fill="#494949" d="M181.23,117.938c0,0,0.086,0.187,0.221,0.518c0.146,0.326,0.304,0.809,0.43,1.425
    c0.081,0.307,0.131,0.638,0.17,0.987c0.039,0.351,0.104,0.722,0.121,1.105c0.047,0.767,0.073,1.588,0.05,2.404
    c-0.016,0.818-0.08,1.631-0.15,2.393s-0.18,1.468-0.271,2.071c-0.217,1.206-0.414,2-0.414,2s-0.027-0.82-0.009-2.038
    c-0.002-0.609,0.021-1.317,0.048-2.075c0.01-0.757,0.063-1.563,0.063-2.368c0.041-0.807,0.022-1.608,0.041-2.362
    c-0.006-0.376-0.014-0.739-0.021-1.084c-0.007-0.346-0.007-0.673-0.039-0.965c-0.025-0.296-0.039-0.571-0.051-0.818
    c-0.021-0.246-0.073-0.459-0.103-0.636C181.255,118.143,181.23,117.938,181.23,117.938z"/>
    <path fill="#F1DBCB" d="M236.9,215.19c1.119,0.77,5.83,3.4,7.42,2.67c0.271-0.12,0.58-0.32,0.568-0.56
    c-0.01-0.48-1.039-1.28-2.238-1.75c-1.012-0.38-2.5-1.73-4.08-3.16c-0.979-0.89-2-1.81-2.83-2.41c-1.899-1.4-6.989-2.56-7.569-2.69
    l-0.32,0.03l-0.119-0.13c-2.601-2.72-5.261-10.45-8.08-18.63c-3.25-9.44-6.931-20.15-10.75-23.14
    c-7.181-5.65-8.26-15.48-9.539-33.68c-0.75-11-2.392-18.271-5.312-23.59c-3.59-6.52-9.239-10.03-17.3-10.73
    c-9.25-0.81-13.642-5.74-15.689-9.73c-2.211-4.32-2.24-8.39-2.24-8.56l0.07-3.93l0.149-0.11c6.42-4.51,7-14.86,7-14.97l0.068-1.26
    l0.631,1.1c0.091,0.16,0.181,0.19,0.24,0.2c0.221,0.04,0.539-0.15,0.688-0.27c2.648-3.87,2.068-7.8,1.37-9.1
    c-0.109-0.2-0.2-0.31-0.28-0.39c-0.069-0.07-0.12-0.09-0.14-0.09c-0.12,0.01-0.29,0.22-0.382,0.34c-0.129,0.16-0.318,0.41-0.608,0.3
    c-0.38-0.14-0.38-0.14-0.21-4.4c0.062-1.43,0.13-3.33,0.22-5.85c0.352-9.77-12.609-14-14.09-14.45c-2.609-0.65-4.92-0.65-7.04,0
    c-1.48,0.45-14.44,4.68-14.09,14.45c0.08,2.52,0.16,4.42,0.22,5.85c0.17,4.26,0.17,4.26-0.21,4.4c-0.3,0.11-0.49-0.14-0.61-0.3
    c-0.1-0.12-0.25-0.31-0.37-0.34h-0.06c-0.03,0-0.21,0.09-0.42,0.48c-0.7,1.31-1.28,5.24,1.37,9.1c0.16,0.12,0.47,0.31,0.689,0.27
    c0.061-0.01,0.15-0.04,0.24-0.2l0.63-1.1l0.061,1.26c0.01,0.11,0.59,10.46,7,14.97l0.16,0.11l0.069,3.73l0.021,0.21
    c0,0.17-0.03,4.24-2.24,8.55c-2.05,4-6.44,8.93-15.69,9.73c-8.06,0.71-13.72,4.22-17.3,10.75c-2.92,5.31-4.56,12.58-5.31,23.58
    c-1.28,18.69-2.29,28.7-9.57,34.43c-3.82,2.99-7.5,13.7-10.75,23.14c-2.82,8.18-5.479,15.91-8.08,18.63l-0.12,0.13l-0.319-0.03
    c-0.58,0.13-5.67,1.3-7.57,2.69c-0.82,0.6-1.84,1.52-2.83,2.41c-1.58,1.43-3.07,2.78-4.08,3.17c-1.2,0.46-2.229,1.26-2.24,1.74
    c-0.01,0.25,0.301,0.44,0.57,0.56c1.59,0.73,6.3-1.9,7.42-2.67c0.21-0.14,0.46-0.13,0.64,0.03c0.681,0.62,0.271,4.45-0.989,6.83
    c-0.601,1.14-1.971,3.021-3.42,5.021c-1.54,2.14-3.65,5.049-3.721,5.719c0.33,0.381,0.62,0.561,0.931,0.58
    c0.38,0.031,0.84-0.199,1.359-0.67c0.49-0.449,1.5-1.629,2.57-2.89c3.33-3.909,4.47-5.11,5.11-4.95
    c0.189,0.051,0.33,0.18,0.399,0.371c0.431,1.1-1.68,5.309-2.319,6.289l-0.03,0.051c-4.45,6.76-4.34,8.26-4.2,8.56
    c0.02,0.04,0.04,0.09,0.17,0.101c1.66,0.18,2.65-1.48,3.521-2.951c0.14-0.229,0.27-0.459,0.399-0.67c0.15-0.229,0.36-0.59,0.63-1.02
    c3.641-6.01,5.141-8.03,5.94-8.03c0.2,0,0.37,0.08,0.479,0.24c0.41,0.58-0.06,2.13-1.149,5.28c-0.311,0.89-0.601,1.729-0.75,2.289
    c-0.13,0.49-0.38,1.15-0.67,1.9c-0.601,1.551-1.5,3.9-1.04,4.66c0.05,0.1,0.14,0.21,0.398,0.24c1.177,0.137,1.629-0.745,1.993-1.702
    c0.958-2.524,1.759-5.104,2.748-7.62c0.458-1.165,0.898-2.609,1.739-3.574c0.116-0.134,0.399-0.494,0.601-0.504
    c0.181-0.011,0.351,0.059,0.49,0.189c0.656,0.609,0.43,2.267,0.42,3.052c-0.022,1.724-0.159,3.44-0.229,5.161
    c-0.035,0.846-0.352,2.87,0.421,3.498c0.069,0.061,0.17,0.109,0.399,0.05c1.66-0.42,1.5-3.84,1.41-4.88
    c-0.12-1.46,2.19-9.76,3.03-11.32c0.6-1.1,2.42-4.47,2.54-7.95c0.12-3.45,1.069-5.91,1.27-6.18c0.21-0.3,0.851-1.37,1.73-2.86
    c3.27-5.48,10.06-16.89,14.439-21.25c7.311-7.69,8.11-13.58,8.82-18.79c0.35-2.62,0.68-5.09,1.88-7.38
    c2.15-4.09,4.44-11.37,5.891-16.85c0.067-0.256-0.284-0.948-0.352-1.219c-0.109-0.442-0.196-0.888-0.252-1.34
    c-0.112-0.901-0.119-1.823-0.063-2.729c0.104-1.677,0.506-3.654,1.387-5.105c0.426-0.702,1.042-1.507,0.965-2.391
    c-0.088-1.011-0.428-2.019-0.544-3.038c-0.256-2.237-0.418-4.507-0.19-6.754c0.122-1.2,0.393-2.315,0.881-3.419
    c-0.542,3.531-0.253,7.012-0.088,10.561c0.048,1.027,0.054,2.054,0.08,3.081c0.684-0.878,1.534-1.747,1.866-2.833
    c0.418-1.366,0.014-2.778-0.426-4.082c0.7,1.674,1.183,3.545,0.244,5.236c-0.646,1.161-1.503,2.19-2.121,3.366
    c-0.629,1.197-1.045,2.524-1.266,3.856c-0.264,1.601-0.223,3.226,0.078,4.817c0.141,0.74,0.351,1.48,0.62,2.2
    c0.28,0.72,0.61,1.43,1,2.1c0.4,0.68,0.86,1.32,1.36,1.92c0.99,1.22,2.189,2.25,3.49,3.09c0.659,0.42,1.33,0.78,2.02,1.11
    c0.69,0.31,1.4,0.57,2.11,0.78c5.19,1.535,10.889,0.391,15.171-2.894c-2.188,1.678-4.327,2.971-7.051,3.605
    c-4.237,0.987-9.538,0.478-13.071-2.292c1.74,8.36,3.42,20.11,2.08,30.35c-0.94,7.17-3.601,11.89-6.41,16.89
    c-4.88,8.66-10.4,18.47-8.63,44.21c2.01,29.14,7.689,46.07,11.439,57.279c1.49,4.44,2.671,7.961,3.221,11.012
    c2,11.209,1.279,19.479-0.511,29.189l-0.199,1.061c-1.96,10.479-5.62,29.979,6.42,60.689c2.25,5.739,3.52,11.09,3.89,16.358
    c0.11,1.551,0.21,3.591-0.09,5.569c-0.03,0.17-0.71,3.879-1.69,6.359c-0.399,0.971-0.67,2.1-0.96,3.301
    c-0.409,1.74-0.85,3.549-1.71,5.049c-1.37,2.381-3.439,9.41-3.899,11.41c-0.141,0.602-0.431,1.441-0.73,2.33
    c-0.62,1.881-1.41,4.211-1.18,5.201c0.31,1.33,0.37,2.84,0.189,4.607c-0.069,0.689,0.25,1.65,0.75,2.24
    c0.08,0.102,0.16,0.17,0.23,0.23c0.03-0.063,0.05-0.131,0.09-0.191c0.03-0.068,0.07-0.148,0.1-0.229
    c0.051-0.07,0.091-0.15,0.141-0.23c0.09-0.16,0.21-0.32,0.31-0.479c0.11-0.16,0.24-0.313,0.351-0.449
    c0.109-0.15,0.22-0.271,0.319-0.371c0.17-0.189,0.29-0.32,0.32-0.352c-0.02,0.029-0.11,0.189-0.229,0.41
    c-0.061,0.119-0.141,0.271-0.211,0.432c-0.069,0.17-0.159,0.33-0.22,0.51c-0.25,0.67-0.399,1.711-0.3,2.43
    c0.08,0.691,0.29,1.42,0.78,1.941c0.319,0.35,0.729,0.539,1.229,0.59c0.01-0.031,0.03-0.063,0.04-0.102
    c0.061-0.131,0.13-0.311,0.24-0.521c0.1-0.209,0.229-0.449,0.37-0.699c0.149-0.25,0.32-0.51,0.5-0.76
    c0.1-0.121,0.18-0.24,0.28-0.361c0.1-0.107,0.199-0.229,0.3-0.328c0.1-0.109,0.189-0.199,0.29-0.301c0.1-0.08,0.189-0.17,0.279-0.24
    c0.091-0.068,0.171-0.131,0.24-0.188c0.08-0.051,0.15-0.09,0.2-0.131c0.05-0.029,0.09-0.051,0.12-0.07
    c-0.03,0.031-0.061,0.061-0.101,0.09c-0.05,0.051-0.109,0.104-0.17,0.16c-0.069,0.07-0.14,0.15-0.21,0.23
    c-0.08,0.078-0.149,0.18-0.229,0.27c-0.09,0.102-0.16,0.211-0.24,0.33c-0.08,0.109-0.15,0.229-0.229,0.359
    c-0.08,0.119-0.141,0.25-0.21,0.381c-0.141,0.26-0.261,0.529-0.36,0.791c-0.11,0.25-0.19,0.5-0.25,0.709
    c-0.07,0.211-0.12,0.381-0.15,0.5c-0.029,0.119-0.04,0.18-0.04,0.188l-0.02,0.143c0,0-0.11,0.641,0.29,1.119
    c0.28,0.342,0.74,0.529,1.37,0.58c0.05-0.141,0.12-0.318,0.21-0.529c0.1-0.25,0.229-0.539,0.38-0.852
    c0.14-0.301,0.31-0.619,0.5-0.938c0.18-0.313,0.38-0.611,0.58-0.881c0.1-0.131,0.21-0.262,0.3-0.381
    c0.11-0.119,0.21-0.229,0.3-0.318c0.101-0.102,0.19-0.182,0.271-0.25c0.069-0.08,0.159-0.131,0.22-0.182
    c0.11-0.08,0.18-0.131,0.189-0.141c-0.01,0.01-0.069,0.07-0.17,0.16c-0.06,0.061-0.13,0.119-0.199,0.199
    c-0.061,0.08-0.141,0.18-0.23,0.279c-0.07,0.109-0.149,0.221-0.24,0.352c-0.08,0.129-0.16,0.26-0.25,0.398
    c-0.149,0.301-0.31,0.609-0.439,0.932c-0.28,0.648-0.41,1.33-0.641,1.988c-0.21,0.619-0.34,1.359,0.11,1.922
    c0.3,0.379,0.84,0.578,1.59,0.6c0.53,0.01,0.9-0.1,1.09-0.33c0.341-0.398,0.181-1.221,0.051-1.881
    c-0.08-0.41-0.141-0.729-0.101-0.99c0.061-0.389,0.28-0.889,0.521-1.408c0.199-0.439,0.529-1.182,0.479-1.369
    c-0.06-0.16-0.09-0.48,0.25-0.842c0.43-0.447,1.42-0.891,1.92-0.738l0.16,0.051l0.09,0.16c0.09,0.188,0.15,0.328-0.92,2.75
    l-0.189,0.43c-0.5,1.16-1.061,2.459-1.091,3.641c-0.02,0.859,1.101,1.141,2.2,1.279c1.061,0.15,1.66-0.34,2.34-1.221
    c0.83-1.07,1.7-2.352,1.86-3.789c0.04-0.32,0.06-0.643,0.07-0.961c0.04-0.721,0.08-1.48,0.35-2.209c0.2-0.551,0.5-1.031,0.79-1.5
    c0.23-0.361,0.45-0.701,0.61-1.07c0.6-1.32,0.63-3.189,0.1-6.25c-0.57-3.301,0.25-12.279,0.8-17.34c0.09-0.861,0.21-1.75,0.33-2.689
    c0.601-4.512,1.28-9.609-1.149-10.859l-0.03-0.029c-0.13-0.08-1.24-0.85-1.2-1.73l0.01-0.119
    c0.011-11.439,2.131-32.643,4.381-43.643c2.34-11.42-0.011-29.289-2.421-38.318c-1.489-5.59,0.511-29.619,2.28-50.83
    c1.28-15.439,2.49-30.021,2.17-35.158c-0.21-3.441-0.399-7.061-0.569-10.24c-0.16-3-0.301-5.59-0.41-7.131l-0.08-1.15l0.729,0.891
    c0.07,0.08,1.681,1.939,4.271-0.061l0.649-0.5l-0.062,0.82c-0.108,1.541-0.239,4.121-0.399,7.101c-0.17,3.2-0.369,6.819-0.58,10.259
    c-0.318,5.141,0.892,19.721,2.182,35.16c1.76,21.199,3.76,45.238,2.271,50.83c-2.41,9.029-4.761,26.898-2.42,38.318
    c2.369,11.602,4.221,33,4.221,43.67c0,0.813-0.909,1.701-1.021,1.801l-0.08,0.063c-2.43,1.25-1.75,6.35-1.148,10.85
    c0.119,0.949,0.238,1.84,0.341,2.699c0.54,5.061,1.358,14.041,0.79,17.34c-0.53,3.063-0.5,4.932,0.1,6.24
    c0.17,0.371,0.38,0.721,0.61,1.08c0.29,0.471,0.59,0.951,0.79,1.5c0.27,0.729,0.31,1.479,0.35,2.211
    c0.021,0.309,0.03,0.639,0.07,0.959c0.158,1.43,1.029,2.721,1.859,3.791c0.658,0.857,1.289,1.369,2.351,1.219
    c1.1-0.139,2.22-0.42,2.199-1.279c-0.029-1.18-0.601-2.479-1.101-3.641l-0.188-0.42c-1.07-2.43-1-2.58-0.921-2.76l0.068-0.15
    l0.182-0.059c0.5-0.15,1.488,0.289,1.921,0.738c0.34,0.359,0.31,0.682,0.26,0.842c-0.062,0.188,0.271,0.93,0.471,1.367
    c0.239,0.521,0.459,1.021,0.521,1.41c0.04,0.262-0.021,0.58-0.102,0.99c-0.131,0.66-0.291,1.479,0.051,1.879
    c0.188,0.23,0.561,0.34,1.101,0.32c0.75-0.01,1.29-0.221,1.59-0.602c0.391-0.488,0.29-1.18,0.271-1.277c0-0.012,0-0.031-0.012-0.041
    l-0.06-0.279c-0.03-0.131-0.07-0.301-0.12-0.48c-0.07-0.262-0.15-0.551-0.26-0.859c-0.103-0.311-0.222-0.641-0.36-0.959
    c-0.13-0.32-0.29-0.641-0.438-0.932c-0.092-0.141-0.17-0.27-0.25-0.398c-0.092-0.131-0.17-0.24-0.239-0.352
    c-0.09-0.109-0.16-0.199-0.23-0.279c-0.067-0.08-0.14-0.141-0.188-0.199c-0.102-0.09-0.16-0.15-0.182-0.17
    c0.021,0.02,0.09,0.07,0.189,0.148c0.07,0.051,0.149,0.102,0.229,0.182c0.078,0.068,0.17,0.148,0.271,0.25
    c0.09,0.09,0.188,0.199,0.29,0.309c0.101,0.121,0.2,0.25,0.3,0.393c0.2,0.27,0.41,0.568,0.58,0.881
    c0.188,0.318,0.36,0.639,0.5,0.938c0.15,0.313,0.28,0.602,0.38,0.852c0.091,0.211,0.16,0.391,0.21,0.529
    c0.631-0.051,1.09-0.238,1.37-0.58c0.4-0.479,0.3-1.119,0.3-1.119s-0.02-0.143-0.029-0.143c0-0.01-0.01-0.066-0.038-0.188
    c-0.03-0.119-0.08-0.301-0.15-0.51c-0.33-1.053-0.92-1.9-1.54-2.791c-0.1-0.141-0.22-0.328-0.34-0.449
    c0.05,0.041,0.13,0.08,0.2,0.131c0.067,0.059,0.147,0.119,0.239,0.188c0.101,0.07,0.181,0.16,0.279,0.24
    c0.101,0.09,0.199,0.189,0.289,0.301c0.11,0.102,0.2,0.221,0.301,0.328c0.102,0.121,0.182,0.24,0.279,0.361
    c0.18,0.25,0.352,0.51,0.5,0.76c0.141,0.25,0.271,0.49,0.37,0.699c0.109,0.211,0.189,0.391,0.24,0.521
    c0.01,0.027,0.021,0.068,0.04,0.1c0.51-0.049,0.909-0.24,1.229-0.59c0.41-0.432,0.61-1,0.73-1.57c0.09-0.5,0.239-1.09,0.17-1.59
    c-0.07-0.59-0.4-1.189-0.642-1.721c-0.068-0.158-0.148-0.311-0.221-0.432c-0.109-0.219-0.199-0.379-0.22-0.408
    c0.029,0.029,0.148,0.158,0.318,0.34c0.091,0.109,0.211,0.23,0.319,0.381c0.142,0.188,0.312,0.357,0.421,0.568
    c0.18,0.342,0.42,0.66,0.569,1.012c0.068-0.063,0.148-0.131,0.229-0.23c0.489-0.59,0.812-1.549,0.75-2.24
    c-0.181-1.77-0.119-3.277,0.189-4.607c0.229-0.99-0.562-3.32-1.189-5.199c-0.301-0.891-0.58-1.73-0.721-2.33
    c-0.47-2-2.529-9.031-3.898-11.41c-0.859-1.5-1.301-3.311-1.721-5.051c-0.291-1.199-0.561-2.33-0.949-3.311
    c-0.989-2.471-1.67-6.182-1.689-6.342c-0.28-1.85-0.352-3.719-0.21-5.549c0.33-4.949,1.66-10.311,4.04-16.398
    c12.04-30.711,8.39-50.211,6.43-60.689l-0.2-1.061c-1.8-9.711-2.51-17.99-0.51-29.189c0.551-3.061,1.721-6.57,3.21-11.021
    c3.761-11.199,9.44-28.129,11.45-57.271c1.771-25.74-3.76-35.55-8.63-44.209c-2.82-5-5.479-9.72-6.42-16.9
    c-1.313-10.02,0.29-21.5,1.938-29.64c-0.47,0.27-0.949,0.52-1.449,0.73c-3.244,1.422-6.855,1.748-10.313,0.984
    c-0.978-0.215-1.943-0.53-2.863-0.918c-1.201-0.507-2.429-1.184-3.443-2.006c-0.211-0.18-0.391-0.33-0.529-0.45
    c-0.16-0.14-0.278-0.25-0.358-0.31c3.239,2.435,7.252,3.721,11.313,3.499c1.168-0.063,2.36-0.255,3.496-0.542
    c3.075-0.779,5.915-2.647,7.938-5.077c0.5-0.6,0.949-1.24,1.352-1.92c1.547-2.594,2.091-5.674,1.757-8.658
    c-0.152-1.36-0.562-2.694-1.119-3.941c-0.54-1.204-1.392-2.208-2.096-3.312c-1.123-1.757-0.843-3.812,0.003-5.618
    c-0.714,1.963-0.961,4.179,0.617,5.791c0.059-3.244,0.221-6.505,0.142-9.75c-0.023-0.946-0.137-1.869-0.26-2.804
    c1.081,2.128,1.034,4.783,0.938,7.105c-0.052,1.254-0.177,2.526-0.377,3.767c-0.08,0.5-0.369,1.063-0.313,1.573
    c0.06,0.558,0.565,1.017,0.876,1.452c2.076,2.919,2.765,6.726,2.142,10.226c-0.068,0.39-0.17,0.78-0.26,1.17
    c-0.12,0.39-0.23,0.77-0.38,1.16c-0.12,0.32-0.262,0.65-0.41,0.97c1.79,6.49,3.84,12.24,5.5,15.4c1.189,2.29,1.521,4.65,1.88,7.16
    c0.34,2.48,0.71,5.12,1.91,8.1s3.229,6.31,6.891,10.16c4.379,4.36,11.17,15.77,14.439,21.25c0.88,1.479,1.52,2.56,1.729,2.85
    c0.19,0.27,1.143,2.74,1.262,6.19c0.131,3.48,1.938,6.84,2.539,7.95c0.852,1.56,3.149,9.85,3.029,11.32
    c-0.09,1.039-0.25,4.459,1.42,4.879c0.23,0.061,0.33,0,0.4-0.049c0.58-0.48,0.46-2.801,0.37-4.33
    c-0.03-0.58-0.063-1.141-0.063-1.601c0-0.56-0.029-1.21-0.06-1.84c-0.09-2.13-0.13-3.46,0.359-3.94
    c0.141-0.14,0.301-0.209,0.488-0.199c0.864,0.043,1.496,2.058,1.731,2.613c0.976,2.297,1.813,4.65,2.634,7.008
    c0.436,1.248,0.838,4.09,2.715,3.789c0.25-0.039,0.352-0.149,0.4-0.24c0.46-0.76-0.439-3.109-1.04-4.659
    c-0.29-0.761-0.54-1.41-0.682-1.91c-0.148-0.55-0.438-1.39-0.75-2.29c-1.09-3.15-1.561-4.7-1.141-5.27
    c0.11-0.16,0.28-0.25,0.471-0.25c0.996,0,1.983,1.848,2.433,2.492c1.471,2.121,2.807,4.332,4.136,6.543
    c0.874,1.455,1.896,3.799,3.935,3.646c0.129-0.011,0.148-0.06,0.17-0.101c0.141-0.299,0.25-1.799-4.199-8.56l-0.03-0.05
    c-0.642-0.98-2.76-5.189-2.33-6.29c0.08-0.19,0.221-0.32,0.41-0.37c0.63-0.16,1.779,1.04,5.108,4.949
    c1.07,1.25,2.08,2.441,2.57,2.891c0.521,0.471,0.971,0.689,1.359,0.67c0.311-0.02,0.6-0.199,0.92-0.58
    c-0.062-0.67-2.17-3.58-3.72-5.72c-1.45-2-2.813-3.89-3.422-5.03c-1.25-2.37-1.67-6.21-0.979-6.82
    C236.439,215.06,236.689,215.05,236.9,215.19z M137.86,331.26c-0.05,0.051-0.109,0.15-0.199,0.24c-0.101,0.09-0.21,0.209-0.37,0.319
    c-0.07,0.06-0.15,0.119-0.25,0.171c-0.09,0.059-0.181,0.118-0.29,0.17c-0.21,0.1-0.44,0.198-0.7,0.27
    c-0.26,0.08-0.53,0.141-0.82,0.182c-0.29,0.039-0.59,0.061-0.89,0.061c-0.3,0.011-0.61,0-0.91-0.03
    c-0.31-0.028-0.61-0.067-0.9-0.119c-0.289-0.062-0.579-0.118-0.859-0.188c-0.54-0.142-1.04-0.312-1.46-0.48
    c-0.41-0.17-0.75-0.34-0.98-0.471c-0.229-0.119-0.359-0.209-0.359-0.209s0.149,0.029,0.409,0.07c0.25,0.039,0.62,0.108,1.051,0.18
    c0.22,0.039,0.46,0.08,0.71,0.131c0.24,0.029,0.5,0.068,0.77,0.119c0.54,0.08,1.12,0.16,1.69,0.209
    c0.28,0.031,0.569,0.041,0.85,0.051c0.28,0.012,0.55,0.021,0.82,0c0.13,0,0.26-0.01,0.39-0.02c0.12-0.011,0.25-0.021,0.37-0.041
    c0.12-0.01,0.23-0.039,0.34-0.062c0.12-0.011,0.221-0.039,0.33-0.06c0.101-0.021,0.19-0.061,0.29-0.09
    c0.09-0.031,0.18-0.063,0.26-0.092c0.16-0.061,0.301-0.129,0.42-0.189c0.11-0.061,0.19-0.108,0.261-0.147
    c0.06-0.041,0.09-0.062,0.09-0.062S137.9,331.2,137.86,331.26z M162.23,331.23c0.061,0.028,0.141,0.09,0.261,0.147
    c0.108,0.062,0.25,0.131,0.409,0.189c0.08,0.029,0.17,0.061,0.261,0.092c0.09,0.029,0.188,0.059,0.29,0.09
    c0.107,0.021,0.21,0.049,0.328,0.06c0.109,0.021,0.222,0.051,0.342,0.062c0.13,0.021,0.25,0.03,0.38,0.041
    c0.12,0.01,0.25,0.02,0.38,0.02c0.271,0.021,0.54,0.012,0.83,0.012c0.271-0.021,0.56-0.029,0.851-0.063
    c0.569-0.049,1.142-0.129,1.682-0.209c0.271-0.051,0.527-0.09,0.777-0.131c0.25-0.039,0.48-0.08,0.701-0.119
    c0.439-0.07,0.799-0.142,1.062-0.18c0.26-0.041,0.409-0.07,0.409-0.07s-0.131,0.09-0.359,0.209c-0.229,0.131-0.569,0.301-0.99,0.471
    c-0.42,0.17-0.92,0.342-1.46,0.48c-0.279,0.069-0.562,0.129-0.859,0.188c-0.289,0.051-0.59,0.09-0.891,0.119
    c-0.312,0.021-0.609,0.041-0.92,0.03c-0.3,0-0.601-0.021-0.88-0.061c-0.29-0.041-0.57-0.102-0.82-0.182
    c-0.26-0.068-0.5-0.17-0.71-0.279c-0.1-0.039-0.199-0.102-0.29-0.16c-0.09-0.049-0.18-0.109-0.25-0.17
    c-0.149-0.109-0.27-0.229-0.358-0.318c-0.102-0.09-0.149-0.19-0.199-0.24c-0.04-0.061-0.063-0.09-0.063-0.09
    S162.17,331.189,162.23,331.23z M154.221,49.88c0.799-0.25,4.709-1.61,5.939-0.95c1.229,0.66,2.67,1.34,2.858,1.9
    c0,0-1.631-0.72-2.83-0.74c-1.199-0.03-4.931,0.42-6.5,1.17c0,0-0.34,0.2-0.271-0.2C153.42,51.06,153.42,50.13,154.221,49.88z
      M151.82,56.77c0,0,0.039,0.15,0.08,0.42c0.029,0.13,0.08,0.29,0.129,0.47c0.041,0.18,0.102,0.38,0.172,0.61
    c0.418,1.366,0.82,2.735,1.357,4.06c0.07,0.14,0.131,0.28,0.19,0.42c0.068,0.14,0.12,0.25,0.189,0.42
    c0.061,0.15,0.101,0.33,0.09,0.5c-0.012,0.17-0.069,0.34-0.159,0.48c-0.181,0.27-0.431,0.41-0.65,0.52
    c-0.22,0.1-0.439,0.16-0.63,0.2c-0.188,0.05-0.352,0.07-0.489,0.08c-0.271,0.02-0.431,0.02-0.431,0.02s0.148-0.03,0.41-0.12
    c0.26-0.08,0.63-0.2,1.01-0.43c0.181-0.12,0.37-0.27,0.46-0.46c0.102-0.19,0.09-0.41-0.01-0.63c-0.051-0.11-0.13-0.25-0.189-0.38
    c-0.607-1.229-0.99-2.54-1.301-3.87c-0.06-0.27-0.09-0.52-0.13-0.75s-0.061-0.44-0.08-0.64c-0.01-0.19-0.03-0.35-0.03-0.49
    C151.811,56.92,151.82,56.77,151.82,56.77z M152.59,63.63c1.021,0.31-0.898,1.15-2.12,0.55C150.47,64.18,151.58,63.32,152.59,63.63z
      M150.891,67.16c1.189,0,3,0.16,5.069,1.56l0.22,0.15l-0.17,0.21c-0.039,0.04-0.89,1.06-2.3,1.71c-1.33,0.61-2.22,0.98-3.9,0.98
    h-0.27c-1.66,0-2.46-0.37-3.8-0.98c-1.4-0.65-2.261-1.67-2.301-1.71l-0.17-0.21l0.23-0.15c2.06-1.4,3.87-1.56,5.06-1.56
    c0.62,0,0.99,0.07,1.2,0.19C149.96,67.23,150.3,67.16,150.891,67.16z M146.86,63.63c1.021-0.31,2.12,0.55,2.12,0.55
    C147.77,64.78,145.85,63.94,146.86,63.63z M145.889,62.732c0.617-1.67,1.365-3.338,1.751-5.072c0.05-0.19,0.101-0.34,0.12-0.48
    c0.05-0.26,0.09-0.41,0.09-0.41s0.01,0.15,0.01,0.43c0,0.13-0.01,0.3-0.029,0.49c-0.213,2.019-0.866,3.809-1.7,5.64
    c-0.101,0.22-0.11,0.44-0.021,0.63c0.101,0.19,0.29,0.34,0.471,0.46c0.38,0.23,0.75,0.35,1.01,0.43s0.41,0.12,0.41,0.12
    s-0.16,0-0.431-0.02c-0.14-0.02-0.31-0.04-0.489-0.08c-0.19-0.04-0.41-0.1-0.63-0.2c-0.221-0.11-0.471-0.25-0.65-0.52
    c-0.09-0.14-0.15-0.31-0.15-0.48c-0.02-0.18,0.021-0.35,0.08-0.5C145.782,63.024,145.834,62.878,145.889,62.732z M138.95,49.11
    c1.229-0.65,5.14,0.7,5.939,0.95s0.8,1.18,0.8,1.18c0.07,0.4-0.27,0.2-0.27,0.2c-1.57-0.74-5.3-1.2-6.5-1.17
    c-1.2,0.02-2.83,0.74-2.83,0.74C136.27,50.45,137.72,49.77,138.95,49.11z M141.15,55.728c-1.088-0.1-2.133-0.534-3.05-1.168
    c-0.13-0.09-0.2-0.16-0.21-0.18c0.01,0,0.11,0.04,0.25,0.1c0.17,0.06,0.4,0.14,0.68,0.23c0.141,0.05,0.301,0.1,0.46,0.15
    c0.16,0.05,0.341,0.08,0.511,0.13c0.18,0.04,0.359,0.09,0.55,0.12c0.14,0.03,0.28,0.05,0.43,0.07c-0.43-0.3-0.72-0.81-0.72-1.38
    c0-0.35,0.11-0.67,0.29-0.95c-0.24,0.02-0.49,0.05-0.72,0.09c-0.271,0.05-0.53,0.11-0.771,0.18c-0.25,0.07-0.479,0.13-0.689,0.21
    c-0.421,0.14-0.78,0.29-1.021,0.4s-0.38,0.18-0.38,0.18s0.1-0.12,0.3-0.3c1.644-1.479,4.303-2.021,6.292-0.951
    c0.771,0.413,1.439,0.948,1.958,1.651c0.141,0.19,0.22,0.31,0.24,0.34c-0.03-0.02-0.15-0.1-0.34-0.24
    c-0.101-0.08-0.25-0.17-0.391-0.27c-0.149-0.11-0.34-0.21-0.52-0.33c-0.1-0.06-0.2-0.11-0.311-0.17c-0.1-0.06-0.21-0.12-0.319-0.17
    c-0.09-0.04-0.19-0.09-0.29-0.12c0.05,0.14,0.07,0.29,0.07,0.45c0,0.64-0.351,1.19-0.87,1.48c0.149,0,0.31-0.01,0.449-0.03
    c0.141-0.01,0.28-0.02,0.4-0.04s0.22-0.03,0.31-0.04c0.181-0.02,0.28-0.03,0.28-0.03s-0.09,0.04-0.25,0.12
    c-0.08,0.04-0.18,0.09-0.29,0.14c-0.12,0.05-0.25,0.09-0.399,0.13c-0.07,0.02-0.15,0.05-0.23,0.07
    C142.28,55.743,141.709,55.779,141.15,55.728z M144.05,103.21c-0.18-0.11-0.4-0.25-0.65-0.4c-0.26-0.15-0.55-0.32-0.87-0.48
    c-0.159-0.09-0.34-0.17-0.51-0.24c-0.18-0.09-0.359-0.17-0.56-0.25c-0.19-0.08-0.38-0.16-0.59-0.23c-0.2-0.07-0.41-0.16-0.62-0.23
    c-0.431-0.15-0.88-0.27-1.34-0.39c-0.45-0.13-0.931-0.23-1.4-0.33c-0.47-0.1-0.95-0.18-1.42-0.24c-0.47-0.07-0.94-0.14-1.39-0.18
    c-0.45-0.05-0.891-0.09-1.311-0.12c-0.42-0.02-0.81-0.05-1.18-0.06c-1.46-0.07-2.46-0.05-2.46-0.05s0.24-0.07,0.67-0.15
    s1.04-0.17,1.78-0.23c0.369-0.03,0.779-0.05,1.199-0.05c0.431-0.01,0.881-0.02,1.351,0.01c0.46,0.03,0.939,0.05,1.43,0.12
    c0.49,0.06,0.98,0.14,1.47,0.23c0.49,0.1,0.98,0.22,1.45,0.36c0.24,0.06,0.48,0.14,0.7,0.22c0.23,0.08,0.45,0.16,0.67,0.25
    s0.43,0.18,0.64,0.28c0.2,0.09,0.4,0.19,0.591,0.29c0.189,0.1,0.38,0.2,0.55,0.31c0.17,0.1,0.34,0.21,0.49,0.31
    c0.159,0.11,0.31,0.21,0.439,0.31c0.14,0.11,0.26,0.21,0.38,0.31c0.24,0.19,0.431,0.37,0.59,0.52c0.261,0.27,0.42,0.45,0.46,0.49
    C144.56,103.56,144.36,103.43,144.05,103.21z M156.08,76.42c-0.33,0.23-0.82,0.55-1.439,0.88c-0.301,0.17-0.641,0.34-1,0.51
    c-0.371,0.17-0.761,0.34-1.17,0.48c-1.82,0.622-3.681,0.69-5.491,0c-1.471-0.491-2.927-1.257-4.129-2.239
    c1.195,0.528,2.424,1.02,3.668,1.418c1.078,0.345,2.229,0.708,3.373,0.664c0.809-0.031,1.594-0.227,2.367-0.453
    c0.41-0.12,0.8-0.25,1.171-0.38c0.369-0.13,0.709-0.26,1.029-0.38c0.319-0.13,0.62-0.24,0.88-0.35c0.261-0.1,0.479-0.2,0.67-0.27
    c0.351-0.15,0.562-0.24,0.58-0.25C156.57,76.07,156.391,76.21,156.08,76.42z M156.508,55.353c-0.304-0.06-0.598-0.146-0.878-0.263
    c-0.12-0.05-0.21-0.1-0.29-0.14c-0.16-0.08-0.25-0.13-0.25-0.13s0.102,0.01,0.28,0.03c0.08,0.02,0.188,0.03,0.31,0.05
    s0.25,0.02,0.4,0.04c0.141,0.02,0.29,0.03,0.448,0.03c-0.521-0.29-0.879-0.85-0.879-1.479c0-0.16,0.029-0.31,0.068-0.46
    c-0.1,0.04-0.189,0.08-0.279,0.13c-0.108,0.05-0.229,0.11-0.33,0.17c-0.101,0.05-0.209,0.11-0.301,0.16
    c-0.188,0.13-0.369,0.22-0.52,0.33c-0.15,0.11-0.29,0.19-0.4,0.28c-0.18,0.14-0.31,0.22-0.34,0.24
    c0.178-0.117,0.328-0.451,0.467-0.618c0.174-0.211,0.36-0.41,0.564-0.593c0.438-0.392,0.942-0.704,1.485-0.924
    c1.059-0.428,2.276-0.524,3.387-0.253c0.925,0.226,1.896,0.676,2.597,1.338c0.2,0.19,0.301,0.3,0.301,0.3s-0.141-0.06-0.381-0.17
    c-0.25-0.11-0.6-0.26-1.021-0.4c-0.678-0.226-1.465-0.486-2.182-0.472c0.18,0.283,0.28,0.595,0.28,0.932c0,0.58-0.28,1.08-0.72,1.39
    c0.149-0.02,0.289-0.04,0.438-0.07c0.189-0.03,0.369-0.08,0.551-0.12c0.17-0.05,0.351-0.09,0.511-0.14
    c0.159-0.05,0.311-0.09,0.448-0.14c0.279-0.09,0.521-0.17,0.682-0.23c0.148-0.06,0.238-0.1,0.26-0.1
    c-0.021,0.01-0.09,0.08-0.21,0.18C159.829,55.234,158.057,55.655,156.508,55.353z M169.4,100.06c-0.371,0.01-0.771,0.04-1.182,0.06
    c-0.42,0.03-0.859,0.07-1.31,0.12c-0.461,0.04-0.922,0.11-1.393,0.17c-0.479,0.07-0.949,0.15-1.43,0.25
    c-0.47,0.1-0.939,0.2-1.398,0.32c-0.451,0.13-0.899,0.25-1.33,0.4c-0.221,0.07-0.42,0.15-0.631,0.23
    c-0.199,0.07-0.398,0.15-0.59,0.23c-0.188,0.08-0.371,0.16-0.551,0.24s-0.359,0.16-0.51,0.25c-0.33,0.16-0.62,0.33-0.882,0.47
    c-0.25,0.16-0.469,0.3-0.648,0.41c-0.311,0.22-0.51,0.35-0.55,0.38c0.028-0.04,0.188-0.22,0.46-0.49c0.16-0.15,0.351-0.33,0.58-0.52
    c0.12-0.1,0.25-0.2,0.38-0.31c0.141-0.1,0.29-0.2,0.438-0.31c0.16-0.1,0.319-0.21,0.5-0.31c0.17-0.11,0.352-0.21,0.541-0.31
    c0.188-0.1,0.391-0.2,0.601-0.29c0.199-0.1,0.41-0.19,0.63-0.28s0.439-0.17,0.67-0.25c0.229-0.08,0.46-0.16,0.7-0.22
    c0.47-0.14,0.96-0.26,1.449-0.36s0.979-0.17,1.471-0.23c0.49-0.07,0.971-0.09,1.438-0.12c0.472-0.03,0.92-0.02,1.341-0.02
    c0.431,0.01,0.829,0.03,1.2,0.06c0.738,0.06,1.358,0.15,1.778,0.23c0.431,0.08,0.671,0.14,0.671,0.14S170.859,99.99,169.4,100.06z"
    />
    </svg>