<?xml version="1.0" encoding="utf-8"?>
<!-- Generator: Adobe Illustrator 23.0.4, SVG Export Plug-In . SVG Version: 6.00 Build 0)  -->
<svg version="1.1" id="Layer_1" xmlns="http://www.w3.org/2000/svg" xmlns:xlink="http://www.w3.org/1999/xlink" x="0px" y="0px"
	 viewBox="0 0 500 501.6" style="enable-background:new 0 0 500 501.6;" xml:space="preserve">
<style type="text/css">
	.st0{fill:#DBEFF1;}
	.st1{fill:#F5A990;}
	.st2{fill:#04AAAA;}
	.st3{fill:#FFFFFF;}
	.st4{fill:#0BA09C;}
	.st5{fill:#4DB3B9;}
	.st6{fill:url(#SVGID_1_);}
	.st7{fill:url(#SVGID_2_);}
	.st8{fill:url(#SVGID_3_);}
	.st9{fill:none;stroke:#403E56;stroke-width:1.79;stroke-miterlimit:10;}
	.st10{fill:#403E56;}
	.st11{fill:#1C1E3C;}
	.st12{fill:#10B4BA;}
	.st13{fill:url(#SVGID_4_);}
</style>
<title>Untitled-3</title>
<path class="st0" d="M27.1,483.6c-25.5,12.3,52.1,19.5,80.2,17.7l123.7-7.9c5.4-0.3,19.5-0.5,15.4-3.9
	C225.2,472.2,60.7,467.3,27.1,483.6z"/>
<rect x="98.6" y="479.5" class="st1" width="6.9" height="5.8"/>
<polygon class="st2" points="97.9,484.4 97.9,490.2 114.3,490.2 114.3,488.1 105.8,484.4 "/>
<path class="st0" d="M464.1,386.9c-6.5,9.4-13.7,16.2-21.5,19.7c-61.4,27.3-79.3-42.7-238.6,13.6c-12.4,4.4-25,8.1-37.7,11.1
	C76,452.2,35.6,416.2,22.9,386.9c-5.1-11.9-5.7-22.6-3.2-28c9.4-20.4,0.8-53.8-17.1-149.2S64,82.5,125.7,67.5
	c39.6-9.6,58.8-22.8,67.5-31c10.1-9.7,22.1-17.3,35.3-22.3c88.8-33.1,131.9-3.3,184.8,38.9c11.7,9.3,23.9,19.3,37,29.2
	C519.6,134.5,508.9,322,464.1,386.9z"/>
<path class="st3" d="M450.4,122.3v228.9c0,9.3-7.5,16.8-16.8,16.8l0,0H86c-9.3,0-16.8-7.5-16.9-16.8v-229c0-9.3,7.5-16.8,16.8-16.8
	h347.6C442.8,105.5,450.3,113.1,450.4,122.3L450.4,122.3L450.4,122.3z"/>
<path class="st4" d="M96.2,479.5l15.6-49c0,0,0.8-28-4-43.2c-3.2-10.1-3-21.9-2.5-28.6c0.2-3.4,0.6-5.4,0.6-5.4l34.7,15.7
	c0,0-6.8,57-7.5,61.5S107.5,480,107.5,480"/>
<path class="st5" d="M450.4,122.3v5.6H69.1v-5.6c0-9.3,7.5-16.8,16.8-16.8h347.6C442.8,105.5,450.3,113,450.4,122.3L450.4,122.3
	L450.4,122.3z"/>
<linearGradient id="SVGID_1_" gradientUnits="userSpaceOnUse" x1="411.3082" y1="579.8583" x2="409.4282" y2="660.9683" gradientTransform="matrix(1 0 0 1 1.000000e-02 -480)">
	<stop  offset="0" style="stop-color:#010101;stop-opacity:0"/>
	<stop  offset="0.91" style="stop-color:#010101;stop-opacity:0.8"/>
	<stop  offset="1" style="stop-color:#010101"/>
</linearGradient>
<path class="st6" d="M414.5,117.9c0,2-1.6,3.6-3.6,3.6s-3.6-1.6-3.6-3.6s1.6-3.6,3.6-3.6l0,0l0,0
	C412.9,114.3,414.5,115.9,414.5,117.9L414.5,117.9L414.5,117.9L414.5,117.9z"/>
<linearGradient id="SVGID_2_" gradientUnits="userSpaceOnUse" x1="421.6049" y1="580.0892" x2="419.715" y2="661.2092" gradientTransform="matrix(1 0 0 1 1.000000e-02 -480)">
	<stop  offset="0" style="stop-color:#010101;stop-opacity:0"/>
	<stop  offset="0.91" style="stop-color:#010101;stop-opacity:0.8"/>
	<stop  offset="1" style="stop-color:#010101"/>
</linearGradient>
<path class="st7" d="M424.8,117.9c0,2-1.6,3.6-3.6,3.6s-3.6-1.6-3.6-3.6s1.6-3.6,3.6-3.6l0,0l0,0
	C423.2,114.3,424.8,115.9,424.8,117.9L424.8,117.9L424.8,117.9L424.8,117.9z"/>
<linearGradient id="SVGID_3_" gradientUnits="userSpaceOnUse" x1="431.7973" y1="580.3281" x2="429.9173" y2="661.438" gradientTransform="matrix(1 0 0 1 1.000000e-02 -480)">
	<stop  offset="0" style="stop-color:#010101;stop-opacity:0"/>
	<stop  offset="0.91" style="stop-color:#010101;stop-opacity:0.8"/>
	<stop  offset="1" style="stop-color:#010101"/>
</linearGradient>
<path class="st8" d="M435,117.9c0,2-1.6,3.6-3.6,3.6s-3.6-1.6-3.6-3.6s1.6-3.6,3.6-3.6l0,0l0,0C433.4,114.3,435,115.9,435,117.9
	L435,117.9L435,117.9L435,117.9z"/>
<path class="st1" d="M115.5,325.9l-7.8,14c-1.1-0.7-2.1-1.5-3-2.4c-6.1-5.6-18.4-20.9-6.5-45c0,0,5.5-15,8.6-21.4c0.4-1,1-2,1.7-2.8
	C110.3,267,115.5,325.9,115.5,325.9z"/>
<ellipse transform="matrix(0.8209 -0.5711 0.5711 0.8209 -102.1229 120.8423)" class="st9" cx="141.6" cy="223.2" rx="8.5" ry="16.9"/>
<polygon class="st10" points="150.2,237.9 155.4,245 158.1,243 152.9,236.4 "/>
<rect x="157.9" y="236.5" transform="matrix(0.7657 -0.6432 0.6432 0.7657 -122.0325 161.3363)" class="st11" width="5.1" height="23.4"/>
<path class="st1" d="M132,219.7c0,0,2.2,5,4,10.4c0.5,1.4,3.2,2.3,3.6,3.6c0.8,2.7-1.3,3.5-1.4,5c-0.3,5.2,1.6,10.8-7.2,14
	c-7.7,2.8-4.6,15.4-4.6,15.4s-9.9,4.4-14.2-1.1c0,0,1.6-16.6-5.3-30.8S118.7,206.1,132,219.7z"/>
<path class="st12" d="M137.7,355.5h-29.1c-4.5-0.1-6.4-1-6.3-5.4c0.2-8.1,0-64.4,2.2-77c1.3-7.8,7-9.3,8.3-9.5h0.2
	c0,0,8.7,0.7,12.2,0.7c3.8,0,8.5,5.6,8.5,5.6s3,11.5,5.6,21.4c1.3,4.8,2.5,9.2,3.3,11.6c1.6,5.1,3.4,28.8,4.4,42.6
	c0.3,5.2-3.6,9.8-8.9,10.1L137.7,355.5L137.7,355.5z"/>
<linearGradient id="SVGID_4_" gradientUnits="userSpaceOnUse" x1="98.88" y1="229.2226" x2="132.0525" y2="229.2226" gradientTransform="matrix(1 0 0 1 0 2)">
	<stop  offset="0.33" style="stop-color:#804728"/>
	<stop  offset="1" style="stop-color:#593923"/>
</linearGradient>
<path class="st13" d="M132,219.7l-3.2-0.4c-0.1,2.1-1.2,4-2.9,5.1c-0.4-0.6-1-1.2-1.7-1.5c-1.2,1.4,0.2,3.4,0.2,5.2
	c-0.1,0.9-0.2,1.7-0.5,2.5c-0.5,1.8-0.6,3.7-0.2,5.6c-1.2-0.1-1.8-1.7-3-2s-2,0.8-2.3,1.9c-0.6,2.6,1,5.1,3.6,5.8h0.2
	c0.3,0,0.6,0.1,0.8,0.3c0.1,0.2,0.1,0.4,0.1,0.5c0,2.3-0.4,4.6-1.2,6.9c-0.8,2.2-2.4,4-4.6,5.1c-1.5,0.6-3.5,0.6-4.3-0.8
	c0.1,0.7-0.8,1.3-1.5,1.2c-0.7-0.2-1.3-0.7-1.7-1.4c-2.3-3.4-2.9-7.7-4.3-11.6c-1.2-3.4-3-6.6-4.4-9.9s-2.4-7-1.8-10.6
	c0.9-5.3,4.9-9.5,10.2-10.7c1-0.1,1.9-0.4,2.8-0.7c0.8-0.4,1.5-0.9,2.3-1.5c1.6-0.8,3.3-1.2,5-1.3c1.8-0.1,3.6-0.1,5.4,0.1
	c6.7,0.5,6.4,6.9,6.9,8.3C131.7,216.2,132.3,219.7,132,219.7z"/>
<path class="st3" d="M144.7,285.5c-1.4-0.9-2.4-2.2-3.1-3.7C142.5,283.2,143.5,284.4,144.7,285.5z"/>
<path class="st1" d="M130.1,277.5c1.1,1,7.1,7,7.1,7c0.8-1.4,19.3-27.9,20.4-29.5c0.1-2.1,0.6-4.1,1.5-6c2.1-4.8,5.8-7.8,8.2-6.7
	s2.6,5.8,0.5,10.5c-0.9,2-2.1,3.8-3.7,5.3c-1.4,3.7-14.3,39.2-21.4,41.9c-7.5,2.9-18-7.4-24.1-14.3
	C117.1,284.5,124.8,273.2,130.1,277.5z"/>
<path class="st2" d="M110.1,271.3c4.6-6.9,23.4-0.2,24.6,3.9s-8.6,17.1-11.5,17.3S105.6,278,110.1,271.3z"/>
<rect x="152.9" y="479.5" class="st1" width="6.9" height="5.8"/>
<polygon class="st2" points="152.2,484.4 152.2,490.2 168.6,490.2 168.6,488.1 160.1,484.4 "/>
<path class="st2" d="M162.2,480.2c0,0,5.2-51,1.4-67.9c-1.2-5.4-14.7-33.4-20.7-46.9c-1.4-3.2-3.6-9.6-5.2-10.2h-32.1
	c0,0-2,11.8,9.7,29.8s31.9,42.5,31.9,42.5l3.7,53h6"/>
</svg>
