<?xml version="1.0" encoding="utf-8"?>
<!-- Generator: Adobe Illustrator 23.0.4, SVG Export Plug-In . SVG Version: 6.00 Build 0)  -->
<svg version="1.1" id="Layer_1" xmlns="http://www.w3.org/2000/svg" xmlns:xlink="http://www.w3.org/1999/xlink" x="0px" y="0px"
	 viewBox="0 0 500 406.7" style="enable-background:new 0 0 500 406.7;" xml:space="preserve">
<style type="text/css">
	.st0{fill:#FFEBEE;}
	.st1{fill:#F5A990;}
	.st2{fill:#EF5350;}
	.st3{fill:#F95C58;}
	.st4{fill:#E53935;}
	.st5{opacity:0.44;fill:url(#SVGID_1_);enable-background:new    ;}
	.st6{fill:#4DB3B9;}
	.st7{fill:#10B4BA;}
	.st8{fill:url(#SVGID_2_);}
	.st9{fill:#04AAAA;}
</style>
<path class="st0" d="M300.4,75.6c75.8,30.2,79.7-11.6,100-16.4c48.2-11.5,34.2,50.9,46.3,71.7c9,15.4,20.1,29.4,28.9,44.9
	s15.2,33.1,13.4,50.8c-3.7,36-39.4,61.3-47.4,96.6c-5,22.1,0.6,48.2-14.1,65.4c-11.4,13.4-30.9,15.9-48.4,16.9
	c-22.4,1.3-44.8,1.5-67.2,0.8c-29.1-1-59-3.9-84.7-17.6c-15.3-8.2-28.5-19.9-43-29.5s-31.5-17.2-48.8-15.5c-9.1,0.9-17.9,4.2-27,4
	c-16.2-0.5-29.6-12.3-40.9-23.9C39.8,295.1,14.7,262.4,4.7,224c-7.3-28.4-6-58.3,3.7-86c5.9-16.6,17-22.9,27.2-35.5
	c10-12.4,22.5-21.5,32.3-34.1C188.3-85.9,281.4,68.1,300.4,75.6z"/>
<title>Untitled-2</title>
<path class="st1" d="M102.8,83.1c-1.1-1-30.5-22.1-32-23.2c-0.9-1.7-2-3.2-3.4-4.6c-3.4-3.4-7.3-5-8.7-3.6s0.2,5.3,3.6,8.7
	c1.4,1.4,3,2.6,4.8,3.5c2.4,2.7,27.1,29.3,33.4,29.9"/>
<path class="st1" d="M142.9,76.1c0.6-1.2,13.5-34,14.1-35.5c1.2-1.1,2.3-2.5,3.1-3.9c2.1-3.7,2.6-7.3,1.1-8.2s-4.4,1.4-6.5,5.1
	c-0.9,1.5-1.5,3.2-1.9,4.9c-1.8,2.7-18.6,29.8-17.7,35.3"/>
<path class="st2" d="M496.4,379.2H29.1V76.1c0-2,1.6-3.6,3.6-3.6c2,0,3.6,1.6,3.6,3.6v295.8h460c2-0.1,3.7,1.4,3.8,3.4
	c0.1,2-1.4,3.7-3.4,3.8C496.6,379.2,496.5,379.2,496.4,379.2L496.4,379.2z"/>
<path class="st3" d="M496.4,379.2H29.1"/>
<path class="st4" d="M447.8,344.6c0.2,8.7,0.5,14.2,1,14.6c0.1,0.1-0.3,0.2-1.1,0.3c-1.5,0.2-4.7,0.3-9.2,0.4
	c-24.1,0.6-87.5,0.6-156.3,0.5c-48.1-0.1-98.9-0.4-140.7-0.6c-53.4-0.3-92.2-0.5-92.2-0.5V136.6c0,0,19-38.4,50.8-20.1
	c36.6,21,47.7,172.8,118.2,151.7c63.1-18.9,81.9-119.9,115.4-141.6c28.5-18.4,50.1,16.5,67.8,35.7c16.2,17.5,47.2,28.1,47.2,28.1
	s-0.6,36.9-1,76.3C447.6,296.1,447.5,327,447.8,344.6z"/>
<linearGradient id="SVGID_1_" gradientUnits="userSpaceOnUse" x1="275.4116" y1="222.1393" x2="269.7516" y2="443.3093" gradientTransform="matrix(1 0 0 1 -23.6 -64.16)">
	<stop  offset="0" style="stop-color:#FFFFFF;stop-opacity:0"/>
	<stop  offset="0.84" style="stop-color:#FFFFFF;stop-opacity:0.84"/>
	<stop  offset="0.97" style="stop-color:#FFFFFF"/>
</linearGradient>
<path class="st5" d="M448.8,267c0,0-0.6,37.8-1,77.6c0,5-0.1,9.9-0.1,14.9c-22.9,2.3-398.3-0.2-398.3-0.2v-146
	c0,0,19-38.5,50.8-20.2c36.6,21,44,141.8,114.6,120.6c63.1-18.9,85.5-88.8,119.1-110.6c28.5-18.4,50.1,16.5,67.8,35.7
	c14.5,15.7,40.9,25.8,46.2,27.8L448.8,267z"/>
<path class="st6" d="M101.6,81l-1.3,10c-0.1,0.8-3.2,2-2.9,2.8c1.2,1.3,2.6,2.6,4,3.7c13.4,12.5,26.3,26.4,32.4,43.7
	c0.3,1.2,1,2.3,2,3c1,0.4,2.2,0.3,3.2-0.1c7.7-2.1,15-5.9,21.2-10.9c0.9-0.6,1.6-1.4,2.1-2.3c1-2,0.1-4.5-0.9-6.5
	c-3.5-7.4-7.4-14.5-11.7-21.4c-1.5-2.1-2.7-4.4-3.7-6.8c-0.9-3.1-1.3-6.4-1.2-9.7l-0.2-8.7c0-0.7-0.1-1.4-0.4-2
	c-0.3-0.5-0.7-0.9-1.2-1.2l-7.9-5.9l-3.7,13.8c-0.3,1.5-0.9,2.9-1.9,4.1c-2.6,2.6-9.7,3.6-13.3,3C110.8,88.6,105.6,84,101.6,81z"/>
<path class="st7" d="M101.6,81l-1.3,10c-0.1,0.8-3.2,2-2.9,2.8c1.2,1.3,2.6,2.6,4,3.7c13.4,12.5,26.3,26.4,32.4,43.7
	c0.3,1.2,1,2.3,2,3c1,0.4,2.2,0.3,3.2-0.1c7.7-2.1,15-5.9,21.2-10.9c0.9-0.6,1.6-1.4,2.1-2.3c1-2,0.1-4.5-0.9-6.5
	c-3.5-7.4-7.4-14.5-11.7-21.4c-1.5-2.1-2.7-4.4-3.7-6.8c-0.9-3.1-1.3-6.4-1.2-9.7l-0.2-8.7c0-0.7-0.1-1.4-0.4-2
	c-0.3-0.5-0.7-0.9-1.2-1.2l-7.9-5.9l-3.7,13.8c-0.3,1.5-0.9,2.9-1.9,4.1c-2.6,2.6-9.7,3.6-13.3,3C110.8,88.6,105.6,84,101.6,81z"/>
<path class="st1" d="M130.2,71.5c0.4,3.4,0.2,6.9-0.8,10.2c-0.3,0.8-1.1,1.1-1.8,1.8c-1,1-1.4,2.4-1,3.8c0.2,0.6,0.4,1.1,0.8,1.5
	c0.4,0.4,0.6,1.1,0.4,1.6c-0.9,1.7-2.9,2.5-4.8,2c-3-0.7-5-3.4-6.4-6.2c-1.8-3.8-3.2-7.8-4-11.9c-0.8-3.7,2.2-7.7,5.5-9.1
	c2.9-1.2,6.2-1,8.9,0.7c1.2,0.7,2.1,1.7,2.6,3C130.1,69.7,130.2,70.6,130.2,71.5z"/>
<linearGradient id="SVGID_2_" gradientUnits="userSpaceOnUse" x1="120.3262" y1="323.1768" x2="120.3262" y2="352.6157" gradientTransform="matrix(1 0 0 -1 0 408)">
	<stop  offset="0.33" style="stop-color:#804728"/>
	<stop  offset="1" style="stop-color:#593923"/>
</linearGradient>
<path class="st8" d="M132.2,62.5c0,2.3-1.4,4.4-3.6,5.1c-1.3,0.1-2.5,0.4-3.8,0.7c-0.4,0.2-0.8,0.5-1.2,0.7
	c-0.5,0.2-0.9,0.2-1.4,0.2c-2.1,0-4.1,0.5-5.9,1.5c-0.3,0.2-0.5,0.4-0.7,0.7c-0.1,0.3-0.2,0.7-0.1,1l0.3,5.2l-1.2-1
	c-0.2-0.2-0.5-0.3-0.7-0.1c-0.1,0.1-0.1,0.2-0.1,0.3c0,0.7,0.1,1.4,0.2,2.1c0.2,0.7,0.7,1.2,1.3,1.5c0.1,0,0.2,0.1,0.3,0.2
	c0,0.1,0,0.2,0,0.4l0.1,3.6v0.2c-0.2,0-0.4,0-0.5-0.1c-1-0.9-1.7-2.1-2.1-3.4c-0.1-0.2-0.2-0.4-0.3-0.6c-0.2-0.1-0.4-0.3-0.6-0.4
	c-0.7-0.4-1.3-1-1.7-1.8c-0.8-1.3-1.5-2.7-1.9-4.1c-0.5-1.5-0.4-3.1,0.3-4.5c0.1-0.1,0.2-0.3,0.2-0.5c0-0.2-0.1-0.3-0.2-0.5
	c-0.3-0.9-0.1-2,0.7-2.6c0.7-0.6,1.6-1,2.6-1.3c0.1-1.5,0.8-2.9,2-3.9c1.2-0.9,2.6-1.5,4.1-1.8c1.3-0.3,2.8-0.6,3.5-1.9
	c0.1-0.4,0.3-0.8,0.5-1.1c0.8-0.9,2.1-0.2,2.9,0.4c0.1-2.4,2.7-1.6,3.9-0.6C131.1,57.9,132.2,60.1,132.2,62.5z"/>
<rect x="186.4" y="198.9" transform="matrix(0.7721 -0.6355 0.6355 0.7721 -84.7413 165.98)" class="st1" width="5.2" height="4.4"/>
<polygon class="st9" points="187.6,204.3 190.4,207.6 199.9,199.8 198.9,198.6 192.2,200.5 "/>
<rect x="179.5" y="168" transform="matrix(9.654066e-02 -0.9953 0.9953 9.654066e-02 -5.6339 335.0025)" class="st1" width="4.4" height="5.2"/>
<polygon class="st9" points="178.5,171.8 178.1,176.2 190.4,177.4 190.5,175.8 184.4,172.4 "/>
<path class="st9" d="M184.4,202.7l-24.8-25.1c-9.8-9.9-20-20.3-24.4-33.5l27.1-13.4c0,0,22.6,11.8,25.9,14s2.6,8.4,1.5,12.7
	s-2.6,11.8-2.6,11.8l-9.2-1l0.6-14.4l-18.4-5l17.3,27.9l14.1,20.8L184.4,202.7z"/>
<path class="st2" d="M205.5,263.7c-12.5,0-23.6-7-33.7-21c-11.4-15.9-20.3-39-28.9-61.5c-11.5-30-23.4-61.1-40.3-70.8
	c-12-6.9-23.7-7-34.7-0.4c-5.2,3.2-9.8,7.3-13.4,12.2c-1.2,1.7-3.4,2.1-5.1,0.9c-1.6-1.1-2.1-3.4-1-5c0.2-0.3,23.5-33.8,57.8-14
	c19.1,11,30.9,41.8,43.5,74.5c17.3,45,33.6,87.5,66.7,75.8c35.6-12.6,55.6-50.8,73.2-84.6c12.5-24,23.4-44.7,38.1-53.6
	c33.4-20.2,58.7,10,75.4,30c1.9,2.3,3.7,4.4,5.5,6.4c11.9,13.7,41.3,25.3,41.6,25.5c1.9,0.6,3,2.7,2.4,4.6c-0.6,1.9-2.7,3-4.6,2.4
	c-0.1,0-0.2-0.1-0.3-0.1l-0.2-0.1c-1.3-0.5-31.4-12.4-44.4-27.5c-1.8-2-3.6-4.2-5.5-6.5c-16.9-20.2-38-45.4-66-28.5
	c-13,7.8-23.9,28.7-35.4,50.7c-18.3,34.9-39,74.5-77.2,88C214.6,262.8,210,263.7,205.5,263.7z"/>
</svg>
