<?xml version="1.0" encoding="utf-8"?>
<!-- Generator: Adobe Illustrator 16.0.3, SVG Export Plug-In . SVG Version: 6.00 Build 0)  -->
<!DOCTYPE svg PUBLIC "-//W3C//DTD SVG 1.1//EN" "http://www.w3.org/Graphics/SVG/1.1/DTD/svg11.dtd">
<svg version="1.1" id="Layer_1" xmlns="http://www.w3.org/2000/svg" xmlns:xlink="http://www.w3.org/1999/xlink" x="0px" y="0px"
	 width="231.92px" height="232.319px" viewBox="-0.001 0 231.92 232.319" enable-background="new -0.001 0 231.92 232.319"
	 xml:space="preserve">
<linearGradient id="SVGID_1_" gradientUnits="userSpaceOnUse" x1="235.1587" y1="-395.9924" x2="617.8165" y2="-175.0649" gradientTransform="matrix(1 0 0 -1 -290.6602 -180.6421)">
	<stop  offset="0" style="stop-color:#4CB3BA"/>
	<stop  offset="0.607" style="stop-color:#009EA9"/>
</linearGradient>
<path fill="url(#SVGID_1_)" d="M231.919,28.509v175.697c0,15.531-12.58,28.111-28.111,28.111H28.111
	c-5.646,0-10.917-1.663-15.297-4.521c-1.101-0.705-2.155-1.502-3.139-2.365c-4.637-4.055-7.964-9.581-9.16-15.887
	c-0.116-0.537-0.21-1.074-0.279-1.638C0.094,206.69,0,205.471,0,204.207V28.509c0-0.21,0-0.442,0.024-0.654
	C0.352,12.627,12.79,0.398,28.111,0.398h175.697c0.376,0,0.75,0,1.126,0.022c7.87,0.307,14.897,3.843,19.817,9.324
	c0.891,0.983,1.709,2.013,2.411,3.138c1.572,2.32,2.789,4.874,3.586,7.614c0.258,0.842,0.468,1.687,0.634,2.576
	C231.733,24.831,231.919,26.658,231.919,28.509z"/>
<g>
	<path fill="#F2F2F2" d="M51.771,0.398c-5.43,6-11.76,11.64-19.07,16.77c-9.2,6.37-20.03,11.86-32.7,15.88v-2.949
		c20.71-6.811,36.22-17.521,47.86-29.7H51.771z"/>
</g>
<g>
	<path fill="#F2F2F2" d="M138.966,0c-0.023,0.143-0.071,0.256-0.094,0.398c-3.773,16.068-11.387,37.038-26.8,55.659
		c-6.207,7.497-13.632,14.572-22.653,20.804c-19.797,13.727-47.016,23.262-84.475,23.518H2.179c-0.726,0-1.451,0.022-2.179,0.048
		v-2.788c0.728-0.023,1.453-0.046,2.203-0.046h2.835C99,96.936,127.391,36.404,135.989,0.398c0.025-0.143,0.07-0.256,0.094-0.398
		H138.966z"/>
	<path fill="#F2F2F2" d="M54.632,0.398c-44.82,32.8-49.15,87.7-49.59,97.189c-0.05,0.82-0.05,1.32-0.05,1.36
		c0,0.09,0,0.59-0.05,1.43c-0.19,3.87-1.01,15.37-4.94,29.92v-12.3c1.62-8.53,2.06-14.899,2.18-17.62v-1.43c0-0.04,0-0.54,0.02-1.36
		c0.38-7.96,3.47-47.88,30.5-80.42c4.9-5.92,10.61-11.59,17.25-16.77H54.632z"/>
</g>
<g>
	<path fill="#F2F2F2" d="M205.051,0c-0.048,0.143-0.094,0.281-0.116,0.421c-4.546,15.509-5.437,27.972-5.575,32.046
		c-0.026,0.844-0.026,1.335-0.026,1.406c0,0.094,0,0.538-0.046,1.407c-0.352,7.963-3.397,47.811-30.43,80.422
		c-6.208,7.448-13.636,14.545-22.653,20.776c-19.82,13.703-47.019,23.284-84.475,23.52h-2.766
		c-23.497,0.141-42.916,4.029-58.965,10.354v-3.067c16.142-6.164,35.608-9.934,59.035-10.099h2.764
		C187.106,156.368,195.89,48.89,196.476,35.28c0.048-0.87,0.048-1.313,0.048-1.407c0-0.071,0-0.563,0.046-1.406
		c0.188-4.074,1.054-16.513,5.504-32.068c0.048-0.117,0.07-0.256,0.118-0.398H205.051z"/>
	<path fill="#F2F2F2" d="M231.919,29.539v2.836c-9.907,1.804-20.754,2.833-32.631,2.906h-2.812
		C71.169,36.123,62.433,143.625,61.799,157.187c-0.046,0.867-0.046,1.313-0.046,1.404c0,0.097,0,0.563-0.022,1.406
		c-0.306,7.311-2.928,41.536-24.319,72.319h-3.466c21.997-30.478,24.669-65.01,25.02-72.319c0.048-0.844,0.048-1.311,0.048-1.406
		c0-0.092,0-0.537,0.022-1.404c0.376-7.918,3.397-47.79,30.384-80.326c6.209-7.473,13.679-14.618,22.653-20.804
		c19.865-13.773,47.087-23.355,84.499-23.591h2.789C211.212,32.398,222.035,31.368,231.919,29.539z"/>
</g>
<g>
	<path fill="#F2F2F2" d="M231.919,161.943v5.107c-1.921,2.787-4.006,5.573-6.277,8.291c-6.187,7.449-13.612,14.478-22.537,20.641
		c-19.841,13.847-47.084,23.405-84.545,23.639h-2.811c-26.26,0.188-47.414,5.016-64.468,12.697h-6.629
		c18.249-9.303,41.511-15.296,71.191-15.483h2.741C180.337,216.411,213.787,190.148,231.919,161.943z"/>
	<path fill="#F2F2F2" d="M231.919,93.352v2.811C126.9,108.299,119.169,203.997,118.585,216.834
		c-0.024,0.819-0.024,1.312-0.024,1.404v1.382c-0.094,2.155-0.398,6.63-1.334,12.697h-2.788c0.937-6.044,1.217-10.542,1.311-12.697
		c0.046-0.817,0.046-1.313,0.046-1.382c0-0.094,0-0.585,0.048-1.404c0.352-7.966,3.373-47.792,30.361-80.354
		c6.209-7.473,13.703-14.597,22.653-20.776C184.693,104.667,205.239,96.375,231.919,93.352z"/>
</g>
<g>
	<path fill="#F2F2F2" d="M231.919,171.291v3.351c-25.04,15.575-38.98,37.833-46.758,57.678h-2.974
		c4.498-11.83,11.127-24.575,20.918-36.336c6.161-7.38,13.61-14.432,22.537-20.641C227.655,173.938,229.742,172.579,231.919,171.291
		z"/>
</g>
<radialGradient id="SVGID_2_" cx="406.0322" cy="-349.1228" r="70.994" gradientTransform="matrix(1 0 0 -1 -290.6602 -180.6421)" gradientUnits="userSpaceOnUse">
	<stop  offset="0.34" style="stop-color:#333333;stop-opacity:0.6"/>
	<stop  offset="1" style="stop-color:#000000"/>
</radialGradient>
<path opacity="0.3" fill="url(#SVGID_2_)" enable-background="new    " d="M203.221,119.871c0,53.701-39.326,97.22-87.849,97.22
	c-48.521,0-87.849-43.519-87.849-97.22"/>
<radialGradient id="SVGID_3_" cx="406.6182" cy="-296.9998" r="87.8489" gradientTransform="matrix(1 0 0 -1 -290.6602 -180.6421)" gradientUnits="userSpaceOnUse">
	<stop  offset="0.925" style="stop-color:#FFFFFF"/>
	<stop  offset="1" style="stop-color:#CCCCCC"/>
</radialGradient>
<path fill="url(#SVGID_3_)" d="M203.807,116.356c0,48.521-39.325,87.851-87.849,87.851c-48.521,0-87.849-39.328-87.849-87.851
	c0-48.521,39.327-87.848,87.849-87.848C164.481,28.509,203.807,67.834,203.807,116.356z"/>
<linearGradient id="SVGID_4_" gradientUnits="userSpaceOnUse" x1="406.6182" y1="-189.6296" x2="406.6182" y2="-400.7087" gradientTransform="matrix(1 0 0 -1 -290.6602 -180.6421)">
	<stop  offset="0.28" style="stop-color:#FFFFFF"/>
	<stop  offset="1" style="stop-color:#666666"/>
</linearGradient>
<circle fill="url(#SVGID_4_)" cx="115.958" cy="116.356" r="73.792"/>
<radialGradient id="SVGID_5_" cx="49.4053" cy="1283.1589" r="67.9358" gradientTransform="matrix(-1 0 0 1 165.3633 -1166.8027)" gradientUnits="userSpaceOnUse">
	<stop  offset="0.595" style="stop-color:#666666"/>
	<stop  offset="1" style="stop-color:#333333"/>
</radialGradient>
<circle fill="url(#SVGID_5_)" cx="115.958" cy="116.356" r="67.936"/>
<linearGradient id="SVGID_6_" gradientUnits="userSpaceOnUse" x1="406.6172" y1="-216.8972" x2="406.6172" y2="-374.3698" gradientTransform="matrix(1 0 0 -1 -290.6602 -180.6421)">
	<stop  offset="0.28" style="stop-color:#FFFFFF"/>
	<stop  offset="1" style="stop-color:#666666"/>
</linearGradient>
<path fill="url(#SVGID_6_)" d="M170.191,106.963c-4.428-25.934-27.036-45.657-54.233-45.657c-30.408,0-55.052,24.643-55.052,55.051
	c0,30.409,24.644,55.052,55.052,55.052c9.019,0,17.524-2.155,25.018-6.021c17.827-9.09,30.034-27.644,30.034-49.03
	C171.01,113.146,170.726,110.008,170.191,106.963z M132.38,157.727c-5.084,2.014-10.611,3.139-16.422,3.139
	c-24.575,0-44.509-19.935-44.509-44.51c0-24.574,19.934-44.509,44.509-44.509c20.52,0,37.835,13.913,42.941,32.818
	c1.029,3.725,1.569,7.659,1.569,11.689C160.469,135.12,148.848,151.191,132.38,157.727z"/>
<radialGradient id="SVGID_7_" cx="406.6191" cy="-296.9998" r="44.509" gradientTransform="matrix(1 0 0 -1 -290.6602 -180.6421)" gradientUnits="userSpaceOnUse">
	<stop  offset="0.845" style="stop-color:#1A1A1A"/>
	<stop  offset="0.8853" style="stop-color:#1F1F1F"/>
	<stop  offset="0.9353" style="stop-color:#2F2F2F"/>
	<stop  offset="0.9903" style="stop-color:#484848"/>
	<stop  offset="1" style="stop-color:#4D4D4D"/>
</radialGradient>
<path fill="url(#SVGID_7_)" d="M160.469,116.356c0,16.772-9.256,31.369-22.96,38.958c-6.37,3.538-13.727,5.552-21.55,5.552
	c-22.396,0-40.904-16.515-44.042-38.021c-0.303-2.133-0.467-4.287-0.467-6.488c0-1.336,0.068-2.671,0.187-3.982
	c0.938-10.635,5.624-20.192,12.697-27.338c0.091-0.094,0.188-0.21,0.301-0.304c8.039-7.966,19.095-12.884,31.324-12.884
	c14.147,0,26.73,6.584,34.884,16.842c4.823,6.091,8.08,13.495,9.206,21.578c0.091,0.702,0.164,1.404,0.232,2.105
	C160.4,113.685,160.469,115.02,160.469,116.356z"/>
<radialGradient id="SVGID_8_" cx="406.6191" cy="-296.9983" r="37.4819" gradientTransform="matrix(1 0 0 -1 -290.6602 -180.6421)" gradientUnits="userSpaceOnUse">
	<stop  offset="0.845" style="stop-color:#1A1A1A"/>
	<stop  offset="0.8853" style="stop-color:#1F1F1F"/>
	<stop  offset="0.9353" style="stop-color:#2F2F2F"/>
	<stop  offset="0.9903" style="stop-color:#484848"/>
	<stop  offset="1" style="stop-color:#4D4D4D"/>
</radialGradient>
<path fill="url(#SVGID_8_)" d="M153.441,116.356c0,20.713-16.771,37.481-37.483,37.481s-37.481-16.77-37.481-37.481
	s16.769-37.481,37.481-37.481S153.441,95.644,153.441,116.356z"/>
<g>
	
		<radialGradient id="SVGID_9_" cx="406.6182" cy="-296.9988" r="30.4539" gradientTransform="matrix(1 0 0 -1 -290.6602 -180.6421)" gradientUnits="userSpaceOnUse">
		<stop  offset="0.845" style="stop-color:#1A1A1A"/>
		<stop  offset="0.8853" style="stop-color:#1F1F1F"/>
		<stop  offset="0.9353" style="stop-color:#2F2F2F"/>
		<stop  offset="0.9903" style="stop-color:#484848"/>
		<stop  offset="1" style="stop-color:#4D4D4D"/>
	</radialGradient>
	<path fill="url(#SVGID_9_)" d="M146.412,116.356c0,16.828-13.626,30.454-30.454,30.454s-30.454-13.626-30.454-30.454
		c0-16.827,13.626-30.453,30.454-30.453S146.412,99.529,146.412,116.356z"/>
</g>
<radialGradient id="SVGID_10_" cx="406.6182" cy="-296.9993" r="22.2544" gradientTransform="matrix(1 0 0 -1 -290.6602 -180.6421)" gradientUnits="userSpaceOnUse">
	<stop  offset="0.845" style="stop-color:#1A1A1A"/>
	<stop  offset="0.8853" style="stop-color:#1F1F1F"/>
	<stop  offset="0.9353" style="stop-color:#2F2F2F"/>
	<stop  offset="0.9903" style="stop-color:#484848"/>
	<stop  offset="1" style="stop-color:#4D4D4D"/>
</radialGradient>
<path fill="url(#SVGID_10_)" d="M138.212,116.356c0,12.297-9.96,22.256-22.254,22.256c-12.3,0-22.254-9.959-22.254-22.256
	c0-12.296,9.955-22.254,22.254-22.254C128.252,94.102,138.212,104.06,138.212,116.356z"/>
<radialGradient id="SVGID_11_" cx="406.6182" cy="-296.9983" r="17.5693" gradientTransform="matrix(1 0 0 -1 -290.6602 -180.6421)" gradientUnits="userSpaceOnUse">
	<stop  offset="0.28" style="stop-color:#1A1A1A"/>
	<stop  offset="0.66" style="stop-color:#000000"/>
	<stop  offset="1" style="stop-color:#1A1A1A"/>
</radialGradient>
<path fill="url(#SVGID_11_)" d="M133.528,116.356c0,9.707-7.867,17.569-17.57,17.569c-9.709,0-17.57-7.862-17.57-17.569
	c0-9.706,7.861-17.569,17.57-17.569C125.662,98.787,133.528,106.65,133.528,116.356z"/>
<radialGradient id="SVGID_12_" cx="396.0771" cy="-202.1233" r="0" gradientTransform="matrix(1 0 0 -1 -290.6602 -180.6421)" gradientUnits="userSpaceOnUse">
	<stop  offset="0.595" style="stop-color:#666666"/>
	<stop  offset="1" style="stop-color:#000000"/>
</radialGradient>
<polygon fill="url(#SVGID_12_)" points="105.417,21.481 105.417,21.481 105.417,21.481 "/>
<path opacity="0.2" fill="#D9E4FA" enable-background="new    " d="M160.048,110.267c-7.687,10.12-19.868,16.631-33.549,16.631
	c-23.192,0-42.002-18.718-42.166-41.862c8.057-8.151,19.229-13.188,31.625-13.188C138.491,71.847,157.069,88.549,160.048,110.267z"
	/>
<path opacity="0.1" fill="#D9E4FA" enable-background="new    " d="M71.87,122.446c7.682-10.12,19.867-16.631,33.547-16.631
	c23.192,0,42.002,18.718,42.167,41.861c-8.06,8.151-19.236,13.188-31.626,13.188C93.42,160.866,74.843,144.164,71.87,122.446z"/>
<path opacity="0.1" fill="#D9E4FA" enable-background="new    " d="M105.417,105.815c0,11.645-9.44,21.083-21.084,21.083
	c-4.64,0-8.95-1.501-12.417-4.055c-0.303-2.132-0.467-4.286-0.467-6.487c0-1.336,0.068-2.671,0.187-3.982
	c0.938-10.635,5.624-20.192,12.697-27.338c0.091-0.094,0.188-0.21,0.301-0.304C96.137,84.896,105.417,94.267,105.417,105.815z"/>
<path fill="#D9E4FA" fill-opacity="0" d="M160.469,116.356c0,16.772-9.256,31.369-22.96,38.958
	c-6.817-7.497-11.009-17.477-11.009-28.416c0-16.915,9.957-31.509,24.343-38.208c4.823,6.091,8.08,13.495,9.206,21.578
	c0.091,0.702,0.164,1.404,0.232,2.105C160.4,113.685,160.469,115.02,160.469,116.356z"/>
<radialGradient id="SVGID_13_" cx="427.7012" cy="-275.9153" r="8.1997" gradientTransform="matrix(1 0 0 -1 -290.6602 -180.6421)" gradientUnits="userSpaceOnUse">
	<stop  offset="0.925" style="stop-color:#FFFFFF"/>
	<stop  offset="1" style="stop-color:#CCCCCC"/>
</radialGradient>
<path fill="url(#SVGID_13_)" d="M145.241,95.273c0,4.526-3.674,8.199-8.199,8.199c-4.531,0-8.2-3.673-8.2-8.199
	c0-4.527,3.669-8.199,8.2-8.199C141.567,87.074,145.241,90.746,145.241,95.273z"/>
<radialGradient id="SVGID_14_" cx="383.1924" cy="-315.74" r="3.5149" gradientTransform="matrix(1 0 0 -1 -290.6602 -180.6421)" gradientUnits="userSpaceOnUse">
	<stop  offset="0.925" style="stop-color:#FFFFFF"/>
	<stop  offset="1" style="stop-color:#CCCCCC"/>
</radialGradient>
<circle fill="url(#SVGID_14_)" cx="92.532" cy="135.098" r="3.515"/>
</svg>
