<?xml version="1.0" encoding="UTF-8" standalone="no"?>
<!DOCTYPE svg PUBLIC "-//W3C//DTD SVG 1.1//EN" "http://www.w3.org/Graphics/SVG/1.1/DTD/svg11.dtd">
<svg width="100%" height="100%" viewBox="0 0 5755 4449" version="1.1" xmlns="http://www.w3.org/2000/svg" xmlns:xlink="http://www.w3.org/1999/xlink" xml:space="preserve" xmlns:serif="http://www.serif.com/" style="fill-rule:evenodd;clip-rule:evenodd;stroke-linecap:round;stroke-linejoin:round;stroke-miterlimit:1.5;">
    <g id="Artboard1" transform="matrix(2.10636,0,0,2.17188,0,0)">
        <rect x="0" y="0" width="2732" height="2048" style="fill:none;"/>
        <g transform="matrix(1.66456,0,0,1.61435,-139.942,-394.701)">
            <g id="Artboard11" serif:id="Artboard1">
                <g>
                    <g transform="matrix(1,0,0,1,-108.612,179.868)">
                        <path d="M1722.2,768.164C1760.56,540.893 1614.43,323.323 1389.54,272.864C1323.88,258.134 1257.34,243.204 1196.07,229.457C1020.94,190.163 840.281,181.814 662.27,204.788C559.803,218.012 447.211,232.543 361.582,243.594C324.745,248.348 291.33,267.609 268.753,297.102C246.176,326.595 236.306,363.879 241.332,400.68C243.653,417.674 246.066,435.337 248.496,453.126C268.05,596.285 264.807,741.637 238.888,883.782C236.756,895.475 234.597,907.311 232.43,919.196C220.43,985.009 241.201,1052.55 288.111,1100.24C335.021,1147.94 402.205,1169.83 468.208,1158.92C565.281,1142.88 670.606,1125.47 756.252,1111.32C872.477,1092.11 990.722,1088.26 1107.95,1099.87C1240.09,1112.95 1417.43,1130.51 1534.36,1142.08C1603.43,1148.92 1666.01,1101.11 1677.56,1032.66C1689.72,960.637 1705.89,864.784 1722.2,768.164Z" style="fill:rgb(224,239,242);"/>
                        <g>
                            <clipPath id="_clip1">
                                <path d="M1722.2,768.164C1760.56,540.893 1614.43,323.323 1389.54,272.864C1323.88,258.134 1257.34,243.204 1196.07,229.457C1020.94,190.163 840.281,181.814 662.27,204.788C559.803,218.012 447.211,232.543 361.582,243.594C324.745,248.348 291.33,267.609 268.753,297.102C246.176,326.595 236.306,363.879 241.332,400.68C243.653,417.674 246.066,435.337 248.496,453.126C268.05,596.285 264.807,741.637 238.888,883.782C236.756,895.475 234.597,907.311 232.43,919.196C220.43,985.009 241.201,1052.55 288.111,1100.24C335.021,1147.94 402.205,1169.83 468.208,1158.92C565.281,1142.88 670.606,1125.47 756.252,1111.32C872.477,1092.11 990.722,1088.26 1107.95,1099.87C1240.09,1112.95 1417.43,1130.51 1534.36,1142.08C1603.43,1148.92 1666.01,1101.11 1677.56,1032.66C1689.72,960.637 1705.89,864.784 1722.2,768.164Z"/>
                            </clipPath>
                            <g clip-path="url(#_clip1)">
                                <g transform="matrix(1,0,0,1,54.8722,-136.614)">
                                    <rect x="267.057" y="660.448" width="288.358" height="766.771" style="fill:white;fill-opacity:0.49;"/>
                                </g>
                                <g transform="matrix(1,0,0,1,108.612,-179.868)">
                                    <rect x="112.804" y="925.652" width="52.778" height="181.404" style="fill:rgb(239,247,248);stroke:rgb(239,247,248);stroke-width:4px;"/>
                                </g>
                                <g transform="matrix(1,0,0,1,108.612,-179.868)">
                                    <path d="M552.509,1147.19L552.509,918.283L570.133,899.489L597.9,899.489L597.9,804.627L713.851,838.791L713.851,736.365L723.624,736.365L723.624,841.67L749.935,849.423L749.935,777.741L759.708,777.741L759.708,852.302L781.328,858.672L781.328,899.489L800.157,899.489L800.157,1558.01L552.509,1558.01L552.509,1247.54L509.609,1247.54L509.609,1147.19L552.509,1147.19Z" style="fill:rgb(239,247,248);"/>
                                </g>
                                <g transform="matrix(0.789038,0,0,0.885124,319.611,-60.5136)">
                                    <path d="M1015.71,768L897.619,768C890.317,768 883.315,770.586 878.152,775.188C872.989,779.791 870.088,786.033 870.088,792.542L870.088,1038.99L1015.71,1038.99L1015.71,768Z" style="fill:rgb(239,247,248);"/>
                                </g>
                                <g transform="matrix(0.294318,0,0,0.591246,809.815,146.78)">
                                    <path d="M1009.48,799.13L1009.48,746.479L971.955,746.479L954.981,759.443L954.981,799.13L1009.48,799.13Z" style="fill:rgb(239,247,248);"/>
                                </g>
                                <g transform="matrix(2.05345,0,0,1.71523,-1016.31,-1112.95)">
                                    <path d="M1115.93,1138.37L1040.86,1009.9L1035.6,1149.74L937.483,1149.74L937.483,1304.59L1067.84,1304.59L1115.93,1138.37Z" style="fill:rgb(239,247,248);"/>
                                </g>
                                <g transform="matrix(1,0,0,0.486093,108.612,530.689)">
                                    <path d="M605.731,971.25L419.717,971.25L386.169,1037.58L386.169,1382.66L605.731,1382.66L605.731,971.25Z" style="fill:rgb(215,234,238);"/>
                                </g>
                                <g transform="matrix(1,0,0,1,96.8152,-177.68)">
                                    <rect x="268.049" y="1163.33" width="92.678" height="234.291" style="fill:rgb(215,234,238);"/>
                                </g>
                                <g transform="matrix(1,0,0,0.853114,-238.467,23.2244)">
                                    <path d="M605.731,1003.25C605.731,985.577 593.508,971.25 578.431,971.25L386.169,971.25L386.169,1382.66L605.731,1382.66L605.731,1003.25Z" style="fill:rgb(215,234,238);"/>
                                </g>
                                <g transform="matrix(0.204017,0,0,1.15431,855.12,-334.351)">
                                    <path d="M605.731,971.25L386.169,1004.21L386.169,1382.66L605.731,1382.66L605.731,971.25Z" style="fill:rgb(215,234,238);"/>
                                </g>
                                <g transform="matrix(0.584,0,0,1.15431,753.177,-334.351)">
                                    <rect x="386.169" y="971.25" width="219.562" height="411.406" style="fill:rgb(215,234,238);"/>
                                </g>
                                <g transform="matrix(70,0,0,70,1018.12,782.914)">
                                    <path d="M0.642,0L0.496,0L0.496,-0.305L0.21,-0.305L0.21,0L0.063,0L0.063,-0.711L0.21,-0.711L0.21,-0.423L0.496,-0.423L0.496,-0.711L0.642,-0.711L0.642,0Z" style="fill:rgb(215,234,238);fill-rule:nonzero;"/>
                                </g>
                                <g transform="matrix(1,0,0,1,108.612,-179.868)">
                                    <path d="M1430.21,828.885C1430.21,852.902 1449.68,872.373 1473.7,872.373L1473.7,1372.89L1430.21,1372.89L1430.21,1356.58L1042.84,1356.58L1042.84,1113.09C1042.84,1010.36 1083.65,911.827 1156.3,839.181C1228.94,766.535 1327.47,725.723 1430.21,725.723L1430.21,828.885Z" style="fill:rgb(239,247,248);stroke:rgb(239,247,248);stroke-width:4px;"/>
                                </g>
                                <g transform="matrix(1,0,0,1,98.6117,-179.868)">
                                    <rect x="1529.34" y="901.398" width="171.875" height="307.362" style="fill:rgb(239,247,248);stroke:rgb(239,247,248);stroke-width:4px;"/>
                                </g>
                                <g transform="matrix(1,0,0,1,108.612,-179.868)">
                                    <path d="M1410.64,1372.89L1357.74,1372.89L1357.74,966.867C1357.74,958.924 1360.9,951.306 1366.51,945.689C1372.13,940.072 1379.75,936.917 1387.69,936.917C1395.64,936.917 1403.26,940.072 1408.87,945.689C1414.49,951.306 1417.64,958.924 1417.64,966.867L1417.64,1111L1442.47,1111L1473.7,1045.11L1504.33,1097.28L1504.33,1111L1535.79,1111L1535.79,1071.09L1550.05,1055.34L1611.55,1055.34L1611.55,1111L1619.7,1111L1619.7,1396.18L1410.64,1396.18L1410.64,1372.89Z" style="fill:rgb(215,234,238);"/>
                                </g>
                                <g transform="matrix(1,0,0,1,108.612,-179.868)">
                                    <path d="M767.299,1241.55L825.294,1241.55L825.294,1441.53L605.731,1441.53L605.731,1241.55L668.89,1241.55L668.89,1208.76L767.299,1208.76L767.299,1241.55Z" style="fill:rgb(215,234,238);"/>
                                </g>
                                <g transform="matrix(1,0,0,1,108.612,-179.868)">
                                    <path d="M1067.48,870.406L1067.48,856.77L1130.39,856.77L1130.39,870.406L1182.83,870.406L1182.83,861.455C1182.83,852.255 1186.48,843.432 1192.99,836.926C1199.49,830.421 1208.32,826.766 1217.52,826.766L1266.3,826.766C1269.1,826.766 1271.79,827.88 1273.78,829.862C1275.76,831.845 1276.87,834.533 1276.87,837.337L1276.87,870.406L1312.31,870.406L1312.31,1315.41L1029.32,1315.41L1029.32,870.406L1067.48,870.406Z" style="fill:rgb(215,234,238);"/>
                                </g>
                            </g>
                        </g>
                    </g>
                    <g transform="matrix(1.82609,0,0,0.653793,-784.322,276.664)">
                        <rect x="940.985" y="790.927" width="20.098" height="8.203" style="fill:rgb(239,247,248);"/>
                    </g>
                    <g transform="matrix(0.823457,0,0,0.653793,175.352,271.301)">
                        <rect x="940.985" y="790.927" width="20.098" height="8.203" style="fill:rgb(239,247,248);"/>
                    </g>
                    <g transform="matrix(0.813401,0,0,1.16249,210.201,-188.427)">
                        <path d="M1233.67,1256.27L1233.67,659.918L1117.91,659.918L1117.91,1256.27" style="fill:none;stroke:black;stroke-width:3.99px;"/>
                    </g>
                    <g transform="matrix(0.813401,0,0,1.16249,210.201,-462.455)">
                        <path d="M1233.67,710.731L1117.91,659.918L1117.91,1425.69L1233.67,1425.69L1233.67,710.731Z" style="fill:none;stroke:rgb(73,73,73);stroke-width:3.99px;"/>
                    </g>
                    <path d="M1119.51,1178.49L1213.67,1084.34L1119.51,990.179L1213.67,896.022L1119.51,801.866L1213.67,707.709L1119.51,613.553" style="fill:none;stroke:rgb(73,73,73);stroke-width:4px;"/>
                    <g transform="matrix(-1,0,0,-1,2333.18,1792.04)">
                        <path d="M1119.51,1178.49L1213.67,1084.34L1119.51,990.179L1213.67,896.022L1119.51,801.866L1213.67,707.709L1119.51,613.553" style="fill:none;stroke:rgb(73,73,73);stroke-width:4px;"/>
                    </g>
                    <g transform="matrix(6.12323e-17,-1,1,6.12323e-17,-227.2,1678.65)">
                        <path d="M1119.51,1178.49L1166.59,1131.41L1166.59,1037.26L1119.51,990.179L1166.59,943.1L1166.59,848.944L1119.51,801.866L1166.59,754.788L1166.59,660.631L1119.51,613.553" style="fill:none;stroke:rgb(73,73,73);stroke-width:4px;"/>
                    </g>
                    <g transform="matrix(-6.12323e-17,1,-1,-6.12323e-17,1564.84,-654.535)">
                        <path d="M1166.59,1131.41L1213.67,1084.34L1166.59,1037.26L1166.59,943.1L1213.67,896.022L1166.59,848.944L1166.59,754.788L1213.67,707.709L1166.59,660.631" style="fill:none;stroke:rgb(73,73,73);stroke-width:4px;"/>
                    </g>
                    <g transform="matrix(1,0,0,1,0,-307.288)">
                        <path d="M1204.7,886.895L1119.51,801.866L1213.67,707.709L1119.51,613.553" style="fill:none;stroke:rgb(73,73,73);stroke-width:4px;"/>
                    </g>
                    <g transform="matrix(-1,0,0,-1,2333.18,1484.76)">
                        <path d="M1154.73,1143L1213.67,1084.34L1119.51,990.179L1202.79,910.102" style="fill:none;stroke:rgb(73,73,73);stroke-width:4px;"/>
                    </g>
                    <g transform="matrix(1,0,0,1,0,564.939)">
                        <path d="M1201.13,695.167L1119.51,613.553" style="fill:none;stroke:black;stroke-width:4px;"/>
                    </g>
                    <g transform="matrix(-1,0,0,-1,2333.18,2356.98)">
                        <path d="M1119.51,1178.49L1201.13,1096.88" style="fill:none;stroke:black;stroke-width:4px;"/>
                    </g>
                    <g transform="matrix(0.625421,0,0,1.54557,431.227,-663.12)">
                        <path d="M1233.67,1244.35L1233.67,665.741" style="fill:none;stroke:rgb(76,179,186);stroke-width:3.39px;"/>
                    </g>
                    <g transform="matrix(0.625421,0,0,1.54557,431.227,-663.12)">
                        <path d="M1117.91,638.873L1117.91,1244.35" style="fill:none;stroke:rgb(76,179,186);stroke-width:3.39px;"/>
                    </g>
                    <g transform="matrix(0.170343,0,0,0.452451,387.731,351.268)">
                        <rect x="475.719" y="518.176" width="966.796" height="22.583" style="fill:rgb(255,141,18);"/>
                    </g>
                    <g transform="matrix(1,0,0,1,0,1)">
                        <path d="M551.11,595.935L551.11,688.852" style="fill:none;stroke:rgb(73,73,73);stroke-width:4px;"/>
                    </g>
                    <g transform="matrix(1,0,0,-1,180.82,1811.04)">
                        <path d="M551.11,689.852L370.29,1121.18" style="fill:none;stroke:rgb(73,73,73);stroke-width:4px;"/>
                    </g>
                    <g>
                        <g transform="matrix(1,0,0,1,0,-1)">
                            <path d="M669.285,1065.27C669.285,1059.96 667.178,1054.88 663.427,1051.13C659.676,1047.38 654.589,1045.27 649.285,1045.27L445.68,1045.27C440.375,1045.27 435.288,1047.38 431.538,1051.13C427.787,1054.88 425.68,1059.96 425.68,1065.27L425.68,1101.18C425.68,1106.49 427.787,1111.58 431.538,1115.33C435.288,1119.08 440.375,1121.18 445.68,1121.18L649.285,1121.18C654.589,1121.18 659.676,1119.08 663.427,1115.33C667.178,1111.58 669.285,1106.49 669.285,1101.18L669.285,1065.27Z" style="fill:white;"/>
                        </g>
                        <g transform="matrix(1.07767,0,0,1,-33.0612,0)">
                            <path d="M530.4,1094.54C530.4,1090.73 527.534,1087.64 523.998,1087.64L425.68,1087.64L425.68,1101.44L523.998,1101.44C527.534,1101.44 530.4,1098.35 530.4,1094.54Z" style="fill:rgb(251,175,48);"/>
                        </g>
                        <g transform="matrix(1.60977,0,0,1,-259.565,-24.9697)">
                            <path d="M530.4,1094.54C530.4,1090.73 528.481,1087.64 526.114,1087.64L425.68,1087.64L425.68,1101.44L526.114,1101.44C528.481,1101.44 530.4,1098.35 530.4,1094.54Z" style="fill:rgb(184,189,87);"/>
                        </g>
                        <g transform="matrix(1,0,0,1,6.47537,-3.36)">
                            <circle cx="549.241" cy="1097.5" r="8.179" style="fill:rgb(229,115,83);"/>
                        </g>
                        <g transform="matrix(1,0,0,1,29.6068,-3.36)">
                            <circle cx="549.241" cy="1097.5" r="8.179" style="fill:rgb(229,115,83);"/>
                        </g>
                        <g transform="matrix(27.3015,0,0,-27.3015,603.677,1075.72)">
                            <path d="M0,0.621C0.302,0.279 0.794,-0.168 0.295,-0.611L0.415,-0.73L0.991,-0.154L0.109,0.73L0,0.621Z" style="fill:url(#_Linear2);fill-rule:nonzero;"/>
                        </g>
                        <g transform="matrix(13.2504,-22.9505,-22.9505,-13.2504,626.303,1073.29)">
                            <path d="M0.296,0.518L0.13,0.563L-0.093,-0.268L0.994,-0.563L1.037,-0.393C0.591,-0.244 0.08,-0.133 0.296,0.518Z" style="fill:url(#_Linear3);fill-rule:nonzero;"/>
                        </g>
                        <g transform="matrix(18.4496,-31.9557,-31.9557,-18.4496,619.024,1115.99)">
                            <path d="M0.03,0.451L0,0.339C0.32,0.231 0.848,0.051 0.693,-0.417L0.822,-0.451L0.993,0.186L0.03,0.451Z" style="fill:url(#_Linear4);fill-rule:nonzero;"/>
                        </g>
                    </g>
                    <g transform="matrix(1,0,0,1,-16,-79.0675)">
                        <g transform="matrix(1,0,0,1,0,-1)">
                            <path d="M669.285,1065.27C669.285,1059.96 667.178,1054.88 663.427,1051.13C659.676,1047.38 654.589,1045.27 649.285,1045.27L445.68,1045.27C440.375,1045.27 435.288,1047.38 431.538,1051.13C427.787,1054.88 425.68,1059.96 425.68,1065.27L425.68,1101.18C425.68,1106.49 427.787,1111.58 431.538,1115.33C435.288,1119.08 440.375,1121.18 445.68,1121.18L649.285,1121.18C654.589,1121.18 659.676,1119.08 663.427,1115.33C667.178,1111.58 669.285,1106.49 669.285,1101.18L669.285,1065.27Z" style="fill:white;"/>
                        </g>
                        <g transform="matrix(1.07767,0,0,1,-33.0612,0)">
                            <path d="M530.4,1094.54C530.4,1090.73 527.534,1087.64 523.998,1087.64L425.68,1087.64L425.68,1101.44L523.998,1101.44C527.534,1101.44 530.4,1098.35 530.4,1094.54Z" style="fill:rgb(251,175,48);"/>
                        </g>
                        <g transform="matrix(1.60977,0,0,1,-259.565,-24.9697)">
                            <path d="M530.4,1094.54C530.4,1090.73 528.481,1087.64 526.114,1087.64L425.68,1087.64L425.68,1101.44L526.114,1101.44C528.481,1101.44 530.4,1098.35 530.4,1094.54Z" style="fill:rgb(184,189,87);"/>
                        </g>
                        <g transform="matrix(1,0,0,1,6.47537,-3.36)">
                            <circle cx="549.241" cy="1097.5" r="8.179" style="fill:rgb(229,115,83);"/>
                        </g>
                        <g transform="matrix(1,0,0,1,29.6068,-3.36)">
                            <circle cx="549.241" cy="1097.5" r="8.179" style="fill:rgb(229,115,83);"/>
                        </g>
                        <g transform="matrix(27.3015,0,0,-27.3015,603.677,1075.72)">
                            <path d="M0,0.621C0.302,0.279 0.794,-0.168 0.295,-0.611L0.415,-0.73L0.991,-0.154L0.109,0.73L0,0.621Z" style="fill:url(#_Linear5);fill-rule:nonzero;"/>
                        </g>
                        <g transform="matrix(13.2504,-22.9505,-22.9505,-13.2504,626.303,1073.29)">
                            <path d="M0.296,0.518L0.13,0.563L-0.093,-0.268L0.994,-0.563L1.037,-0.393C0.591,-0.244 0.08,-0.133 0.296,0.518Z" style="fill:url(#_Linear6);fill-rule:nonzero;"/>
                        </g>
                        <g transform="matrix(18.4496,-31.9557,-31.9557,-18.4496,619.024,1115.99)">
                            <path d="M0.03,0.451L0,0.339C0.32,0.231 0.848,0.051 0.693,-0.417L0.822,-0.451L0.993,0.186L0.03,0.451Z" style="fill:url(#_Linear7);fill-rule:nonzero;"/>
                        </g>
                    </g>
                    <g transform="matrix(1,0,0,1,17,-158.746)">
                        <g transform="matrix(1,0,0,1,0,-1)">
                            <path d="M669.285,1065.27C669.285,1059.96 667.178,1054.88 663.427,1051.13C659.676,1047.38 654.589,1045.27 649.285,1045.27L445.68,1045.27C440.375,1045.27 435.288,1047.38 431.538,1051.13C427.787,1054.88 425.68,1059.96 425.68,1065.27L425.68,1101.18C425.68,1106.49 427.787,1111.58 431.538,1115.33C435.288,1119.08 440.375,1121.18 445.68,1121.18L649.285,1121.18C654.589,1121.18 659.676,1119.08 663.427,1115.33C667.178,1111.58 669.285,1106.49 669.285,1101.18L669.285,1065.27Z" style="fill:white;"/>
                        </g>
                        <g transform="matrix(1.07767,0,0,1,-33.0612,0)">
                            <path d="M530.4,1094.54C530.4,1090.73 527.534,1087.64 523.998,1087.64L425.68,1087.64L425.68,1101.44L523.998,1101.44C527.534,1101.44 530.4,1098.35 530.4,1094.54Z" style="fill:rgb(251,175,48);"/>
                        </g>
                        <g transform="matrix(1.60977,0,0,1,-259.565,-24.9697)">
                            <path d="M530.4,1094.54C530.4,1090.73 528.481,1087.64 526.114,1087.64L425.68,1087.64L425.68,1101.44L526.114,1101.44C528.481,1101.44 530.4,1098.35 530.4,1094.54Z" style="fill:rgb(184,189,87);"/>
                        </g>
                        <g transform="matrix(1,0,0,1,6.47537,-3.36)">
                            <circle cx="549.241" cy="1097.5" r="8.179" style="fill:rgb(229,115,83);"/>
                        </g>
                        <g transform="matrix(1,0,0,1,29.6068,-3.36)">
                            <circle cx="549.241" cy="1097.5" r="8.179" style="fill:rgb(229,115,83);"/>
                        </g>
                        <g transform="matrix(27.3015,0,0,-27.3015,603.677,1075.72)">
                            <path d="M0,0.621C0.302,0.279 0.794,-0.168 0.295,-0.611L0.415,-0.73L0.991,-0.154L0.109,0.73L0,0.621Z" style="fill:url(#_Linear8);fill-rule:nonzero;"/>
                        </g>
                        <g transform="matrix(13.2504,-22.9505,-22.9505,-13.2504,626.303,1073.29)">
                            <path d="M0.296,0.518L0.13,0.563L-0.093,-0.268L0.994,-0.563L1.037,-0.393C0.591,-0.244 0.08,-0.133 0.296,0.518Z" style="fill:url(#_Linear9);fill-rule:nonzero;"/>
                        </g>
                        <g transform="matrix(18.4496,-31.9557,-31.9557,-18.4496,619.024,1115.99)">
                            <path d="M0.03,0.451L0,0.339C0.32,0.231 0.848,0.051 0.693,-0.417L0.822,-0.451L0.993,0.186L0.03,0.451Z" style="fill:url(#_Linear10);fill-rule:nonzero;"/>
                        </g>
                    </g>
                    <path d="M551.11,689.852L370.29,1121.18" style="fill:none;stroke:rgb(73,73,73);stroke-width:4px;"/>
                    <g transform="matrix(1.34594,0,0,1,-453.909,-65.7545)">
                        <path d="M1254.4,679.83L1164.53,679.83C1139.67,679.83 1119.51,706.954 1119.51,740.414L1119.51,798.844L1254.4,798.844L1254.4,679.83Z" style="fill:rgb(76,179,186);"/>
                    </g>
                    <g transform="matrix(1.16872,0,0,1.05121,-206.117,-104.689)">
                        <rect x="1075.75" y="760.365" width="158.286" height="38.479" style="fill:rgb(255,141,18);"/>
                    </g>
                    <g transform="matrix(0.88854,0,0,1,137.828,-77.365)">
                        <rect x="1102.92" y="812.454" width="110.747" height="17.18" style="fill:rgb(76,179,186);"/>
                    </g>
                    <g transform="matrix(6.12323e-17,-1,1,6.12323e-17,638.138,1678.65)">
                        <path d="M1119.51,990.179L1166.59,943.1L1166.59,848.944L1119.51,801.866L1166.59,754.788L1166.59,660.631L1119.51,613.553" style="fill:none;stroke:rgb(73,73,73);stroke-width:4px;"/>
                    </g>
                    <g transform="matrix(-6.12323e-17,1,-1,-6.12323e-17,2430.18,-654.535)">
                        <path d="M1166.59,1131.41L1213.67,1084.34L1166.59,1037.26L1166.59,943.1L1213.67,896.022L1166.59,848.944L1166.59,801.866" style="fill:none;stroke:rgb(73,73,73);stroke-width:4px;"/>
                    </g>
                    <g transform="matrix(1,0,0,1,865.337,0)">
                        <path d="M433.431,512.057L433.431,559.135" style="fill:none;stroke:rgb(73,73,73);stroke-width:4px;"/>
                    </g>
                    <g transform="matrix(1,0,0,1,959.389,0)">
                        <path d="M433.431,512.057L433.431,559.135" style="fill:none;stroke:rgb(73,73,73);stroke-width:4px;"/>
                    </g>
                    <g transform="matrix(1,0,0,1,912.582,0)">
                        <path d="M433.431,512.057L433.431,559.135" style="fill:none;stroke:rgb(73,73,73);stroke-width:4px;"/>
                    </g>
                    <g transform="matrix(1,0,0,1,1006.63,0)">
                        <path d="M433.431,512.057L433.431,559.135" style="fill:none;stroke:rgb(73,73,73);stroke-width:4px;"/>
                    </g>
                    <g transform="matrix(1,0,0,1,1053.51,0)">
                        <path d="M433.431,512.057L433.431,559.135" style="fill:none;stroke:rgb(73,73,73);stroke-width:4px;"/>
                    </g>
                    <g transform="matrix(1,0,0,1,1147.57,0)">
                        <path d="M433.431,512.057L433.431,559.135" style="fill:none;stroke:rgb(73,73,73);stroke-width:4px;"/>
                    </g>
                    <g transform="matrix(1,0,0,1,8.24293,-10.4)">
                        <path d="M1644.84,505.425C1644.84,500.121 1642.73,495.033 1638.98,491.283C1635.23,487.532 1630.14,485.425 1624.84,485.425L1518.7,485.425C1513.4,485.425 1508.31,487.532 1504.56,491.283C1500.81,495.033 1498.7,500.121 1498.7,505.425L1498.7,606.758C1498.7,612.063 1500.81,617.15 1504.56,620.9C1508.31,624.651 1513.4,626.758 1518.7,626.758L1624.84,626.758C1630.14,626.758 1635.23,624.651 1638.98,620.9C1642.73,617.15 1644.84,612.063 1644.84,606.758L1644.84,505.425Z" style="fill:rgb(255,141,18);"/>
                    </g>
                    <g transform="matrix(0.393842,0,0,0.476378,173.369,874.337)">
                        <rect x="475.719" y="518.176" width="966.796" height="22.583" style="fill:rgb(255,141,18);"/>
                    </g>
                    <path d="M433.431,512.057L433.431,559.135" style="fill:none;stroke:rgb(73,73,73);stroke-width:4px;"/>
                    <g transform="matrix(1,0,0,1,47.1859,0)">
                        <path d="M433.431,512.057L433.431,559.135" style="fill:none;stroke:rgb(73,73,73);stroke-width:4px;"/>
                    </g>
                    <g transform="matrix(1,0,0,1,94.0519,0)">
                        <path d="M433.431,512.057L433.431,559.135" style="fill:none;stroke:rgb(73,73,73);stroke-width:4px;"/>
                    </g>
                    <g transform="matrix(1,0,0,1,188.177,0)">
                        <path d="M433.431,512.057L433.431,559.135" style="fill:none;stroke:rgb(73,73,73);stroke-width:4px;"/>
                    </g>
                    <g transform="matrix(1,0,0,1,282.229,0)">
                        <path d="M433.431,512.057L433.431,559.135" style="fill:none;stroke:rgb(73,73,73);stroke-width:4px;"/>
                    </g>
                    <g transform="matrix(1,0,0,1,376.618,0)">
                        <path d="M433.431,512.057L433.431,559.135" style="fill:none;stroke:rgb(73,73,73);stroke-width:4px;"/>
                    </g>
                    <g transform="matrix(1,0,0,1,423.673,0)">
                        <path d="M433.431,512.057L433.431,559.135" style="fill:none;stroke:rgb(73,73,73);stroke-width:4px;"/>
                    </g>
                    <g transform="matrix(1,0,0,1,141.122,0)">
                        <path d="M433.431,512.057L433.431,559.135" style="fill:none;stroke:rgb(73,73,73);stroke-width:4px;"/>
                    </g>
                    <g transform="matrix(1,0,0,1,235.174,0)">
                        <path d="M433.431,512.057L433.431,559.135" style="fill:none;stroke:rgb(73,73,73);stroke-width:4px;"/>
                    </g>
                    <g transform="matrix(1,0,0,1,329.564,0)">
                        <path d="M433.431,512.057L433.431,559.135" style="fill:none;stroke:rgb(73,73,73);stroke-width:4px;"/>
                    </g>
                    <g transform="matrix(1,0,0,1,470.67,0)">
                        <path d="M433.431,512.057L433.431,559.135" style="fill:none;stroke:rgb(73,73,73);stroke-width:4px;"/>
                    </g>
                    <g transform="matrix(1.36333,0,0,1.04613,-278.269,17.0578)">
                        <path d="M1442.52,518.176L484.383,518.176C479.598,518.176 475.719,523.231 475.719,529.467L475.719,529.468C475.719,535.704 479.598,540.759 484.383,540.759L1442.52,540.759L1442.52,518.176Z" style="fill:rgb(76,179,186);"/>
                    </g>
                    <path d="M527.483,512.057L1119.51,306.265L808.662,512.057" style="fill:none;stroke:rgb(73,73,73);stroke-width:4px;"/>
                    <path d="M1119.51,306.265L1504.98,512.057" style="fill:none;stroke:rgb(73,73,73);stroke-width:4px;"/>
                    <g transform="matrix(1,0,0,1,-16.3395,0)">
                        <rect x="345.153" y="671.442" width="104.573" height="32.26" style="fill:white;fill-opacity:0.49;"/>
                    </g>
                    <g transform="matrix(0.202009,0,0,1,394.825,0)">
                        <rect x="345.153" y="671.442" width="104.573" height="32.26" style="fill:white;fill-opacity:0.49;"/>
                    </g>
                    <rect x="180.725" y="891.121" width="19.005" height="140.558" style="fill:rgb(215,234,238);"/>
                    <g transform="matrix(1,0,0,1,-2.36354,8.36129)">
                        <circle cx="720.876" cy="1213.48" r="36.438" style="fill:rgb(215,234,238);"/>
                    </g>
                    <g transform="matrix(0.384152,0,0,0.3343,-291.704,57.9682)">
                        <path d="M4020.88,3732.49C4020.88,3657.1 3967.69,3595.99 3902.09,3595.99C3836.97,3595.99 3756.51,3595.99 3691.4,3595.99C3625.79,3595.99 3572.61,3657.1 3572.61,3732.49L3572.61,4166.15L4020.88,4166.15L4020.88,3732.49Z" style="fill:rgb(255,141,18);"/>
                    </g>
                </g>
            </g>
        </g>
    </g>
    <defs>
        <linearGradient id="_Linear2" x1="0" y1="0" x2="1" y2="0" gradientUnits="userSpaceOnUse" gradientTransform="matrix(1,0,0,1,0,-3.61873e-07)"><stop offset="0" style="stop-color:rgb(218,226,82);stop-opacity:1"/><stop offset="0.25" style="stop-color:rgb(218,226,82);stop-opacity:1"/><stop offset="1" style="stop-color:rgb(146,147,96);stop-opacity:1"/></linearGradient>
        <linearGradient id="_Linear3" x1="0" y1="0" x2="1" y2="0" gradientUnits="userSpaceOnUse" gradientTransform="matrix(1,0,0,1,0,-9.54031e-07)"><stop offset="0" style="stop-color:rgb(244,122,63);stop-opacity:1"/><stop offset="0.3" style="stop-color:rgb(252,177,50);stop-opacity:1"/><stop offset="1" style="stop-color:rgb(252,177,50);stop-opacity:1"/></linearGradient>
        <linearGradient id="_Linear4" x1="0" y1="0" x2="1" y2="0" gradientUnits="userSpaceOnUse" gradientTransform="matrix(1,0,0,1,0,-4.19031e-06)"><stop offset="0" style="stop-color:rgb(0,188,230);stop-opacity:1"/><stop offset="0.24" style="stop-color:rgb(0,188,230);stop-opacity:1"/><stop offset="1" style="stop-color:rgb(0,82,136);stop-opacity:1"/></linearGradient>
        <linearGradient id="_Linear5" x1="0" y1="0" x2="1" y2="0" gradientUnits="userSpaceOnUse" gradientTransform="matrix(1,0,0,1,0,-3.61873e-07)"><stop offset="0" style="stop-color:rgb(218,226,82);stop-opacity:1"/><stop offset="0.25" style="stop-color:rgb(218,226,82);stop-opacity:1"/><stop offset="1" style="stop-color:rgb(146,147,96);stop-opacity:1"/></linearGradient>
        <linearGradient id="_Linear6" x1="0" y1="0" x2="1" y2="0" gradientUnits="userSpaceOnUse" gradientTransform="matrix(1,0,0,1,0,-9.54031e-07)"><stop offset="0" style="stop-color:rgb(244,122,63);stop-opacity:1"/><stop offset="0.3" style="stop-color:rgb(252,177,50);stop-opacity:1"/><stop offset="1" style="stop-color:rgb(252,177,50);stop-opacity:1"/></linearGradient>
        <linearGradient id="_Linear7" x1="0" y1="0" x2="1" y2="0" gradientUnits="userSpaceOnUse" gradientTransform="matrix(1,0,0,1,0,-4.19031e-06)"><stop offset="0" style="stop-color:rgb(0,188,230);stop-opacity:1"/><stop offset="0.24" style="stop-color:rgb(0,188,230);stop-opacity:1"/><stop offset="1" style="stop-color:rgb(0,82,136);stop-opacity:1"/></linearGradient>
        <linearGradient id="_Linear8" x1="0" y1="0" x2="1" y2="0" gradientUnits="userSpaceOnUse" gradientTransform="matrix(1,0,0,1,0,-3.61873e-07)"><stop offset="0" style="stop-color:rgb(218,226,82);stop-opacity:1"/><stop offset="0.25" style="stop-color:rgb(218,226,82);stop-opacity:1"/><stop offset="1" style="stop-color:rgb(146,147,96);stop-opacity:1"/></linearGradient>
        <linearGradient id="_Linear9" x1="0" y1="0" x2="1" y2="0" gradientUnits="userSpaceOnUse" gradientTransform="matrix(1,0,0,1,0,-9.54031e-07)"><stop offset="0" style="stop-color:rgb(244,122,63);stop-opacity:1"/><stop offset="0.3" style="stop-color:rgb(252,177,50);stop-opacity:1"/><stop offset="1" style="stop-color:rgb(252,177,50);stop-opacity:1"/></linearGradient>
        <linearGradient id="_Linear10" x1="0" y1="0" x2="1" y2="0" gradientUnits="userSpaceOnUse" gradientTransform="matrix(1,0,0,1,0,-4.19031e-06)"><stop offset="0" style="stop-color:rgb(0,188,230);stop-opacity:1"/><stop offset="0.24" style="stop-color:rgb(0,188,230);stop-opacity:1"/><stop offset="1" style="stop-color:rgb(0,82,136);stop-opacity:1"/></linearGradient>
    </defs>
</svg>
