<?xml version="1.0" encoding="utf-8"?>
<!-- Generator: Adobe Illustrator 23.0.4, SVG Export Plug-In . SVG Version: 6.00 Build 0)  -->
<svg version="1.1" id="Layer_1" xmlns="http://www.w3.org/2000/svg" xmlns:xlink="http://www.w3.org/1999/xlink" x="0px" y="0px"
	 viewBox="0 0 1000 1018.1" style="enable-background:new 0 0 1000 1018.1;" xml:space="preserve">
<style type="text/css">
	.st0{fill:#DCEFF2;}
	.st1{fill:#292944;}
	.st2{fill:#403E56;}
	.st3{fill:#F5AB91;}
	.st4{fill:#04AAAA;}
	.st5{fill:#F49C86;}
	.st6{fill:#00B3BA;}
	.st7{fill:#00ABAC;}
	.st8{fill:url(#SVGID_1_);}
</style>
<title>Untitled-1</title>
<path class="st0" d="M733.8,122.2c55.6,50.1,92,120.1,150.5,220.6c58.7,100.5,139.7,231.7,109,309.8S819.6,756,684.7,807.2
	s-262,128.3-378.9,113.3S82.1,798.5,55.3,680.1c-27.1-118.7,25.4-248.6,63.2-367C156.1,194.7,179,87.9,244.7,39.5
	s174.5-38,266.6-17.9C603.3,42,678.2,72.1,733.8,122.2z"/>
<path class="st1" d="M5.3,890.4l16.8-125.1h161v44H74l-6.2,48.6c5.7-2.8,11.7-4.9,17.9-6.2c7.1-1.8,14.4-2.7,21.7-2.7
	c27.3,0,48.4,7.2,63.1,21.6c14.7,14.4,22,34.6,22,60.6c0.2,15-3.9,29.8-11.8,42.6c-7.9,12.7-19,22.5-33.2,29.3
	c-14.2,6.8-31.1,10.2-50.5,10.2c-16.7,0.1-33.2-3.1-48.6-9.5c-15.1-6.3-27-15-35.6-26C4.2,967.2-0.2,954,0,940.4h63.9
	c0.6,8.9,3.8,16,9.6,21.3s13.4,7.9,22.9,7.9c21.4,0,32.2-14.1,32.2-42.2c0-26.1-13.1-39.1-39.3-39.1c-14.8,0-25.9,4.2-33.3,12.7
	L5.3,890.4z"/>
<path class="st1" d="M417,909.9c0,33.1-8.4,58.5-25.1,76.5c-16.7,17.9-40.2,26.9-70.6,26.9c-30.7,0-54.4-9-71.1-27.1
	c-16.7-18-25.1-43.5-25.2-76.3v-44.7c0-33,8.4-58.5,25.1-76.5c16.7-17.9,40.3-26.9,70.9-26.9c30.5,0,54.1,9,70.9,27
	c16.8,18,25.1,43.5,25.1,76.5V909.9z M353.3,858c0-17.6-2.6-30.7-7.8-39.4c-5.2-8.7-13.4-13-24.5-13c-11,0-18.9,4-23.9,12.1
	c-5,8.1-7.7,20.3-8,36.6v62.5c0,18.3,2.6,31.6,7.8,40.1s13.4,12.7,24.6,12.7c10.8,0,18.8-4.1,24-12.3c5.2-8.2,7.8-21.1,7.9-38.7
	L353.3,858z"/>
<path class="st1" d="M453.9,890.4l16.8-125.1h160.9v44H522.6l-6.2,48.6c5.7-2.8,11.7-4.9,17.9-6.2c7.1-1.8,14.4-2.7,21.7-2.7
	c27.3,0,48.4,7.2,63.1,21.6c14.7,14.4,22.1,34.6,22,60.6c0.2,15-3.9,29.8-11.8,42.6c-7.9,12.7-18.9,22.5-33.2,29.3
	c-14.2,6.8-31.1,10.3-50.5,10.2c-16.7,0.1-33.2-3.1-48.6-9.5c-15.1-6.3-27-15-35.5-26c-8.4-10.6-12.9-23.8-12.7-37.3h63.9
	c0.6,8.9,3.8,16,9.7,21.3c5.8,5.3,13.4,7.9,22.9,7.9c21.4,0,32.2-14.1,32.2-42.2c0-26.1-13.1-39.1-39.3-39.1
	c-14.9,0-26,4.2-33.3,12.7L453.9,890.4z"/>
<path class="st2" d="M12.2,890.4L29,765.3h161v44H80.8l-6.2,48.6c5.7-2.8,11.7-4.9,17.9-6.2c7.1-1.8,14.4-2.7,21.7-2.7
	c27.3,0,48.4,7.2,63.1,21.6c14.7,14.4,22,34.6,22,60.6c0.2,15-3.9,29.8-11.8,42.6c-7.9,12.7-18.9,22.5-33.2,29.3
	s-31.1,10.3-50.5,10.2c-16.7,0.1-33.2-3.1-48.6-9.5c-15.1-6.3-27-15-35.5-26C11.1,967.2,6.6,954,6.9,940.4h63.9
	c0.6,8.9,3.8,16,9.6,21.3c5.8,5.3,13.4,7.9,22.9,7.9c21.4,0,32.1-14.1,32.1-42.2c0-26.1-13.1-39.1-39.3-39.1
	c-14.9,0-26,4.2-33.3,12.7L12.2,890.4z"/>
<path class="st2" d="M423.9,909.9c0,33.1-8.4,58.5-25.1,76.5c-16.7,17.9-40.3,26.9-70.6,26.9c-30.7,0-54.4-9-71.1-27.1
	c-16.7-18-25.1-43.5-25.2-76.3v-44.7c0-33,8.4-58.5,25.1-76.5c16.7-17.9,40.3-26.9,70.8-26.9c30.5,0,54.1,9,70.9,27
	s25.2,43.5,25.2,76.5V909.9z M360.2,858c0-17.6-2.6-30.7-7.8-39.4c-5.2-8.7-13.4-13-24.6-13c-11,0-18.9,4-23.9,12.1
	c-5,8.1-7.6,20.3-8,36.6v62.5c0,18.3,2.6,31.6,7.8,40.1c5.2,8.5,13.4,12.7,24.6,12.7c10.8,0,18.8-4.1,24-12.3
	c5.2-8.2,7.8-21.1,7.9-38.7L360.2,858z"/>
<path class="st2" d="M460.8,890.4l16.8-125.1h160.9v44H529.4l-6.2,48.6c5.7-2.8,11.7-4.9,17.9-6.2c7.1-1.8,14.4-2.7,21.7-2.7
	c27.3,0,48.4,7.2,63.1,21.6c14.7,14.4,22.1,34.6,22,60.6c0.2,15-3.9,29.8-11.8,42.6c-7.9,12.7-18.9,22.5-33.2,29.3
	c-14.2,6.8-31.1,10.3-50.5,10.2c-16.7,0.1-33.2-3.1-48.6-9.5c-15.1-6.3-27-15-35.6-26c-8.4-10.6-12.9-23.8-12.7-37.3h63.9
	c0.6,8.9,3.9,16,9.7,21.3c5.8,5.3,13.4,7.9,22.9,7.9c21.4,0,32.2-14.1,32.2-42.2c0-26.1-13.1-39.1-39.3-39.1
	c-14.9,0-26,4.2-33.3,12.7L460.8,890.4z"/>
<rect x="677.7" y="947.6" class="st3" width="21" height="17.8"/>
<polygon class="st4" points="700.7,962.7 700.7,980.5 650.7,980.5 650.7,974 676.7,962.7 "/>
<rect x="350.7" y="729.1" class="st3" width="21" height="17.8"/>
<polygon class="st4" points="373.7,744.2 373.7,762 323.6,762 323.6,755.5 349.7,744.2 "/>
<path class="st4" d="M700.4,952.3c0,0-17.6-344.1-22.3-428.2c7.3-19,10.9-42.1,10.9-66.3c0,0-62.5-13.7-115.2-26.5s-157-17-169.8,0
	c-38.8,61.2-59.6,300-59.6,300h32.3c0,0,78.1-205,83.6-221.3c15.8,15.6,61.6,39.9,108.6,52.4L677,952.3H700.4z"/>
<path class="st5" d="M532.7,112.6c0.8-3.8,4.2-6.4,8.1-6.1c4.7,0.3,12.5,12.8,12.5,23s-2.9,13.9-2,21.3s19.6,107.2,19.6,113.3
	c4.7,0.3,21.6-2,21.6-2l-11.8,47.6h-34.5l-22.3-192L532.7,112.6z"/>
<path class="st6" d="M565.7,129.6l-7.3,29.3c0,0-71.6-8.3-79.4-10.2s4-50.4,12-48.5S565.7,129.6,565.7,129.6z"/>
<path class="st6" d="M631.3,216.4c91.6,0,69,236.8,58.3,245.6S565,441,555.6,427.8S564.1,216.4,631.3,216.4z"/>
<path class="st3" d="M598.6,276.5c-5,1.7-34.6,13.2-34.6,13.2c-0.5-5.9-23.2-123.7-24.6-130.9c2.9-7.2,4.3-14.9,4.2-22.6
	c0-19.3-7.8-35-17.5-35s-17.5,15.7-17.5,35c-0.1,8.1,1.4,16.1,4.6,23.6c-1.1,14.7-10.9,154.5,9.1,174.4c21,21,72.2,2.1,103.2-12.1
	C632.1,319.8,623,269.9,598.6,276.5z"/>
<rect x="559" y="136.1" transform="matrix(0.2566 -0.9665 0.9665 0.2566 279.6839 655.0864)" class="st6" width="13.4" height="19.2"/>
<path class="st7" d="M682.1,263.1c14,27.1-41.3,76-56.6,72.3s-40-58.2-35.4-68S668.5,236.8,682.1,263.1z"/>
<path class="st3" d="M637,239.4c0,4.6-28,5.8-28,0v-52.9h28V239.4z"/>
<path class="st3" d="M612.8,99c20.2,0,36.5,26.4,36.5,59.1s-16.4,59.1-36.5,59.1s-36.5-26.4-36.5-59.1S592.7,99,612.8,99z"/>
<linearGradient id="SVGID_1_" gradientUnits="userSpaceOnUse" x1="782.25" y1="965.67" x2="782.25" y2="782.99" gradientTransform="matrix(1 0 0 -1 0 1018)">
	<stop  offset="0.33" style="stop-color:#814627"/>
	<stop  offset="1" style="stop-color:#593823"/>
</linearGradient>
<path class="st8" d="M585.5,118.9c-0.6,8.6,3.6,16.9,10.8,21.6c10.9,7.4,18.7,4.1,26.7,11.1c4.2,4.2,14.5,12.4,14.6,25
	c0,9.3,3.1,14,5.7,14s9.8-1.9,14.3-1.9c44.7,0,97.2,46.2,197.9,46.2c52.6,0,135.2-13.3,135.2-90.5c0-41.7-15-92.2-94.4-92.2
	c-50.4,0-85.7,24.7-127.1,24.7c-53.2,0-73.7-19.3-110.5-19.3c-26.2,0-85.1,15.2-85.1,54.9c0,15.1,4.7,19.5,6.2,20.2
	C580.3,131.3,583.2,122.7,585.5,118.9z"/>
<path class="st3" d="M633.8,162.8c5.2,0,9.3,4.2,9.3,9.3c0,5.2-4.2,9.3-9.3,9.3c-5.2,0-9.3-4.2-9.3-9.3c0,0,0,0,0,0
	C624.5,166.9,628.7,162.8,633.8,162.8z"/>
</svg>
