<?xml version="1.0" encoding="utf-8"?>
<!-- Generator: Adobe Illustrator 23.0.4, SVG Export Plug-In . SVG Version: 6.00 Build 0)  -->
<svg version="1.1" id="Layer_1" xmlns="http://www.w3.org/2000/svg" xmlns:xlink="http://www.w3.org/1999/xlink" x="0px" y="0px"
	 viewBox="0 0 1215.3 899.1" style="enable-background:new 0 0 1215.3 899.1;" xml:space="preserve">
<style type="text/css">
	.st0{fill:#DAF1F3;}
	.st1{fill:#292944;}
	.st2{fill:#403E56;}
	.st3{fill:#F9AA8F;}
	.st4{fill:#04AAAA;}
	.st5{fill:#F89C84;}
	.st6{fill:#00B5BB;}
	.st7{fill:#00A9AA;}
	.st8{fill:url(#SVGID_1_);}
</style>
<title>Untitled-1</title>
<path class="st0" d="M973.1,106.7c50.6,45.6,83.7,109.2,136.9,200.7c53.4,91.4,127.1,210.7,99.1,281.8
	c-27.9,71.1-157.9,94-280.7,140.6s-238.3,116.7-344.6,103S380.4,721.8,356,614.1c-24.7-107.9,23.1-226.2,57.5-333.8
	c34.2-107.7,55-204.8,114.8-248.8S687-3,770.7,15.2C854.5,33.8,922.6,61.2,973.1,106.7z"/>
<g>
	<path class="st1" d="M131.4,804.1H54.5v46.8h90.9v36.3H5.6V691.5h140.1v36.4H54.5v41.3h76.9V804.1z"/>
	<path class="st1" d="M240.7,818h-26.5v69.2h-48.9V691.5h79.9c24.1,0,42.9,5.1,56.4,15.4c13.6,10.3,20.3,24.8,20.3,43.6
		c0,13.6-2.9,24.9-8.6,33.8c-5.7,9-14.7,16.2-26.8,21.8l42.4,79v2h-52.4L240.7,818z M214.2,781.7h30.9c9.3,0,16.3-2.4,21-7.1
		c4.7-4.7,7-11.3,7-19.7s-2.4-15.1-7.1-19.9c-4.7-4.8-11.7-7.2-20.9-7.2h-30.9L214.2,781.7L214.2,781.7z"/>
	<path class="st1" d="M426.9,818h-26.5v69.2h-48.9V691.5h79.9c24.1,0,42.9,5.1,56.4,15.4c13.6,10.3,20.3,24.8,20.3,43.6
		c0,13.6-2.9,24.9-8.6,33.8c-5.7,9-14.7,16.2-26.8,21.8l42.4,79v2h-52.4L426.9,818z M400.4,781.7h30.9c9.3,0,16.3-2.4,21-7.1
		c4.7-4.7,7-11.3,7-19.7s-2.4-15.1-7.1-19.9c-4.7-4.8-11.7-7.2-20.9-7.2h-30.9V781.7z"/>
	<path class="st1" d="M709.5,793.4c0,19.1-3.7,36-11,50.7s-17.8,26-31.3,33.9s-28.9,11.9-46.2,11.9s-32.6-3.8-46-11.5
		s-23.8-18.6-31.3-32.9c-7.5-14.3-11.4-30.6-11.8-49.1v-11c0-19.2,3.6-36.1,10.9-50.8c7.3-14.7,17.7-26,31.4-33.9
		c13.6-8,29.1-12,46.5-12c17.2,0,32.5,3.9,46,11.8c13.5,7.9,23.9,19.1,31.4,33.7c7.5,14.6,11.3,31.3,11.4,50.1L709.5,793.4
		L709.5,793.4z M659.8,785.2c0-19.4-3.4-34.2-10.1-44.3c-6.7-10.1-16.4-15.1-28.9-15.1c-24.5,0-37.5,17.7-38.9,53.2l-0.1,14.4
		c0,19.2,3.3,33.9,9.9,44.2c6.6,10.3,16.4,15.5,29.4,15.5c12.4,0,21.9-5.1,28.6-15.2c6.7-10.1,10.1-24.7,10.2-43.7v-9H659.8z"/>
	<path class="st1" d="M810.1,818h-26.5v69.2h-48.9V691.5h79.9c24.1,0,42.9,5.1,56.4,15.4c13.6,10.3,20.3,24.8,20.3,43.6
		c0,13.6-2.9,24.9-8.6,33.8c-5.7,9-14.7,16.2-26.8,21.8l42.4,79v2H846L810.1,818z M783.7,781.7h30.9c9.3,0,16.3-2.4,21-7.1
		c4.7-4.7,7-11.3,7-19.7s-2.4-15.1-7.1-19.9c-4.7-4.8-11.7-7.2-20.9-7.2h-30.9V781.7z"/>
</g>
<g>
	<path class="st2" d="M138.1,804.1H61.2v46.8h90.9v36.3H12.3V691.5h140.1v36.4H61.2v41.3h76.9V804.1z"/>
	<path class="st2" d="M247.4,818h-26.5v69.2H172V691.5h79.9c24.1,0,42.9,5.1,56.4,15.4c13.6,10.3,20.3,24.8,20.3,43.6
		c0,13.6-2.9,24.9-8.6,33.8c-5.7,9-14.7,16.2-26.8,21.8l42.4,79v2h-52.4L247.4,818z M220.9,781.7h30.9c9.3,0,16.3-2.4,21-7.1
		c4.7-4.7,7-11.3,7-19.7s-2.4-15.1-7.1-19.9c-4.7-4.8-11.7-7.2-20.9-7.2h-30.9V781.7z"/>
	<path class="st2" d="M433.6,818h-26.5v69.2h-48.9V691.5H438c24.1,0,42.9,5.1,56.4,15.4c13.6,10.3,20.3,24.8,20.3,43.6
		c0,13.6-2.9,24.9-8.6,33.8c-5.7,9-14.7,16.2-26.8,21.8l42.4,79v2h-52.4L433.6,818z M407.1,781.7H438c9.3,0,16.3-2.4,21-7.1
		c4.7-4.7,7-11.3,7-19.7s-2.4-15.1-7.1-19.9c-4.7-4.8-11.7-7.2-20.9-7.2h-30.9V781.7z"/>
	<path class="st2" d="M716.2,793.4c0,19.1-3.7,36-11,50.7s-17.8,26-31.3,33.9s-28.9,11.9-46.2,11.9s-32.6-3.8-46-11.5
		s-23.8-18.6-31.3-32.9c-7.5-14.3-11.4-30.6-11.8-49.1v-11c0-19.2,3.6-36.1,10.9-50.8c7.3-14.7,17.7-26,31.4-33.9
		c13.6-8,29.1-12,46.5-12c17.2,0,32.5,3.9,46,11.8c13.5,7.9,23.9,19.1,31.4,33.7c7.5,14.6,11.3,31.3,11.4,50.1L716.2,793.4
		L716.2,793.4z M666.5,785.2c0-19.4-3.4-34.2-10.1-44.3c-6.7-10.1-16.4-15.1-28.9-15.1c-24.5,0-37.5,17.7-38.9,53.2l-0.1,14.4
		c0,19.2,3.3,33.9,9.9,44.2c6.6,10.3,16.4,15.5,29.4,15.5c12.4,0,21.9-5.1,28.6-15.2c6.7-10.1,10.1-24.7,10.2-43.7v-9H666.5z"/>
	<path class="st2" d="M816.8,818h-26.5v69.2h-48.9V691.5h79.9c24.1,0,42.9,5.1,56.4,15.4c13.6,10.3,20.3,24.8,20.3,43.6
		c0,13.6-2.9,24.9-8.6,33.8c-5.7,9-14.7,16.2-26.8,21.8l42.4,79v2h-52.4L816.8,818z M790.4,781.7h30.9c9.3,0,16.3-2.4,21-7.1
		c4.7-4.7,7-11.3,7-19.7s-2.4-15.1-7.1-19.9c-4.7-4.8-11.7-7.2-20.9-7.2h-30.9V781.7z"/>
</g>
<path class="st0" d="M833.3,765.2c-1.2,1.6-2.5,3.3-3.9,5.1c1.2-0.5,2.4-1.1,3.7-1.6C833.2,767.5,833.2,766.4,833.3,765.2"/>
<rect x="922.2" y="857.5" class="st3" width="19.1" height="16.2"/>
<polygon class="st4" points="943.1,871.2 943.1,887.4 897.6,887.4 897.6,881.5 921.3,871.2 "/>
<rect x="624.7" y="658.8" class="st3" width="19.1" height="16.2"/>
<polygon class="st4" points="645.6,672.4 645.6,688.6 600.1,688.6 600.1,682.7 623.8,672.4 "/>
<path class="st4" d="M942.8,861.7c0,0-16-312.9-20.3-389.4c6.6-17.3,9.9-38.3,9.9-60.3c0,0-56.9-12.4-104.7-24
	c-47.9-11.6-142.8-15.5-154.4,0c-35.4,55.7-54.2,272.8-54.2,272.8h29.4c0,0,71-186.5,76-201.3c14.4,14.2,56,36.3,98.7,47.6
	l98.3,354.6H942.8z"/>
<path class="st5" d="M790.2,98c0.7-3.4,3.9-5.8,7.4-5.5c4.3,0.3,11.4,11.7,11.4,20.9s-2.6,12.7-1.8,19.4c0.8,6.7,17.8,97.5,17.8,103
	c4.3,0.3,19.7-1.8,19.7-1.8l-10.8,43.4h-31.3l-20.3-174.6L790.2,98z"/>
<path class="st6" d="M820.3,113.5l-6.6,26.7c0,0-65.2-7.6-72.3-9.3c-7.1-1.8,3.6-45.9,10.9-44.1C759.6,88.6,820.3,113.5,820.3,113.5
	z"/>
<path class="st6" d="M880,192.4c83.3,0,62.8,215.3,53.1,223.4c-9.7,8.1-113.4-19.1-122-31.1C802.5,372.7,818.8,192.4,880,192.4z"/>
<path class="st3" d="M850.2,247.1c-4.6,1.6-31.4,12-31.4,12c-0.5-5.4-21.1-112.5-22.4-119.1c2.6-6.5,3.9-13.5,3.8-20.6
	c0-17.6-7.1-31.9-16-31.9c-8.8,0-15.9,14.3-15.9,31.9c-0.1,7.4,1.3,14.7,4.2,21.4c-1,13.4-9.9,140.5,8.3,158.6
	c19.1,19.1,65.6,1.9,93.9-11C880.7,286.5,872.4,241.1,850.2,247.1z"/>
<rect x="814.1" y="119.4" transform="matrix(0.2566 -0.9665 0.9665 0.2566 485.8811 887.9861)" class="st6" width="12.2" height="17.4"/>
<path class="st7" d="M926.2,234.9c12.7,24.7-37.6,69.1-51.5,65.8s-36.4-53-32.2-61.9C846.7,229.9,913.8,210.9,926.2,234.9z"/>
<path class="st3" d="M885.1,213.3c0,4.2-25.5,5.2-25.5,0v-48.1h25.5V213.3z"/>
<path class="st3" d="M863.2,85.7c18.4,0,33.2,24.1,33.2,53.7s-14.9,53.7-33.2,53.7S830,169,830,139.4S844.8,85.7,863.2,85.7z"/>
<linearGradient id="SVGID_1_" gradientUnits="userSpaceOnUse" x1="1017.0001" y1="856.8" x2="1017.0001" y2="690.7" gradientTransform="matrix(1 0 0 -1 0 900)">
	<stop  offset="0.3285" style="stop-color:#7F4627"/>
	<stop  offset="1" style="stop-color:#583822"/>
</linearGradient>
<path class="st8" d="M838.3,103.8c-0.5,7.9,3.2,15.4,9.8,19.7c9.9,6.8,17,3.8,24.2,10.1c3.8,3.8,13.2,11.3,13.3,22.7
	c0,8.5,2.8,12.7,5.2,12.7s8.9-1.7,13-1.7c40.7,0,88.4,42,180,42c47.8,0,122.9-12.1,122.9-82.3c0-37.9-13.7-83.8-85.9-83.8
	c-45.8,0-78,22.5-115.6,22.5c-48.4,0-67-17.5-100.5-17.5c-23.8,0-77.4,13.8-77.4,49.9c0,13.7,4.3,17.7,5.6,18.4
	C833.6,115,836.2,107.2,838.3,103.8z"/>
<path class="st3" d="M882.2,143.6c4.7,0,8.5,3.8,8.5,8.5s-3.8,8.5-8.5,8.5s-8.5-3.8-8.5-8.5C873.8,147.4,877.6,143.6,882.2,143.6z"
	/>
</svg>
