<?xml version="1.0" encoding="utf-8"?>
<!-- Generator: Adobe Illustrator 23.0.4, SVG Export Plug-In . SVG Version: 6.00 Build 0)  -->
<svg version="1.1" id="Layer_1" xmlns="http://www.w3.org/2000/svg" xmlns:xlink="http://www.w3.org/1999/xlink" x="0px" y="0px"
	 viewBox="0 0 1000 1018.1" style="enable-background:new 0 0 1000 1018.1;" xml:space="preserve">
<style type="text/css">
	.st0{fill:#DCEFF2;}
	.st1{fill:#292944;}
	.st2{fill:#403E56;}
	.st3{fill:#F5AB91;}
	.st4{fill:#04AAAA;}
	.st5{fill:#F49C86;}
	.st6{fill:#00B3BA;}
	.st7{fill:#00ABAC;}
	.st8{fill:url(#SVGID_1_);}
</style>
<title>Untitled-1</title>
<path class="st0" d="M731.3,118.4c56.2,50.6,92.9,121.2,151.9,222.7c59.3,101.5,141,233.8,110,312.7S817.9,758.1,681.7,809.9
	S417.3,939.3,299.3,924.2S73.6,801,46.5,681.5c-27.4-119.8,25.6-251,63.8-370.5c37.9-119.5,61-227.3,127.4-276.1s176.1-38.3,269-18
	C599.7,37.5,675.2,67.9,731.3,118.4z"/>
<path class="st1" d="M175.6,918.2h28.2v44.1h-28.2v52.4h-64.3v-52.4H3.8L0,927.4l111.3-159.1v-0.5h64.3V918.2z M61.3,918.2h50v-76
	l-4,5.8L61.3,918.2z"/>
<path class="st1" d="M425.1,913.8c0,33.3-8.4,59.1-25.3,77.2s-40.6,27.1-71.3,27.1c-30.9,0-54.8-9.1-71.8-27.3
	c-16.9-18.2-25.4-43.9-25.4-77v-45.1c0-33.3,8.4-59.1,25.3-77.2s40.7-27.1,71.5-27.1c30.8,0,54.7,9.1,71.6,27.3
	c16.9,18.2,25.4,43.9,25.4,77.2L425.1,913.8z M360.8,861.4c0-17.7-2.6-31-7.8-39.8c-5.2-8.8-13.5-13.1-24.8-13.1
	c-11.1,0-19.1,4.1-24.1,12.2s-7.7,20.5-8.1,37v63.1c0,18.4,2.6,31.9,7.8,40.5c5.2,8.5,13.5,12.8,24.8,12.8c10.9,0,19-4.2,24.2-12.5
	s7.9-21.3,8-39.1L360.8,861.4z"/>
<path class="st1" d="M628.4,918.2h28.2v44.1h-28.2v52.4H564v-52.4H456.6l-3.8-34.9L564,768.3v-0.5h64.3V918.2z M514,918.2h50v-76
	l-4,5.8L514,918.2z"/>
<path class="st2" d="M182.6,918.2h28.2v44.1h-28.2v52.4h-64.3v-52.4H10.8L7,927.4l111.2-159.1v-0.5h64.3V918.2z M68.2,918.2h50v-76
	l-4,5.8L68.2,918.2z"/>
<path class="st2" d="M432,913.8c0,33.3-8.4,59.1-25.3,77.2c-16.9,18.1-40.6,27.1-71.3,27.1c-30.9,0-54.8-9.1-71.8-27.3
	c-16.9-18.2-25.4-43.9-25.4-77v-45.1c0-33.3,8.4-59.1,25.3-77.2s40.7-27.1,71.5-27.1c30.8,0,54.7,9.1,71.6,27.3
	c16.9,18.2,25.4,43.9,25.4,77.2V913.8z M367.7,861.4c0-17.7-2.6-31-7.8-39.8c-5.2-8.8-13.5-13.1-24.8-13.1
	c-11.1,0-19.1,4.1-24.1,12.2s-7.7,20.5-8.1,37v63.1c0,18.4,2.6,31.9,7.8,40.5c5.2,8.5,13.5,12.8,24.9,12.8c10.9,0,19-4.2,24.2-12.5
	s7.9-21.3,8-39.1L367.7,861.4z"/>
<path class="st2" d="M635.3,918.2h28.2v44.1h-28.2v52.4H571v-52.4H463.5l-3.8-34.9L571,768.3v-0.5h64.3V918.2z M521,918.2h50v-76
	l-4,5.8L521,918.2z"/>
<rect x="674.7" y="951.6" class="st3" width="21.2" height="18"/>
<polygon class="st4" points="698,966.7 698,984.7 647.4,984.7 647.4,978.2 673.7,966.7 "/>
<rect x="344.6" y="731" class="st3" width="21.2" height="18"/>
<polygon class="st4" points="367.9,746.2 367.9,764.2 317.4,764.2 317.4,757.6 343.6,746.2 "/>
<path class="st4" d="M697.6,956.3c0,0-17.8-347.1-22.5-432.1c7.4-19.2,11-42.6,11-67c0,0-63.1-13.8-116.3-26.7s-158.4-17.2-171.3,0
	c-39.2,61.8-60.1,302.8-60.1,302.8H371c0,0,78.8-207,84.4-223.4c16,15.7,62.1,40.3,109.5,52.9L674,956.3H697.6z"/>
<path class="st5" d="M528.3,108.8c0.8-3.8,4.3-6.5,8.2-6.1c4.8,0.3,12.6,13,12.6,23.2s-2.9,14.1-2,21.5s19.8,108.1,19.8,114.3
	c4.8,0.3,21.8-2,21.8-2l-12,48.1H542l-22.5-193.8L528.3,108.8z"/>
<path class="st6" d="M561.7,125.9l-7.3,29.6c0,0-72.3-8.4-80.2-10.4s4-50.9,12.1-48.9S561.7,125.9,561.7,125.9z"/>
<path class="st6" d="M627.9,213.5c92.5,0,69.7,239,58.9,247.9S561,440.2,551.5,426.9S560.1,213.5,627.9,213.5z"/>
<path class="st3" d="M594.9,274.2c-5.1,1.7-34.9,13.3-34.9,13.3c-0.5-6-23.4-124.9-24.8-132.1c2.9-7.3,4.3-15,4.2-22.9
	c0-19.5-7.9-35.4-17.7-35.4S504,113.1,504,132.6c-0.1,8.2,1.4,16.3,4.6,23.8c-1.1,14.9-11,155.9,9.2,176
	c21.2,21.3,72.8,2.1,104.2-12.1C628.7,317.9,619.5,267.5,594.9,274.2z"/>
<rect x="554.9" y="132.5" transform="matrix(0.2566 -0.9665 0.9665 0.2566 280.0838 648.5699)" class="st6" width="13.5" height="19.4"/>
<path class="st7" d="M679.2,260.7c14.1,27.4-41.7,76.7-57.2,73s-40.3-58.8-35.7-68.7S665.5,234.1,679.2,260.7z"/>
<path class="st3" d="M633.6,236.7c0,4.6-28.2,5.8-28.2,0v-53.3h28.2V236.7z"/>
<path class="st3" d="M609.2,95.1c20.4,0,36.9,26.7,36.9,59.6s-16.5,59.6-36.9,59.6s-36.9-26.7-36.9-59.6S588.9,95.1,609.2,95.1z"/>
<linearGradient id="SVGID_1_" gradientUnits="userSpaceOnUse" x1="780.18" y1="970.09" x2="780.18" y2="785.71" gradientTransform="matrix(1 0 0 -1 0 1018)">
	<stop  offset="0.33" style="stop-color:#814627"/>
	<stop  offset="1" style="stop-color:#593823"/>
</linearGradient>
<path class="st8" d="M581.6,115.2c-0.6,8.7,3.6,17.1,10.9,21.8c11,7.5,18.8,4.2,26.9,11.2c4.3,4.3,14.7,12.5,14.8,25.2
	c0,9.4,3.1,14.1,5.8,14.1s9.8-1.9,14.5-1.9c45.1,0,98.1,46.6,199.8,46.6c53.1,0,136.4-13.4,136.4-91.4c0-42.1-15.2-93-95.3-93
	c-50.9,0-86.5,25-128.3,25c-53.7,0-74.4-19.4-111.5-19.4c-26.4,0-85.9,15.3-85.9,55.4c0,15.2,4.8,19.6,6.2,20.4
	C576.4,127.6,579.3,119,581.6,115.2z"/>
<path class="st3" d="M630.4,159.4c5.2,0,9.4,4.2,9.4,9.4c0,5.2-4.2,9.4-9.4,9.4c-5.2,0-9.4-4.2-9.4-9.4
	C621,163.6,625.2,159.4,630.4,159.4C630.4,159.4,630.4,159.4,630.4,159.4z"/>
</svg>
